<svg width="87" height="72" viewBox="0 0 87 72" fill="none" xmlns="http://www.w3.org/2000/svg">
<g clip-path="url(#clip0_2357_105)">
<mask id="mask0_2357_105" style="mask-type:luminance" maskUnits="userSpaceOnUse" x="19" y="11" width="50" height="50">
<path d="M69 11H19V61H69V11Z" fill="white"/>
</mask>
<g mask="url(#mask0_2357_105)">
<path d="M61.9688 39.832H59.625V37.4883C59.625 35.3344 57.8727 33.582 55.7188 33.582H51.8125V31.2383C51.8125 30.807 51.4625 30.457 51.0312 30.457H44.7812V28.7836C46.125 28.4344 47.125 27.2211 47.125 25.7695C47.125 24.0461 45.7234 22.6445 44 22.6445C42.2766 22.6445 40.875 24.0461 40.875 25.7695C40.875 27.2211 41.875 28.4344 43.2188 28.7836V30.457H36.9688C36.5375 30.457 36.1875 30.807 36.1875 31.2383V33.582H32.2812C30.1273 33.582 28.375 35.3344 28.375 37.4883V39.832H26.0312C24.7391 39.832 23.6875 40.8836 23.6875 42.1758V51.5508C23.6875 52.843 24.7391 53.8945 26.0312 53.8945H28.375V56.2383C28.375 58.3922 30.1273 60.1445 32.2812 60.1445H55.7188C57.8727 60.1445 59.625 58.3922 59.625 56.2383V53.8945H61.9688C63.2609 53.8945 64.3125 52.843 64.3125 51.5508V42.1758C64.3125 40.8836 63.2609 39.832 61.9688 39.832ZM42.4375 25.7695C42.4375 24.9078 43.1383 24.207 44 24.207C44.8617 24.207 45.5625 24.9078 45.5625 25.7695C45.5625 26.6313 44.8617 27.332 44 27.332C43.1383 27.332 42.4375 26.6313 42.4375 25.7695ZM26.0312 52.332C25.6008 52.332 25.25 51.9813 25.25 51.5508V42.1758C25.25 41.7453 25.6008 41.3945 26.0312 41.3945H28.375V52.332H26.0312ZM37.75 32.0195H50.25V33.582H37.75V32.0195ZM58.0625 56.2383C58.0625 57.5305 57.0109 58.582 55.7188 58.582H32.2812C30.9891 58.582 29.9375 57.5305 29.9375 56.2383V37.4883C29.9375 36.1961 30.9891 35.1445 32.2812 35.1445H55.7188C57.0109 35.1445 58.0625 36.1961 58.0625 37.4883V56.2383ZM62.75 51.5508C62.75 51.9813 62.3992 52.332 61.9688 52.332H59.625V41.3945H61.9688C62.3992 41.3945 62.75 41.7453 62.75 42.1758V51.5508Z" fill="white"/>
<path d="M51.0312 47.6445H36.9688C36.5375 47.6445 36.1875 47.9945 36.1875 48.4258V49.207C36.1875 53.5148 39.6922 57.0195 44 57.0195C48.3078 57.0195 51.8125 53.5148 51.8125 49.207V48.4258C51.8125 47.9945 51.4625 47.6445 51.0312 47.6445ZM44 55.457C40.5539 55.457 37.75 52.6531 37.75 49.207H50.25C50.25 52.6531 47.4461 55.457 44 55.457Z" fill="white"/>
<path d="M39.3125 42.957C39.3125 41.2336 37.9109 39.832 36.1875 39.832C34.4641 39.832 33.0625 41.2336 33.0625 42.957C33.0625 44.6805 34.4641 46.082 36.1875 46.082C37.9109 46.082 39.3125 44.6805 39.3125 42.957ZM34.625 42.957C34.625 42.0953 35.3258 41.3945 36.1875 41.3945C37.0492 41.3945 37.75 42.0953 37.75 42.957C37.75 43.8187 37.0492 44.5195 36.1875 44.5195C35.3258 44.5195 34.625 43.8187 34.625 42.957Z" fill="white"/>
<path d="M51.8125 39.832C50.0891 39.832 48.6875 41.2336 48.6875 42.957C48.6875 44.6805 50.0891 46.082 51.8125 46.082C53.5359 46.082 54.9375 44.6805 54.9375 42.957C54.9375 41.2336 53.5359 39.832 51.8125 39.832ZM51.8125 44.5195C50.9508 44.5195 50.25 43.8187 50.25 42.957C50.25 42.0953 50.9508 41.3945 51.8125 41.3945C52.6742 41.3945 53.375 42.0953 53.375 42.957C53.375 43.8187 52.6742 44.5195 51.8125 44.5195Z" fill="white"/>
<path d="M31.7289 28.6656C31.8781 28.8148 32.0781 28.8945 32.2812 28.8945C32.382 28.8945 32.4836 28.875 32.5805 28.8352C32.8719 28.7141 33.0625 28.4297 33.0625 28.1133V25.7695H37.75C39.0422 25.7695 40.0938 24.718 40.0938 23.4258V14.0508C40.0938 12.7586 39.0422 11.707 37.75 11.707H22.125C20.8328 11.707 19.7812 12.7586 19.7812 14.0508V23.4258C19.7812 24.718 20.8328 25.7695 22.125 25.7695H28.8328L31.7289 28.6656ZM21.3438 23.4258V14.0508C21.3438 13.6203 21.6945 13.2695 22.125 13.2695H37.75C38.1805 13.2695 38.5312 13.6203 38.5312 14.0508V23.4258C38.5312 23.8562 38.1805 24.207 37.75 24.207H32.2812C31.85 24.207 31.5 24.557 31.5 24.9883V26.2273L29.7086 24.4359C29.5617 24.2891 29.3633 24.207 29.1562 24.207H22.125C21.6945 24.207 21.3438 23.857 21.3438 23.4258Z" fill="white"/>
<path d="M65.875 14.832H50.25C48.9578 14.832 47.9062 15.8836 47.9062 17.1758V26.5508C47.9062 27.843 48.9578 28.8945 50.25 28.8945H54.9375V31.2383C54.9375 31.5539 55.1281 31.8391 55.4195 31.9602C55.5164 32 55.618 32.0195 55.7188 32.0195C55.9219 32.0195 56.1219 31.9398 56.2711 31.7906L59.1672 28.8945H65.875C67.1672 28.8945 68.2188 27.843 68.2188 26.5508V17.1758C68.2188 15.8836 67.1672 14.832 65.875 14.832ZM66.6562 26.5508C66.6562 26.9812 66.3055 27.332 65.875 27.332H58.8438C58.6367 27.332 58.4376 27.4141 58.2915 27.5609L56.5 29.3523V28.1133C56.5 27.682 56.15 27.332 55.7188 27.332H50.25C49.8195 27.332 49.4688 26.9812 49.4688 26.5508V17.1758C49.4688 16.7453 49.8195 16.3945 50.25 16.3945H65.875C66.3055 16.3945 66.6562 16.7453 66.6562 17.1758V26.5508Z" fill="white"/>
<path d="M22.9062 14.832H36.9688V16.3945H22.9062V14.832Z" fill="white"/>
<path d="M22.9062 21.082H36.9688V22.6445H22.9062V21.082Z" fill="white"/>
<path d="M24.4688 17.957H35.4062V19.5195H24.4688V17.957Z" fill="white"/>
<path d="M51.0312 17.957H65.0938V19.5195H51.0312V17.957Z" fill="white"/>
<path d="M51.0312 24.207H65.0938V25.7695H51.0312V24.207Z" fill="white"/>
<path d="M52.5938 21.082H63.5312V22.6445H52.5938V21.082Z" fill="white"/>
</g>
</g>
<defs>
<clipPath id="clip0_2357_105">
<rect width="50" height="50" fill="white" transform="translate(19 11)"/>
</clipPath>
</defs>
</svg>
