<svg width="87" height="72" viewBox="0 0 87 72" fill="none" xmlns="http://www.w3.org/2000/svg">
<g clip-path="url(#clip0_2355_96)">
<mask id="mask0_2355_96" style="mask-type:luminance" maskUnits="userSpaceOnUse" x="19" y="6" width="50" height="60">
<path d="M69 6H19V66H69V6Z" fill="white"/>
</mask>
<g mask="url(#mask0_2355_96)">
<path d="M60.0604 46.0804L61.5064 44.6345L60.3661 43.4941L58.9201 44.9401L57.3983 43.4183C58.6209 41.2175 59.3233 38.6901 59.3233 35.9998C59.3233 35.7699 59.2991 35.5466 59.2887 35.3191C63.0782 34.428 65.7749 31.0732 65.7749 27.1288H64.162C64.162 30.2433 62.083 32.907 59.1314 33.7006C58.0161 26.3409 51.6661 20.6772 44.0008 20.6772C43.7709 20.6772 43.5475 20.7014 43.3201 20.7119C42.429 16.9224 39.0741 14.2256 35.1298 14.2256V15.8385C38.2443 15.8385 40.908 17.9175 41.7016 20.8691C34.3419 21.9845 28.6782 28.3345 28.6782 35.9998C28.6782 36.2296 28.7024 36.453 28.7129 36.6804C24.9233 37.5716 22.2266 40.9264 22.2266 44.8707H23.8395C23.8395 41.7562 25.9185 39.0925 28.8701 38.299C29.9854 45.6587 36.3354 51.3224 44.0008 51.3224C46.6911 51.3224 49.2185 50.6199 51.4185 49.3974L52.9403 50.9191L51.4943 52.3651L52.6346 53.5054L54.0806 52.0595L61.783 59.7619C62.5814 60.5603 63.6435 60.9998 64.7725 60.9998C67.104 60.9998 69.0008 59.103 69.0008 56.7724C69.0008 55.6433 68.5612 54.5812 67.7629 53.7828L60.0604 46.0804ZM44.0008 22.2901C50.8798 22.2901 56.5741 27.3869 57.5475 33.9998L55.958 34.2643C55.1129 28.4151 50.0806 23.903 44.0008 23.903C43.9596 23.903 43.9193 23.9087 43.8782 23.9095L43.612 22.3103C43.7427 22.3062 43.8693 22.2901 44.0008 22.2901ZM44.0008 25.5159C49.7814 25.5159 54.4846 30.2191 54.4846 35.9998C54.4846 41.7804 49.7814 46.4837 44.0008 46.4837C38.2201 46.4837 33.5169 41.7804 33.5169 35.9998C33.5169 30.2191 38.2201 25.5159 44.0008 25.5159ZM30.2911 35.9998C30.2911 29.1207 35.3879 23.4264 42.0008 22.453L42.2653 24.0425C36.4161 24.8877 31.904 29.9199 31.904 35.9998C31.904 36.0409 31.9096 36.0812 31.9104 36.1224L30.3112 36.3885C30.3072 36.2578 30.2911 36.1312 30.2911 35.9998ZM44.0008 49.7095C37.1217 49.7095 31.4274 44.6127 30.454 37.9998L32.0435 37.7353C32.8887 43.5845 37.9209 48.0966 44.0008 48.0966C50.6709 48.0966 56.0975 42.6699 56.0975 35.9998C56.0975 35.9587 56.0919 35.9183 56.0911 35.8772L57.6903 35.6111C57.6943 35.7417 57.7104 35.8683 57.7104 35.9998C57.7104 43.5595 51.5604 49.7095 44.0008 49.7095ZM52.8153 48.5127C54.2491 47.4998 55.5008 46.2482 56.5137 44.8143L57.7798 46.0804L54.0814 49.7788L52.8153 48.5127ZM64.7733 59.3869C64.075 59.3869 63.4177 59.1151 62.9241 58.6216L55.2217 50.9191L58.9201 47.2207L66.6225 54.9232C67.1161 55.4167 67.3879 56.074 67.3879 56.7724C67.3879 58.2143 66.2153 59.3869 64.7733 59.3869Z" fill="white"/>
<path d="M61.7424 25.5161C65.7449 25.5161 69.0005 22.2605 69.0005 18.2581C69.0005 14.2556 65.7449 11 61.7424 11C57.74 11 54.4844 14.2556 54.4844 18.2581C54.4844 22.2605 57.74 25.5161 61.7424 25.5161ZM64.1618 23.3508C63.4271 23.7008 62.6086 23.9032 61.7424 23.9032C60.8763 23.9032 60.0578 23.7008 59.3231 23.3508V22.2903C59.3231 20.9565 60.4086 19.871 61.7424 19.871C63.0763 19.871 64.1618 20.9565 64.1618 22.2903V23.3508ZM60.1295 16.6452C60.1295 15.7556 60.8529 15.0323 61.7424 15.0323C62.632 15.0323 63.3553 15.7556 63.3553 16.6452C63.3553 17.5347 62.632 18.2581 61.7424 18.2581C60.8529 18.2581 60.1295 17.5347 60.1295 16.6452ZM61.7424 12.6129C64.8545 12.6129 67.3876 15.146 67.3876 18.2581C67.3876 19.796 66.7674 21.1903 65.7666 22.2097C65.7392 20.854 65.0465 19.6581 63.9957 18.9476C64.5941 18.3621 64.9682 17.5476 64.9682 16.6452C64.9682 14.8661 63.5215 13.4194 61.7424 13.4194C59.9634 13.4194 58.5166 14.8661 58.5166 16.6452C58.5166 17.5476 58.8908 18.3621 59.4892 18.9476C58.4376 19.6589 57.7449 20.854 57.7182 22.2097C56.7174 21.1903 56.0973 19.796 56.0973 18.2581C56.0973 15.146 58.6303 12.6129 61.7424 12.6129Z" fill="white"/>
<path d="M26.2581 25.5161C30.2605 25.5161 33.5161 22.2605 33.5161 18.2581C33.5161 14.2556 30.2605 11 26.2581 11C22.2557 11 19 14.2556 19 18.2581C19 22.2605 22.2557 25.5161 26.2581 25.5161ZM28.6774 23.3508C27.9427 23.7008 27.1242 23.9032 26.2581 23.9032C25.3919 23.9032 24.5734 23.7008 23.8387 23.3508V22.2903C23.8387 20.9565 24.9242 19.871 26.2581 19.871C27.5919 19.871 28.6774 20.9565 28.6774 22.2903V23.3508ZM24.6452 16.6452C24.6452 15.7556 25.3686 15.0323 26.2581 15.0323C27.1476 15.0323 27.871 15.7556 27.871 16.6452C27.871 17.5347 27.1476 18.2581 26.2581 18.2581C25.3686 18.2581 24.6452 17.5347 24.6452 16.6452ZM26.2581 12.6129C29.3702 12.6129 31.9032 15.146 31.9032 18.2581C31.9032 19.796 31.2831 21.1903 30.2823 22.2097C30.2548 20.854 29.5621 19.6581 28.5113 18.9476C29.1097 18.3621 29.4839 17.5476 29.4839 16.6452C29.4839 14.8661 28.0371 13.4194 26.2581 13.4194C24.479 13.4194 23.0323 14.8661 23.0323 16.6452C23.0323 17.5476 23.4064 18.3621 24.0048 18.9476C22.954 19.6589 22.2613 20.854 22.2339 22.2097C21.2331 21.1903 20.6129 19.796 20.6129 18.2581C20.6129 15.146 23.146 12.6129 26.2581 12.6129Z" fill="white"/>
<path d="M26.2581 46.4844C22.2557 46.4844 19 49.74 19 53.7425C19 57.7449 22.2557 61.0005 26.2581 61.0005C30.2605 61.0005 33.5161 57.7449 33.5161 53.7425C33.5161 49.74 30.2605 46.4844 26.2581 46.4844ZM28.6774 58.8352C27.9427 59.1852 27.1242 59.3876 26.2581 59.3876C25.3919 59.3876 24.5734 59.1852 23.8387 58.8352V57.7747C23.8387 56.4408 24.9242 55.3554 26.2581 55.3554C27.5919 55.3554 28.6774 56.4408 28.6774 57.7747V58.8352ZM24.6452 52.1295C24.6452 51.24 25.3686 50.5166 26.2581 50.5166C27.1476 50.5166 27.871 51.24 27.871 52.1295C27.871 53.0191 27.1476 53.7425 26.2581 53.7425C25.3686 53.7425 24.6452 53.0191 24.6452 52.1295ZM30.2823 57.6941C30.2548 56.3384 29.5621 55.1425 28.5113 54.432C29.1097 53.8465 29.4839 53.032 29.4839 52.1295C29.4839 50.3505 28.0371 48.9037 26.2581 48.9037C24.479 48.9037 23.0323 50.3505 23.0323 52.1295C23.0323 53.032 23.4064 53.8465 24.0048 54.432C22.954 55.1433 22.2613 56.3384 22.2339 57.6941C21.2331 56.6747 20.6129 55.2804 20.6129 53.7425C20.6129 50.6304 23.146 48.0973 26.2581 48.0973C29.3702 48.0973 31.9032 50.6304 31.9032 53.7425C31.9032 55.2804 31.2831 56.6747 30.2823 57.6941Z" fill="white"/>
<path d="M35.1289 34.3872V38.4194V39.2259V40.0323H52.8708V39.2259V38.4194V31.1614H48.0321V38.4194H46.4192V27.9355H41.5805V38.4194H39.9676V34.3872H35.1289ZM49.645 32.7743H51.2579V38.4194H49.645V32.7743ZM43.1934 29.5484H44.8063V38.4194H43.1934V29.5484ZM38.3547 38.4194H36.7418V36.0001H38.3547V38.4194Z" fill="white"/>
</g>
</g>
<defs>
<clipPath id="clip0_2355_96">
<rect width="50" height="60" fill="white" transform="translate(19 6)"/>
</clipPath>
</defs>
</svg>
