<svg width="87" height="72" viewBox="0 0 87 72" fill="none" xmlns="http://www.w3.org/2000/svg">
<g clip-path="url(#clip0_2357_115)">
<mask id="mask0_2357_115" style="mask-type:luminance" maskUnits="userSpaceOnUse" x="19" y="11" width="50" height="50">
<path d="M69 11H19V61H69V11Z" fill="white"/>
</mask>
<g mask="url(#mask0_2357_115)">
<path d="M30.7188 10.9023C24.2571 10.9023 19 16.0543 19 22.3867C19 28.7191 24.2571 33.8711 30.7188 33.8711C37.1804 33.8711 42.4375 28.7191 42.4375 22.3867C42.4375 16.0543 37.1804 10.9023 30.7188 10.9023ZM34.8615 24.4167C35.4337 24.9774 35.4337 25.8859 34.8615 26.4466C34.2894 27.0074 33.3624 27.0075 32.7901 26.4466L30.7188 24.4167L28.6474 26.4466C28.0752 27.0074 27.1482 27.0075 26.576 26.4466C26.0038 25.8859 26.0038 24.9774 26.576 24.4167L28.6474 22.3867L26.576 20.3568C26.0038 19.796 26.0038 18.8875 26.576 18.3268C27.1481 17.7661 28.0752 17.7661 28.6474 18.3268L30.7188 20.3568L32.7901 18.3268C33.3623 17.7661 34.2894 17.7661 34.8615 18.3268C35.4337 18.8875 35.4337 19.796 34.8615 20.3568L32.7901 22.3867L34.8615 24.4167Z" fill="white"/>
<path d="M57.2812 10.9023C50.8196 10.9023 45.5625 16.0543 45.5625 22.3867C45.5625 28.7191 50.8196 33.8711 57.2812 33.8711C63.7429 33.8711 69 28.7191 69 22.3867C69 16.0543 63.7429 10.9023 57.2812 10.9023ZM62.8889 20.3568L56.8521 26.2727C56.566 26.5532 56.1912 26.6934 55.8165 26.6934C55.4418 26.6934 55.0669 26.5532 54.7809 26.2727L51.6738 23.2279C51.1017 22.6671 51.1017 21.7586 51.6738 21.1979C52.246 20.6372 53.173 20.6372 53.7452 21.1979L55.8164 23.2279L60.8175 18.3268C61.3896 17.7661 62.3167 17.7661 62.8889 18.3268C63.461 18.8875 63.461 19.796 62.8889 20.3568Z" fill="white"/>
<path d="M30.7188 36.7428C30.2172 36.7428 29.7428 36.6462 29.2539 36.5977V49.6627C29.2539 50.4562 29.9091 51.0982 30.7188 51.0982C31.5284 51.0982 32.1836 50.4562 32.1836 49.6627V36.5977C31.6947 36.6462 31.2203 36.7428 30.7188 36.7428Z" fill="white"/>
<path d="M57.2812 36.7428C56.7797 36.7428 56.3053 36.6462 55.8164 36.5977V49.6627C55.8164 50.4562 56.4716 51.0982 57.2812 51.0982C58.0909 51.0982 58.7461 50.4562 58.7461 49.6627V36.5977C58.2572 36.6462 57.7828 36.7428 57.2812 36.7428Z" fill="white"/>
</g>
</g>
<defs>
<clipPath id="clip0_2357_115">
<rect width="50" height="50" fill="white" transform="translate(19 11)"/>
</clipPath>
</defs>
</svg>
