<svg width="87" height="72" viewBox="0 0 87 72" fill="none" xmlns="http://www.w3.org/2000/svg">
<g clip-path="url(#clip0_2355_98)">
<mask id="mask0_2355_98" style="mask-type:luminance" maskUnits="userSpaceOnUse" x="19" y="11" width="50" height="50">
<path d="M69 11H19V61H69V11Z" fill="white"/>
</mask>
<g mask="url(#mask0_2355_98)">
<mask id="mask1_2355_98" style="mask-type:luminance" maskUnits="userSpaceOnUse" x="19" y="11" width="50" height="50">
<path d="M69 11H19V61H69V11Z" fill="white"/>
</mask>
<g mask="url(#mask1_2355_98)">
<path d="M64.8837 35.1701C66.1854 28.1003 64.0604 18.382 56.3178 13.7509C51.4276 11.0076 45.6595 10.2818 40.242 11.728C32.7378 13.7347 27.2219 19.1196 25.4874 26.1324C25.1007 27.5548 24.9368 29.0286 25.0017 30.5012C25.0848 31.4149 25.2534 32.3188 25.5054 33.2009C25.8444 34.3236 26.0123 35.491 26.0032 36.6638C25.9683 38.0599 25.0067 39.5084 24.1573 40.7865C23.2314 42.1813 22.4318 43.3858 22.8955 44.4967C23.3356 45.2497 24.1102 45.7458 24.9782 45.8309C25.0282 45.8399 25.0787 45.8451 25.1295 45.8464C25.3615 45.818 25.594 45.8949 25.7632 46.0562C25.9324 46.2174 26.0204 46.446 26.0032 46.679C26.0032 48.4102 26.0464 49.3035 26.7615 49.7132C26.6991 49.8434 26.6556 49.9819 26.6322 50.1244C26.5603 50.6131 26.7363 51.1054 27.1015 51.4378C27.4647 51.7896 27.9248 52.0245 28.4227 52.1122C28.4577 52.1203 28.4911 52.1265 28.5236 52.1342C28.5433 52.2581 28.552 52.3834 28.5496 52.5089C28.5437 52.8186 28.5217 53.128 28.4837 53.4355C28.3454 54.7681 28.1559 56.5934 30.8219 57.4647C31.357 57.6142 31.9116 57.6817 32.4669 57.6648C34.9913 57.5527 37.4861 57.0745 39.8731 56.2451C40.5623 57.4469 40.9778 58.786 41.0897 60.1669C41.0896 60.3878 41.1774 60.5998 41.3337 60.7561C41.4899 60.9123 41.7018 61 41.9229 61H62.7498C63.106 60.9956 63.4195 60.7636 63.5276 60.424C63.6371 60.0798 63.5178 59.7039 63.2298 59.4859C62.3679 58.8314 59.5134 51.936 59.4256 49.4592C59.6772 48.888 60.0142 48.2466 60.4133 47.5015C62.5864 43.6718 64.0977 39.5028 64.8837 35.1701ZM57.7533 49.3756C57.7745 51.3679 59.5706 56.6323 61.1137 59.3339H42.6853C42.4779 58.0575 42.0643 56.8233 41.4608 55.6796C43.8745 54.7336 46.0007 53.5173 47.0213 52.1824C47.2991 51.8166 47.2286 51.295 46.8635 51.0162C46.4986 50.7372 45.9768 50.8063 45.6968 51.1703C43.3391 54.2553 33.5294 56.5976 31.3392 55.8812C29.9521 55.4276 30.0074 54.8952 30.1408 53.6081C30.1851 53.2433 30.2101 52.8764 30.2157 52.5091C30.2157 51.1053 29.6495 50.6863 28.7985 50.489C28.6379 50.466 28.4845 50.4068 28.3502 50.3157C28.5137 50.1594 28.6993 50.028 28.901 49.9256C29.2487 49.7547 29.4329 49.3668 29.3452 48.9893C29.2575 48.6119 28.9215 48.3447 28.534 48.3444C28.233 48.3444 27.8987 48.3444 27.7229 48.3225C27.67 47.7763 27.6521 47.2275 27.6692 46.6791C27.6855 46.0222 27.4358 45.3865 26.9768 44.9164C26.5177 44.4462 25.8881 44.1814 25.231 44.1819C24.6306 44.0554 24.4484 43.8927 24.4329 43.8549C24.3117 43.5657 25.1147 42.3576 25.5459 41.7084C26.4709 40.3155 27.6221 38.5819 27.6692 36.7063C27.6926 35.6655 27.5768 34.6263 27.3249 33.6161C28.2333 32.8168 29.3054 32.2255 30.4662 31.8839C30.8799 31.8117 31.3049 31.8415 31.7044 31.9705C32.1479 32.0928 32.6065 31.8323 32.7287 31.3889C32.8509 30.9454 32.5905 30.4868 32.1471 30.3646C31.491 30.1627 30.7955 30.1246 30.1213 30.2535C28.944 30.5534 27.8438 31.0998 26.8933 31.8566C26.7795 31.3713 26.7024 30.8781 26.6629 30.3812C26.6065 29.083 26.7556 27.7839 27.1047 26.5323C28.7155 20.0218 33.6603 15.2125 40.6731 13.3372C45.6546 12.0012 50.9609 12.6628 55.4619 15.1812C62.5227 19.4039 64.4459 28.3465 63.2451 34.8683C62.4964 39.0332 61.042 43.0398 58.9447 46.7152C58.4866 47.5699 58.0913 48.3078 57.8057 48.9907C57.7575 49.1129 57.7394 49.2449 57.7533 49.3756Z" fill="white"/>
<path d="M59.4068 37.0734C59.526 35.7883 58.6463 34.6241 57.3775 34.3878L55.7821 32.1765C55.88 31.9961 55.9549 31.8042 56.0053 31.6051L57.5503 30.9873C58.2638 31.7996 59.4195 32.0595 60.412 31.6308C61.4044 31.2021 62.0076 30.1826 61.9055 29.1063C61.8033 28.0299 61.019 27.1422 59.9636 26.9079L58.712 24.4113C59.59 23.5168 59.6658 22.1089 58.8889 21.1253C58.112 20.1416 56.7249 19.8892 55.6513 20.536L54.2557 19.3773C54.3613 19.1012 54.4165 18.8085 54.4189 18.5129C54.4211 17.4923 53.8011 16.5732 52.8538 16.1931C51.9066 15.813 50.8232 16.0486 50.1193 16.7877L47.6495 16.1703C47.3537 15.0989 46.3821 14.3544 45.2706 14.3477C44.1591 14.341 43.1786 15.0736 42.8698 16.1412L39.569 16.8013C38.7081 15.8729 37.287 15.7395 36.2683 16.4915C35.2496 17.2434 34.9584 18.6406 35.5918 19.737L33.9744 21.8909C32.8154 22.1004 31.9613 23.0928 31.9269 24.2701C31.8924 25.4473 32.687 26.4879 33.8317 26.7649L35.1691 30.0665C34.4354 30.7868 34.2187 31.8835 34.6235 32.8289C35.0283 33.7741 35.9715 34.3742 36.9991 34.3402C38.0267 34.3062 38.9284 33.6453 39.2699 32.6754H43.7425C44.1159 33.8241 45.2812 34.5195 46.4694 34.303L49.235 38.5098C48.5255 39.2965 48.3907 40.4456 48.8987 41.3752C49.4068 42.3047 50.4469 42.8116 51.4921 42.6391C52.5372 42.4666 53.3593 41.6524 53.5417 40.6089L55.6062 38.9587C55.9991 39.2064 56.4537 39.3386 56.9181 39.3401C58.2088 39.341 59.2877 38.3585 59.4068 37.0734ZM59.4175 28.5099C59.8341 28.509 60.1873 28.8161 60.2444 29.2288C60.3015 29.6414 60.0448 30.0329 59.6437 30.1452C59.2425 30.2575 58.82 30.0561 58.6545 29.6737C58.6517 29.6661 58.6532 29.6581 58.6502 29.6505L58.6449 29.6424C58.6062 29.5472 58.5856 29.4457 58.5843 29.3429C58.5849 28.8831 58.9575 28.5104 59.4175 28.5099ZM56.1027 22.509C56.1826 22.1223 56.5234 21.8449 56.9183 21.8452C57.3784 21.8452 57.7514 22.2181 57.7514 22.6783C57.7514 23.1384 57.3784 23.5113 56.9183 23.5113C56.8152 23.51 56.7134 23.4894 56.6179 23.4506L56.6108 23.4459C56.6035 23.443 56.5958 23.4445 56.5882 23.4417C56.2255 23.2854 56.0226 22.8958 56.1027 22.509ZM55.2739 24.5456L53.7344 28.3948L51.0357 26.2359C51.4018 25.9235 51.6693 25.5117 51.806 25.0502L55.1068 24.39C55.1592 24.4456 55.2165 24.495 55.2739 24.5456ZM54.387 31.2342C54.2748 31.6349 53.884 31.8912 53.4717 31.8344C53.0595 31.7776 52.7525 31.4253 52.7529 31.0091C52.7534 30.5492 53.126 30.1764 53.5859 30.1761C53.689 30.1773 53.7909 30.1979 53.8863 30.2368L53.8935 30.2415C53.901 30.2445 53.9089 30.2432 53.9164 30.246C54.2982 30.4115 54.4991 30.8335 54.387 31.2342ZM51.9198 17.6799C52.3799 17.6799 52.7528 18.0528 52.7528 18.5129C52.7528 18.973 52.3798 19.346 51.9198 19.346C51.4597 19.346 51.0867 18.973 51.0867 18.5129C51.0872 18.053 51.4598 17.6804 51.9198 17.6799ZM47.5357 17.8591L49.4386 18.3349C49.4342 18.3948 49.4206 18.452 49.4206 18.513C49.4221 19.8927 50.5402 21.0108 51.9199 21.0123C52.3666 21.0099 52.8044 20.8866 53.1867 20.6553L54.5824 21.8141C54.4768 22.0902 54.4214 22.3828 54.4191 22.6784C54.4191 22.7288 54.4311 22.776 54.4339 22.8257L51.7207 23.3683C51.3805 22.5763 50.6563 22.0155 49.8044 21.8842L46.7541 18.834C47.0928 18.5802 47.3618 18.2449 47.5357 17.8591ZM50.2537 24.3445C50.2537 24.8047 49.8807 25.1776 49.4206 25.1776C48.9607 25.1771 48.588 24.8045 48.5876 24.3445C48.5876 23.8844 48.9605 23.5115 49.4206 23.5115C49.8807 23.5115 50.2537 23.8844 50.2537 24.3445ZM45.2552 16.0137C45.7153 16.0137 46.0882 16.3866 46.0882 16.8467C46.0882 17.3069 45.7153 17.6798 45.2552 17.6798C44.7951 17.6798 44.4221 17.3069 44.4221 16.8467C44.4225 16.3869 44.7953 16.0142 45.2552 16.0137ZM45.4203 19.8566L47.9215 22.3575C47.5326 22.6512 47.2383 23.0524 47.0749 23.5114H45.1016C44.9049 22.9598 44.5205 22.495 44.0155 22.1982L45.4203 19.8566ZM40.2419 18.3658L42.9551 17.8232C43.168 18.3143 43.5328 18.7243 43.9956 18.9931L42.4834 21.5135L39.8692 19.8361C40.121 19.4406 40.2554 18.9817 40.2567 18.5129C40.2567 18.4626 40.2447 18.4154 40.2419 18.3658ZM43.589 24.3445C43.589 24.8047 43.2161 25.1776 42.756 25.1776C42.296 25.1771 41.9233 24.8045 41.9229 24.3445C41.9229 23.8844 42.2958 23.5115 42.756 23.5115C43.2161 23.5115 43.589 23.8844 43.589 24.3445ZM37.7575 17.6799C38.2176 17.6799 38.5905 18.0528 38.5905 18.5129C38.5905 18.973 38.2176 19.346 37.7575 19.346C37.2974 19.346 36.9244 18.973 36.9244 18.5129C36.9248 18.053 37.2976 17.6804 37.7575 17.6799ZM36.8507 20.8358C37.3583 21.0451 37.9234 21.069 38.4468 20.9034L41.019 22.5538C40.7453 22.822 40.5369 23.1497 40.4103 23.5114H36.7709C36.589 22.9957 36.2432 22.5538 35.7863 22.2534L36.8507 20.8358ZM34.4251 25.1776C33.965 25.1776 33.5921 24.8047 33.5921 24.3445C33.5926 23.8846 33.9652 23.5119 34.4251 23.5115C34.8852 23.5115 35.2582 23.8844 35.2582 24.3445C35.2582 24.8047 34.8852 25.1776 34.4251 25.1776ZM36.9244 32.6753C36.4642 32.6753 36.0913 32.3023 36.0913 31.8422C36.0913 31.3821 36.4642 31.0092 36.9244 31.0092C37.3845 31.0092 37.7574 31.3822 37.7574 31.8422C37.757 32.3022 37.3843 32.6748 36.9244 32.6753ZM37.3981 29.3908C37.2421 29.3598 37.0834 29.3438 36.9244 29.3429C36.8419 29.3429 36.764 29.3594 36.6835 29.3673L35.5483 26.5648C36.1183 26.2759 36.5558 25.7794 36.7708 25.1776H40.4102C40.5602 25.5972 40.82 25.9688 41.1625 26.2538L37.3981 29.3908ZM43.7426 31.0091H39.27C39.1811 30.7596 39.0527 30.5258 38.8899 30.3169L42.9813 26.9074L44.3745 30.0322C44.0898 30.3035 43.8733 30.6382 43.7426 31.0091ZM45.1016 25.1776H47.075C47.2717 25.7292 47.6561 26.194 48.161 26.4908L46.429 29.3775C46.3163 29.3581 46.2026 29.3466 46.0883 29.343C46.0238 29.343 45.9632 29.3573 45.8998 29.362L44.4697 26.1545C44.7544 25.8832 44.9709 25.5485 45.1016 25.1776ZM46.0882 32.6753C45.6281 32.6753 45.2552 32.3023 45.2552 31.8422C45.2552 31.3821 45.6282 31.0092 46.0882 31.0092C46.5484 31.0092 46.9213 31.3822 46.9213 31.8422C46.9209 32.3022 46.5482 32.6748 46.0882 32.6753ZM49.6443 27.2566L51.9708 29.1179C51.6048 29.4303 51.3372 29.8422 51.2005 30.3036L48.3883 30.866C48.2724 30.5998 48.1112 30.3558 47.9116 30.1449L49.6443 27.2566ZM51.0867 41.006C50.6266 41.006 50.2537 40.6331 50.2537 40.173C50.2537 39.7129 50.6266 39.3399 51.0867 39.3399C51.5468 39.3399 51.9198 39.7129 51.9198 40.173C51.9194 40.6329 51.5466 41.0056 51.0867 41.006ZM54.419 36.8407C54.422 37.119 54.4721 37.3948 54.5671 37.6565L53.1608 38.7806C52.635 37.9593 51.6649 37.5372 50.7055 37.7123L47.9398 33.5055C48.1869 33.23 48.3693 32.9029 48.4736 32.5479L51.2859 31.9855C51.822 33.2518 53.2813 33.8459 54.5494 33.3143L55.5771 34.7388C54.8572 35.1955 54.4205 35.9881 54.419 36.8407ZM55.2304 29.1419L56.8199 25.1676C56.8532 25.169 56.8845 25.1776 56.9182 25.1776C57.0186 25.1737 57.1186 25.1635 57.2178 25.1473L58.2265 27.1595C57.4234 27.5928 56.9214 28.4305 56.9182 29.343C56.9182 29.3768 56.9269 29.4081 56.9282 29.4416L55.8081 29.8894C55.6649 29.6058 55.4688 29.3521 55.2304 29.1419ZM56.9182 37.6738C56.4581 37.6738 56.0852 37.3008 56.0852 36.8407C56.0857 36.3808 56.4583 36.0081 56.9182 36.0077C57.3783 36.0077 57.7513 36.3806 57.7513 36.8407C57.7513 37.3008 57.3783 37.6738 56.9182 37.6738Z" fill="white"/>
</g>
</g>
</g>
<defs>
<clipPath id="clip0_2355_98">
<rect width="50" height="50" fill="white" transform="translate(19 11)"/>
</clipPath>
</defs>
</svg>
