<svg width="87" height="72" viewBox="0 0 87 72" fill="none" xmlns="http://www.w3.org/2000/svg">
<mask id="mask0_2355_102" style="mask-type:luminance" maskUnits="userSpaceOnUse" x="19" y="11" width="50" height="50">
<path d="M69 11H19V61H69V11Z" fill="white"/>
</mask>
<g mask="url(#mask0_2355_102)">
<path d="M67.9984 33.0413L63.8241 31.6497C63.6917 31.0445 63.5312 30.4447 63.3438 29.8546L66.2627 26.5631C66.6811 26.0913 66.7506 25.4048 66.4354 24.8588L64.8664 22.1413C64.5512 21.5953 63.9225 21.3123 63.3042 21.4386L58.9855 22.3222C58.5701 21.8674 58.1331 21.4303 57.6779 21.0142L58.5615 16.696C58.688 16.0782 58.4049 15.4489 57.8589 15.1337L55.1413 13.5647C54.5955 13.2494 53.9089 13.3187 53.437 13.7373L50.1455 16.6561C49.5559 16.4689 48.9561 16.3083 48.3505 16.1756L46.9587 12.0016C46.7592 11.4034 46.1994 11 45.5689 11H42.431C41.8005 11 41.2407 11.4034 41.0414 12.0015L39.6496 16.1755C39.044 16.3083 38.4442 16.4689 37.8546 16.6561L34.5631 13.7373C34.0912 13.3188 33.4047 13.2495 32.8588 13.5647L30.1412 15.1337C29.5951 15.4489 29.3121 16.0782 29.4386 16.696L30.3222 21.0142C29.867 21.4302 29.43 21.8673 29.0146 22.3222L24.6959 21.4386C24.078 21.3122 23.4488 21.5953 23.1337 22.1413L21.5647 24.8588C21.2494 25.4048 21.319 26.0914 21.7374 26.5631L24.6562 29.8546C24.4689 30.4447 24.3084 31.0445 24.176 31.6497L20.0017 33.0413C19.4034 33.2407 19 33.8005 19 34.431V37.569C19 38.1996 19.4035 38.7594 20.0018 38.9587L24.1758 40.3496C24.3082 40.9551 24.4687 41.5551 24.6561 42.1454L21.7373 45.4369C21.3189 45.9087 21.2494 46.5952 21.5647 47.1412L23.1336 49.8587C23.4489 50.4047 24.0778 50.6878 24.6958 50.5614L29.0145 49.6778C29.4301 50.1328 29.867 50.5698 30.3221 50.9854L29.4385 55.304C29.3121 55.9217 29.5951 56.551 30.1411 56.8662L32.8587 58.4352C33.4049 58.7505 34.0912 58.681 34.563 58.2625L37.8545 55.3437C38.4445 55.531 39.0443 55.6915 39.6496 55.8239L41.0412 59.9982C41.2406 60.5964 41.8004 60.9998 42.4309 60.9998H45.5688C46.1993 60.9998 46.7591 60.5964 46.9585 59.9982L48.3501 55.8239C48.9554 55.6915 49.5552 55.531 50.1452 55.3437L53.4367 58.2625C53.9085 58.6809 54.595 58.7504 55.141 58.4352L57.8586 56.8662C58.4046 56.551 58.6876 55.9217 58.5612 55.304L57.6776 50.9854C58.1326 50.5698 58.5696 50.1328 58.9853 49.6778L63.3039 50.5614C63.9218 50.688 64.551 50.4048 64.8661 49.8587L66.4351 47.1412C66.7504 46.5952 66.6809 45.9086 66.2624 45.4369L63.3436 42.1454C63.531 41.5551 63.6915 40.9551 63.8239 40.3496L67.998 38.9587C68.5962 38.7594 68.9997 38.1996 68.9997 37.569V34.431C69 33.8005 68.5966 33.2407 67.9984 33.0413ZM49.7009 23.1943L45.7284 30.0758C44.5825 29.7416 43.3836 29.7557 42.2729 30.0795L38.3009 23.2006C41.8396 21.6305 45.9831 21.5359 49.7009 23.1943ZM47.2422 36C47.2422 37.7878 45.7877 39.2422 44 39.2422C42.2123 39.2422 40.7578 37.7877 40.7578 36C40.7578 34.2123 42.2123 32.7578 44 32.7578C45.7877 32.7578 47.2422 34.2122 47.2422 36ZM35.7643 24.6652L39.736 31.5443C38.9003 32.3444 38.2887 33.3758 38.0053 34.5353H30.0595C30.4818 30.4861 32.6354 26.9449 35.7643 24.6652ZM35.7643 47.3348C32.6354 45.0551 30.4819 41.5139 30.0595 37.4648H38.0053C38.2887 38.6243 38.9004 39.6557 39.736 40.4557L35.7643 47.3348ZM38.2991 48.8057L42.2716 41.9242C43.4175 42.2585 44.6164 42.2443 45.7271 41.9205L49.6991 48.7994C46.1604 50.3695 42.0169 50.4641 38.2991 48.8057ZM52.2357 47.3348L48.264 40.4557C49.0996 39.6556 49.7113 38.6242 49.9947 37.4648H57.9405C57.5182 41.5138 55.3647 45.0551 52.2357 47.3348ZM49.9948 34.5352C49.7114 33.3757 49.0997 32.3443 48.2641 31.5442L52.2358 24.6651C55.3647 26.9448 57.5183 30.4861 57.9406 34.5351L49.9948 34.5352Z" fill="white"/>
</g>
</svg>
