<svg width="87" height="72" viewBox="0 0 87 72" fill="none" xmlns="http://www.w3.org/2000/svg">
<path d="M19 12.8472V48.4126H47.8255L54.9926 59.1527L62.0495 48.4126H69V12.8472H19ZM66.0703 45.4829H60.4688L54.9736 53.8463L49.3926 45.4829H21.9297V15.7769H66.0703V45.4829Z" fill="white"/>
<path d="M41.1319 41.9855C48.6098 43.8702 55.9519 38.108 55.6538 30.2724C55.4525 24.9665 51.7139 20.673 46.8668 19.4514C42.4017 18.326 37.7922 19.9275 34.9712 23.3605C29.6094 29.8856 32.8098 39.8891 41.1319 41.9855ZM52.5289 28.863H48.5823C48.54 26.8533 48.4288 24.9192 48.2538 23.1303C50.4162 24.3393 51.9911 26.4343 52.5289 28.863ZM48.5952 31.7927H52.6663C52.3224 34.5658 50.6633 36.98 48.2531 38.3142C48.4516 36.291 48.5675 34.0855 48.5952 31.7927ZM42.8032 22.1087C43.5752 22.0038 44.3661 21.9959 45.1955 22.1087C45.4445 24.1487 45.5992 26.4443 45.6518 28.863H42.3467C42.3994 26.4456 42.5541 24.1492 42.8032 22.1087ZM45.6654 31.7927C45.6318 34.4958 45.4718 37.064 45.1954 39.3276C44.4043 39.4344 43.5945 39.4345 42.8034 39.3276C42.527 37.0642 42.367 34.4961 42.3334 31.7928L45.6654 31.7927ZM39.745 23.1302C39.5699 24.9195 39.4586 26.8539 39.4165 28.8629H35.4698C36.0075 26.4344 37.5824 24.3393 39.745 23.1302ZM39.4036 31.7927C39.4312 34.0857 39.5471 36.2911 39.7455 38.3142C37.3353 36.98 35.6762 34.5659 35.3324 31.7927H39.4036Z" fill="white"/>
</svg>
