<svg width="87" height="72" viewBox="0 0 87 72" fill="none" xmlns="http://www.w3.org/2000/svg">
<path d="M50.614 53.5003C50.2334 50.4795 47.8545 48.1006 44.8337 47.72V42.6041C48.483 42.1188 51.0479 38.7671 50.5627 35.1178C50.1244 31.8223 47.325 29.3536 44.0005 29.3309C42.5202 29.329 41.0822 29.825 39.9177 30.739L30.9273 21.7485C31.8413 20.5841 32.3373 19.1461 32.3354 17.6658C32.3354 13.9844 29.351 11 25.6697 11C21.9883 11 19.0039 13.9844 19.0039 17.6658C19.0039 21.3471 21.9883 24.3315 25.6697 24.3315C27.15 24.3334 28.588 23.8374 29.7525 22.9234L38.7429 31.9138C37.8289 33.0783 37.3329 34.5163 37.3348 35.9966C37.3378 39.3536 39.8367 42.1844 43.1673 42.6041V47.72C39.5148 48.1802 36.9269 51.5142 37.387 55.1667C37.8472 58.8193 41.1812 61.4071 44.8337 60.947C48.4863 60.4868 51.0742 57.1528 50.614 53.5003ZM25.6697 22.6651C22.9086 22.6651 20.6703 20.4269 20.6703 17.6658C20.6703 14.9047 22.9086 12.6664 25.6697 12.6664C28.4308 12.6664 30.669 14.9047 30.669 17.6658C30.669 20.4269 28.4308 22.6651 25.6697 22.6651ZM39.0012 35.9966C39.0012 33.2355 41.2394 30.9973 44.0005 30.9973C46.7616 30.9973 48.9998 33.2355 48.9998 35.9966C48.9998 38.7577 46.7616 40.9959 44.0005 40.9959C41.2395 40.9959 39.0012 38.7577 39.0012 35.9966ZM44.0005 59.3268C41.2394 59.3268 39.0012 57.0886 39.0012 54.3275C39.0012 51.5664 41.2394 49.3281 44.0005 49.3281C46.7616 49.3281 48.9998 51.5664 48.9998 54.3275C48.9998 57.0886 46.7616 59.3268 44.0005 59.3268Z" fill="white"/>
<path d="M25.6688 14.333C23.8281 14.333 22.3359 15.8252 22.3359 17.6659C22.3359 19.5066 23.8281 20.9988 25.6688 20.9988C27.5095 20.9988 29.0017 19.5066 29.0017 17.6659C29.0017 15.8252 27.5096 14.333 25.6688 14.333ZM25.6688 19.3323C24.7484 19.3323 24.0024 18.5863 24.0024 17.6659C24.0024 16.7455 24.7484 15.9994 25.6688 15.9994C26.5892 15.9994 27.3353 16.7455 27.3353 17.6659C27.3353 18.5863 26.5892 19.3323 25.6688 19.3323Z" fill="white"/>
<path d="M44.0009 32.6641C42.1602 32.6641 40.668 34.1563 40.668 35.997C40.668 37.8376 42.1602 39.3298 44.0009 39.3298C45.8416 39.3298 47.3337 37.8376 47.3337 35.997C47.3337 34.1563 45.8417 32.6641 44.0009 32.6641ZM44.0009 37.6634C43.0805 37.6634 42.3344 36.9174 42.3344 35.997C42.3344 35.0766 43.0805 34.3305 44.0009 34.3305C44.9213 34.3305 45.6673 35.0766 45.6673 35.997C45.6673 36.9174 44.9213 37.6634 44.0009 37.6634Z" fill="white"/>
<path d="M44.0009 50.9941C42.1602 50.9941 40.668 52.4863 40.668 54.327C40.668 56.1677 42.1602 57.6599 44.0009 57.6599C45.8416 57.6599 47.3337 56.1677 47.3337 54.327C47.3337 52.4863 45.8417 50.9941 44.0009 50.9941ZM44.0009 55.9935C43.0805 55.9935 42.3344 55.2474 42.3344 54.327C42.3344 53.4066 43.0805 52.6606 44.0009 52.6606C44.9213 52.6606 45.6673 53.4066 45.6673 54.327C45.6673 55.2474 44.9213 55.9935 44.0009 55.9935Z" fill="white"/>
<path d="M43.9998 11C40.3184 11 37.334 13.9844 37.334 17.6658C37.334 21.3471 40.3184 24.3315 43.9998 24.3315C47.6811 24.3315 50.6655 21.3471 50.6655 17.6658C50.6655 13.9844 47.6812 11 43.9998 11ZM43.9998 22.6651C41.2387 22.6651 39.0004 20.4269 39.0004 17.6658C39.0004 14.9047 41.2387 12.6664 43.9998 12.6664C46.7608 12.6664 48.9991 14.9047 48.9991 17.6658C48.9991 20.4269 46.7608 22.6651 43.9998 22.6651Z" fill="white"/>
<path d="M62.3318 11C58.6504 11 55.666 13.9844 55.666 17.6658C55.666 21.3471 58.6504 24.3315 62.3318 24.3315C66.0132 24.3315 68.9975 21.3471 68.9975 17.6658C68.9975 13.9844 66.0133 11 62.3318 11ZM62.3318 22.6651C59.5707 22.6651 57.3325 20.4269 57.3325 17.6658C57.3325 14.9047 59.5707 12.6664 62.3318 12.6664C65.0929 12.6664 67.3311 14.9047 67.3311 17.6658C67.3311 20.4269 65.0929 22.6651 62.3318 22.6651Z" fill="white"/>
<path d="M25.6697 47.6611C21.9883 47.6611 19.0039 50.6455 19.0039 54.3269C19.0039 58.0083 21.9883 60.9926 25.6697 60.9926C29.351 60.9926 32.3354 58.0083 32.3354 54.3269C32.3354 50.6455 29.3512 47.6611 25.6697 47.6611ZM25.6697 59.3262C22.9086 59.3262 20.6703 57.088 20.6703 54.3269C20.6703 51.5658 22.9086 49.3276 25.6697 49.3276C28.4308 49.3276 30.669 51.5658 30.669 54.3269C30.669 57.088 28.4308 59.3262 25.6697 59.3262Z" fill="white"/>
<path d="M62.3318 47.6611C58.6504 47.6611 55.666 50.6455 55.666 54.3269C55.666 58.0083 58.6504 60.9926 62.3318 60.9926C66.0132 60.9926 68.9975 58.0083 68.9975 54.3269C68.9975 50.6455 66.0133 47.6611 62.3318 47.6611ZM62.3318 59.3262C59.5707 59.3262 57.3325 57.088 57.3325 54.3269C57.3325 51.5658 59.5707 49.3276 62.3318 49.3276C65.0929 49.3276 67.3311 51.5658 67.3311 54.3269C67.3311 57.088 65.0929 59.3262 62.3318 59.3262Z" fill="white"/>
<path d="M25.6697 29.3311C21.9883 29.3311 19.0039 32.3154 19.0039 35.9968C19.0039 39.6782 21.9883 42.6626 25.6697 42.6626C29.351 42.6626 32.3354 39.6782 32.3354 35.9968C32.3354 32.3154 29.3512 29.3311 25.6697 29.3311ZM25.6697 40.9961C22.9086 40.9961 20.6703 38.7579 20.6703 35.9968C20.6703 33.2357 22.9086 30.9975 25.6697 30.9975C28.4308 30.9975 30.669 33.2357 30.669 35.9968C30.669 38.7579 28.4308 40.9961 25.6697 40.9961Z" fill="white"/>
<path d="M62.3318 29.3311C58.6504 29.3311 55.666 32.3154 55.666 35.9968C55.666 39.6782 58.6504 42.6626 62.3318 42.6626C66.0132 42.6626 68.9975 39.6782 68.9975 35.9968C68.9975 32.3154 66.0133 29.3311 62.3318 29.3311ZM62.3318 40.9961C59.5707 40.9961 57.3325 38.7579 57.3325 35.9968C57.3325 33.2357 59.5707 30.9975 62.3318 30.9975C65.0929 30.9975 67.3311 33.2357 67.3311 35.9968C67.3311 38.7579 65.0929 40.9961 62.3318 40.9961Z" fill="white"/>
</svg>
