<svg width="54" height="53" viewBox="0 0 54 53" fill="none" xmlns="http://www.w3.org/2000/svg">
<path d="M0.289315 22.2106C0.289315 46.545 0.257437 45.1049 0.910079 46.8038C2.02965 49.7046 4.7729 51.9938 7.83448 52.5847C8.47651 52.7088 12.0793 52.7295 30.8202 52.7295H53.0366V51.5902V50.4503H30.8308C9.65443 50.4503 8.57732 50.4402 7.89284 50.2641C5.86593 49.7253 4.13085 48.3165 3.23944 46.4622C2.52843 44.9808 2.56556 46.7417 2.56556 22.1899V0H1.43012H0.289315V22.2106Z" fill="#10243E"/>
<path d="M33.5723 15.0944L33.6041 16.213L37.4191 16.265L41.2236 16.317L35.1588 22.3773L29.0939 28.4372L26.1651 25.5057L23.2414 22.5842L15.9563 29.8672L8.68164 37.1395L9.48817 37.9473L10.2894 38.745L16.7627 32.2704L23.2414 25.7958L26.1651 28.7172L29.0939 31.6488L30.7017 30.0432C31.5931 29.1622 34.5592 26.1893 37.313 23.4339L42.3113 18.4407L42.359 21.7244L42.4121 25.0187L43.5317 25.05L44.6406 25.0808V19.528V13.9858H39.0959H33.5404L33.5723 15.0944Z" fill="#10243E"/>
</svg>
