<svg width="24" height="24" viewBox="0 0 24 24" fill="none" xmlns="http://www.w3.org/2000/svg">
<g clip-path="url(#clip0_1800_6008)">
<path d="M9.06738 9.47028H13.8152C14.074 9.47028 14.2839 9.26037 14.2839 9.00153V6.60303C14.2839 6.34418 14.074 6.13428 13.8152 6.13428H9.06738C8.80854 6.13428 8.59863 6.34418 8.59863 6.60303V9.00153C8.59863 9.26037 8.80849 9.47028 9.06738 9.47028ZM9.53613 7.07178H13.3464V8.53278H9.53613V7.07178Z" fill="white"/>
<path d="M21.9098 13.1583V9.54867C22.5519 8.86716 22.8825 8.09067 22.8825 7.23825V4.57008C22.8825 3.85734 22.3027 3.27745 21.5899 3.27745H17.7812V2.11045C17.7812 0.949311 16.8366 0.00463867 15.6754 0.00463867H7.20703C6.04589 0.00463867 5.10122 0.949264 5.10122 2.11045V3.27745H1.29258C0.579844 3.27745 0 3.85734 0 4.57008V7.2383C0 8.09006 0.330141 8.86612 0.971344 9.54727V19.4632C0.971344 20.1766 1.55119 20.7571 2.26397 20.7571H17.8297V23.5266C17.8297 23.6925 17.9174 23.846 18.0603 23.9303C18.2032 24.0146 18.3801 24.0171 18.5253 23.9368L20.4324 22.8823L22.3383 23.9367C22.409 23.9758 22.4872 23.9953 22.5653 23.9953C22.6476 23.9953 22.73 23.9736 22.8033 23.9303C22.9463 23.8461 23.034 23.6925 23.034 23.5266V18.8417C23.6324 18.2034 24 17.3462 24 16.4043C24 14.964 23.1415 13.7212 21.9098 13.1583ZM6.03872 2.11045C6.03872 1.46625 6.56283 0.942139 7.20703 0.942139H15.6754C16.3196 0.942139 16.8437 1.46625 16.8437 2.11045V3.27745H6.03872V2.11045ZM1.74286 8.99489C1.26047 8.51494 0.9375 7.93397 0.9375 7.2383V4.57008C0.9375 4.37423 1.09678 4.21495 1.29258 4.21495H21.5899C21.7857 4.21495 21.945 4.37423 21.945 4.57008V7.2383C21.945 8.83547 20.2433 9.82866 18.8158 10.3806C16.8784 11.1296 14.2594 11.5422 11.4412 11.5422C8.62313 11.5422 6.00412 11.1296 4.06669 10.3806C3.27811 10.0756 2.40633 9.63577 1.7835 9.03408C1.77066 9.02025 1.75725 9.00708 1.74286 8.99489ZM16.9326 17.0942H1.90884V10.331C2.41772 10.6736 3.02503 10.983 3.72862 11.255C5.77125 12.0448 8.51034 12.4797 11.4412 12.4797C14.3722 12.4797 17.1112 12.0448 19.1539 11.255C19.8568 10.9832 20.4637 10.6742 20.9723 10.332V12.8776C20.7962 12.8507 20.616 12.8368 20.4325 12.8368C18.4654 12.8368 16.865 14.4372 16.865 16.4042C16.865 16.6403 16.8886 16.8709 16.9326 17.0942ZM17.8297 19.8195H2.26397C2.0715 19.8195 1.90884 19.6563 1.90884 19.4631V18.0317H17.2595C17.4119 18.3276 17.6042 18.5995 17.8298 18.8403V19.8195H17.8297ZM22.0965 22.7315L20.6595 21.9365C20.5183 21.8584 20.3469 21.8583 20.2057 21.9364L18.7672 22.7318V19.5578C19.2647 19.8216 19.8313 19.9718 20.4325 19.9718C21.0332 19.9718 21.5993 19.8219 22.0965 19.5585V22.7315H22.0965ZM20.4325 19.0343C18.9823 19.0343 17.8026 17.8545 17.8026 16.4043C17.8026 14.9541 18.9824 13.7743 20.4325 13.7743C21.8827 13.7743 23.0625 14.9541 23.0625 16.4043C23.0625 17.8545 21.8827 19.0343 20.4325 19.0343Z" fill="white"/>
</g>
<defs>
<clipPath id="clip0_1800_6008">
<rect width="24" height="24" fill="white"/>
</clipPath>
</defs>
</svg>
