<svg width="24" height="24" viewBox="0 0 24 24" fill="none" xmlns="http://www.w3.org/2000/svg">
<g clip-path="url(#clip0_1801_6025)">
<path d="M5.48311 4.42834C5.67727 4.42834 5.83467 4.27093 5.83467 4.07677C5.83467 3.88262 5.67727 3.72521 5.48311 3.72521C5.28895 3.72521 5.13155 3.88262 5.13155 4.07677C5.13155 4.27093 5.28891 4.42834 5.48311 4.42834ZM2.67061 4.42834C2.86477 4.42834 3.02217 4.27093 3.02217 4.07677C3.02217 3.88262 2.86477 3.72521 2.67061 3.72521C2.47645 3.72521 2.31905 3.88262 2.31905 4.07677C2.31905 4.27093 2.47641 4.42834 2.67061 4.42834ZM4.07686 4.42834C4.27102 4.42834 4.42842 4.27093 4.42842 4.07677C4.42842 3.88262 4.27102 3.72521 4.07686 3.72521C3.8827 3.72521 3.7253 3.88262 3.7253 4.07677C3.7253 4.27093 3.88266 4.42834 4.07686 4.42834ZM3.99975 8.15269C4.00191 8.15274 4.00406 8.15274 4.00622 8.15274L7.18477 8.15354H7.18495C7.40456 8.15354 7.59098 8.01127 7.64897 7.79949C7.707 7.58762 7.61892 7.37016 7.42992 7.25837L6.9465 6.97234C7.7235 6.20223 8.16051 5.15148 8.15358 4.05057C8.13966 1.84895 6.33769 0.0321173 4.13672 0.000429808C1.85602 -0.0323358 0 1.81252 0 4.07687C0 6.24826 1.78913 8.10568 3.99975 8.15269ZM1.70859 1.67405C2.35687 1.03505 3.21375 0.690758 4.12664 0.703461C5.94788 0.729664 7.43892 2.23313 7.45045 4.05498C7.45669 5.0379 7.03519 5.97263 6.294 6.61941C6.17006 6.72751 6.10514 6.88974 6.12014 7.05338C6.13514 7.21693 6.22856 7.36449 6.36989 7.44807L6.37341 7.45013L4.00969 7.44957C2.18241 7.41451 0.703125 5.90916 0.703125 4.07687C0.703125 3.16651 1.06022 2.3132 1.70859 1.67405ZM23.6484 23.2969H23.2969V18.0614C23.2969 16.6898 22.4864 15.4442 21.228 14.8864L19.3753 14.0923C19.8261 13.9501 20.2334 13.6964 20.5648 13.3445C21.0648 12.8136 21.3516 12.0933 21.3516 11.3682C21.3516 10.7019 21.1188 10.073 20.6783 9.54938C20.1273 8.89515 19.8239 8.06368 19.8239 7.20802V5.52334C19.8239 4.0478 19.2493 2.66087 18.2059 1.61804C17.1626 0.574602 15.7755 7.93267e-06 14.3002 7.93267e-06C11.2546 7.93267e-06 8.77688 2.47773 8.77688 5.52329V7.15313C8.77706 8.03851 8.42911 8.88362 7.8637 9.56485C7.15209 10.4222 7.00425 11.5814 7.47792 12.59C7.82948 13.3387 8.46361 13.8766 9.22275 14.1042L7.38291 14.9043C6.09211 15.4475 5.25802 16.7033 5.25802 18.1036V22.2422C5.25802 22.4364 5.41537 22.5938 5.60958 22.5938C5.80378 22.5938 5.96114 22.4364 5.96114 22.2422V18.1036C5.96114 16.987 6.62625 15.9855 7.65947 15.5507L9.96563 14.5479V16.6641H8.90611C8.60752 16.6641 8.32172 16.7914 8.12198 17.0134C7.9223 17.2354 7.82583 17.533 7.85733 17.8299L8.43684 23.2969H0.351562C0.157359 23.2969 0 23.4543 0 23.6484C0 23.8426 0.157359 24 0.351562 24H23.6484C23.8426 24 24 23.8426 24 23.6484C24 23.4543 23.8426 23.2969 23.6484 23.2969ZM20.1404 10.0021C20.4727 10.3973 20.6484 10.8696 20.6484 11.3681C20.6484 11.916 20.4314 12.4606 20.053 12.8624C19.6523 13.2878 19.1018 13.522 18.503 13.522H18.0449L17.443 13.2641C16.9173 13.0386 16.5577 12.5553 16.4842 11.9989C17.5689 11.4149 18.308 10.2686 18.308 8.95266V6.30971C18.4109 6.3167 18.5137 6.32049 18.6162 6.32049C18.7853 6.32049 18.9537 6.31088 19.1208 6.29195V7.20798C19.1208 8.2291 19.4829 9.22145 20.1404 10.0021ZM14.3856 15.5521C13.1279 15.5744 11.8797 15.415 10.6688 15.0792V14.2421L10.7704 14.1979C10.7712 14.1976 10.772 14.1972 10.7729 14.1969L11.4 13.9242C12.0982 13.6207 12.5916 12.999 12.7411 12.2725C13.0473 12.3616 13.3704 12.4102 13.7049 12.4102H14.8505C15.1862 12.4102 15.5106 12.3612 15.8177 12.2715C15.9722 12.9946 16.4675 13.6107 17.166 13.9104L17.8353 14.1972C17.8358 14.1974 17.8362 14.1976 17.8366 14.1977L17.8862 14.219V15.0101C16.7484 15.3491 15.5721 15.5314 14.3856 15.5521ZM17.8861 15.7421V16.6641H10.6688V15.8072C11.8085 16.1061 12.9787 16.2573 14.1568 16.2573C14.2371 16.2573 14.3175 16.2566 14.3979 16.2552C15.5787 16.2346 16.7498 16.062 17.8861 15.7421ZM19.1208 5.58301C18.1524 5.71384 17.0608 5.45443 16.3088 4.87173C16.1553 4.75285 15.9345 4.78079 15.8155 4.9343C15.6966 5.08777 15.7246 5.3086 15.8781 5.42752C16.3698 5.80843 16.9628 6.07674 17.6049 6.21202V8.12598C17.436 8.51101 17.2479 8.83121 16.8239 9.18099C16.6454 9.32827 16.45 9.45057 16.2408 9.5476C16.0699 9.21418 15.7229 8.98534 15.3232 8.98534H14.4994C13.9311 8.98534 13.4688 9.44766 13.4688 10.0159C13.4688 10.5841 13.9311 11.0464 14.4994 11.0464H15.3232C15.8015 11.0464 16.2046 10.719 16.3203 10.2766C16.7906 10.0974 17.5575 9.45807 17.5576 9.45784C17.3196 10.736 16.1966 11.7069 14.8505 11.7069H13.7048C12.1861 11.7069 10.9505 10.4713 10.9505 8.95252V6.23499C12.1445 6.04782 13.2726 5.64376 14.3071 5.03185C15.8823 4.10012 16.8927 2.88259 17.5024 1.92066C18.5457 2.84987 19.1392 4.18201 19.1208 5.58301ZM15.6506 10.0169C15.6501 10.197 15.5034 10.3434 15.3232 10.3434H14.4993C14.3188 10.3434 14.1719 10.1965 14.1719 10.016C14.1719 9.83546 14.3188 9.68855 14.4993 9.68855H15.3232C15.5034 9.68855 15.65 9.83485 15.6506 10.0149V10.0169ZM9.48 5.52329C9.48 2.86543 11.6423 0.703133 14.3002 0.703133C15.2534 0.703133 16.1642 0.978289 16.9426 1.49054C16.3815 2.39002 15.437 3.54671 13.9491 4.42684C12.9284 5.03059 11.8088 5.41604 10.6213 5.57251H10.5993C10.5992 5.57251 10.599 5.57251 10.5989 5.57251C10.5987 5.57251 10.5986 5.57251 10.5984 5.57251H9.47995V5.52329H9.48ZM8.1143 12.2911C7.75781 11.5318 7.86909 10.6592 8.40431 10.0144C9.07589 9.20532 9.48075 8.20557 9.48 7.15313V6.27563H10.2473V8.95266C10.2473 10.2693 10.9874 11.4162 12.0731 11.9999C12.0052 12.5605 11.6466 13.0502 11.1196 13.2793L10.5615 13.522H10.0519C9.21328 13.522 8.47087 13.0504 8.1143 12.2911ZM20.3527 17.7558L19.7654 23.2969H9.14391L8.55652 17.7558C8.54587 17.6554 8.57719 17.5587 8.64473 17.4837C8.71228 17.4086 8.80514 17.3672 8.90611 17.3672H20.0032C20.1041 17.3672 20.197 17.4086 20.2645 17.4837C20.3321 17.5587 20.3634 17.6554 20.3527 17.7558ZM22.5938 23.2969H20.4724L21.0519 17.83C21.0834 17.533 20.9869 17.2354 20.7873 17.0134C20.5875 16.7914 20.3018 16.6641 20.0032 16.6641H18.5892V14.5204L20.9471 15.531C21.9474 15.9744 22.5938 16.9676 22.5938 18.0614V23.2969ZM14.4546 18.9961C13.718 18.9961 13.1187 19.5954 13.1187 20.332C13.1187 21.0687 13.718 21.668 14.4546 21.668C15.1912 21.668 15.7905 21.0687 15.7905 20.332C15.7905 19.5954 15.1912 18.9961 14.4546 18.9961ZM14.4546 20.9649C14.1057 20.9649 13.8218 20.681 13.8218 20.332C13.8218 19.9831 14.1057 19.6992 14.4546 19.6992C14.8035 19.6992 15.0874 19.9831 15.0874 20.332C15.0874 20.681 14.8036 20.9649 14.4546 20.9649Z" fill="white"/>
</g>
<defs>
<clipPath id="clip0_1801_6025">
<rect width="24" height="24" fill="white"/>
</clipPath>
</defs>
</svg>
