<svg width="54" height="53" viewBox="0 0 54 53" fill="none" xmlns="http://www.w3.org/2000/svg">
<path d="M25.3149 0.162663C23.7899 0.492087 22.5843 1.1616 21.4511 2.3051C20.5033 3.26256 19.9675 4.12818 19.5757 5.3019C19.3078 6.09524 19.2977 6.21849 19.2562 8.88587C19.2153 11.9348 19.2461 12.1404 19.8543 13.0161C20.2247 13.5618 20.936 14.0873 21.5435 14.2621C21.9146 14.3652 22.0076 14.4683 22.2856 14.9932C22.461 15.3233 22.8007 15.8174 23.0378 16.0852C23.3572 16.4454 23.4603 16.6416 23.4603 16.9194V17.2696L21.1831 18.1346C18.6896 19.0619 18.1645 19.3705 17.4739 20.2871C16.7633 21.2345 16.6602 21.7909 16.6602 24.6745V27.1878H26.8601H37.0601V24.6745C37.0601 21.8009 36.957 21.2345 36.2564 20.2978C35.4835 19.2781 35.0099 19.0204 31.3215 17.6612L30.26 17.2696V16.9194C30.26 16.6416 30.3631 16.4454 30.6825 16.0852C30.9196 15.8174 31.2593 15.3233 31.4347 14.9932C31.7127 14.4683 31.8057 14.3652 32.1768 14.2621C33.1654 13.9736 34.1339 12.9545 34.3811 11.9348C34.4641 11.6255 34.4842 10.5442 34.464 8.79344L34.4326 6.12605L34.1132 5.21954C33.7012 4.07663 33.2585 3.34491 32.4441 2.45914C30.6411 0.502738 27.8595 -0.393684 25.3149 0.162663ZM28.3437 1.90339C29.9405 2.32583 31.4347 3.52028 32.1454 4.95174C32.5579 5.79663 32.8359 6.85719 32.8359 7.63987V8.12393L32.3825 7.92841C32.1146 7.80458 31.507 7.69142 30.8681 7.6298C29.2915 7.48523 28.4368 7.12499 27.406 6.14679L26.8601 5.63132L26.3243 6.14679C25.2835 7.12499 24.4288 7.48523 22.8522 7.6298C22.2133 7.69142 21.6057 7.80458 21.3378 7.92841L20.8844 8.12393V7.63987C20.8844 6.90874 21.1422 5.83752 21.5026 5.10639C22.2548 3.51022 23.6352 2.37679 25.3659 1.90339C26.0671 1.70787 27.6123 1.71794 28.3437 1.90339ZM27.3651 8.27858C27.9833 8.70043 28.838 9.04051 29.6731 9.19516L30.2706 9.30831L30.2398 11.4709C30.2084 13.4794 30.1882 13.675 29.9719 14.1181C29.4361 15.2095 28.3544 15.9928 27.1897 16.1368C26.0772 16.26 24.7275 15.642 24.0578 14.6745C23.5528 13.9428 23.4603 13.4386 23.4603 11.2754V9.30831L24.0578 9.19516C24.8817 9.04051 25.7476 8.69036 26.3142 8.28865C26.5922 8.1032 26.8186 7.94915 26.8186 7.93848C26.8293 7.92841 27.0765 8.08305 27.3651 8.27858ZM21.7089 11.0899V12.5012L21.3995 12.2026C21.0391 11.8625 20.8328 11.2345 20.9253 10.7706C20.9976 10.4103 21.4511 9.67921 21.6057 9.67921C21.6674 9.67921 21.7089 10.2356 21.7089 11.0899ZM32.6296 10.3487C32.939 10.9975 32.8566 11.6155 32.3724 12.1303L32.0221 12.5113L32.0114 11.0899C32.0114 9.73076 32.0221 9.67921 32.2076 9.77164C32.3107 9.83385 32.5063 10.091 32.6296 10.3487ZM26.5715 17.7845C27.1073 17.8153 27.6739 17.7951 27.9525 17.7228C28.2204 17.6506 28.4468 17.6198 28.4777 17.6405C28.5191 17.692 26.9425 20.3802 26.8601 20.3902C26.8086 20.3902 25.315 17.9083 25.2219 17.6814C25.2012 17.6198 25.2835 17.6097 25.4281 17.6506C25.5621 17.692 26.0772 17.7536 26.5715 17.7845ZM24.7892 20.3286C25.2527 21.0905 25.6237 21.7293 25.6237 21.75C25.6237 21.8217 23.9855 22.5943 23.9446 22.5427C23.8824 22.4811 22.8421 19.3297 22.873 19.3089C22.9761 19.2366 23.7484 18.9689 23.8414 18.9588C23.9031 18.9481 24.3358 19.5661 24.7892 20.3286ZM30.3737 19.1235C30.6517 19.2266 30.8681 19.3498 30.8473 19.412C30.8266 19.4636 30.5794 20.184 30.3115 21.0082C30.0436 21.8323 29.8065 22.522 29.7757 22.5427C29.7348 22.5943 28.0965 21.8217 28.0965 21.75C28.0965 21.657 29.7656 18.9481 29.8172 18.9481C29.848 18.9481 30.0952 19.0305 30.3737 19.1235ZM22.1208 22.5013L22.9553 25.0146L24.9131 24.0465L26.8601 23.0683L28.8072 24.0465L30.7649 25.0146L31.5995 22.5013C32.063 21.1113 32.4956 19.9784 32.5579 19.9784C32.8566 19.9784 34.1132 20.565 34.4741 20.8743C34.7006 21.0597 34.9892 21.4306 35.1231 21.7085C35.3395 22.1511 35.3602 22.3164 35.3602 23.8403V25.488H26.8601H18.36V23.8403C18.36 22.3265 18.3808 22.1511 18.6072 21.7085C18.9166 21.0597 19.504 20.565 20.3486 20.2462C20.7297 20.1017 21.0907 19.9885 21.1624 19.9885C21.2246 19.9784 21.6467 21.0905 22.1208 22.5013Z" fill="#10243E"/>
<path d="M13.23 8.51538L12.6426 9.1126L13.5903 10.06L14.5488 11.018H12.5294C10.0666 11.018 9.63397 11.1105 8.92331 11.8315C8.0781 12.6658 8.10953 12.3257 8.10953 21.1828V28.9385H8.98496H9.86097V21.1111V13.2731L10.1182 13.026C10.3654 12.7689 10.376 12.7688 12.4571 12.7688H14.5488L13.5903 13.7263L12.6426 14.6844L13.2608 15.2917L13.879 15.9096L15.8675 13.9224L17.8454 11.9447L15.8367 9.93615L13.8274 7.92822L13.23 8.51538Z" fill="#10243E"/>
<path d="M36.2363 11.8828V12.7686H38.4928C40.6153 12.7686 40.7593 12.7787 41.0171 12.9849L41.2851 13.1905V18.7213V24.2522L40.3266 23.2942L39.3688 22.3468L38.7607 22.9648L38.1425 23.5827L40.1002 25.5391C41.1718 26.621 42.0988 27.4961 42.1605 27.4961C42.2227 27.4961 43.1497 26.621 44.2213 25.5391L46.1791 23.5827L45.5609 22.9648L44.9528 22.3468L43.995 23.2942L43.0466 24.2416L43.0158 18.5774C42.985 13.005 42.985 12.9126 42.7586 12.5109C42.5007 12.0268 41.9957 11.5327 41.4913 11.2649C41.1719 11.0895 40.8316 11.0694 38.6884 11.038L36.2363 10.9971V11.8828Z" fill="#10243E"/>
<path d="M37.9992 29.3195C37.9477 29.5357 37.8036 30.0713 37.6898 30.5139C37.5873 30.9571 37.4634 31.3481 37.4326 31.3789C37.4018 31.4103 36.8861 31.1425 36.2786 30.7924L35.1862 30.143L32.9197 32.4193L30.6425 34.685L31.2921 35.777C31.6424 36.3843 31.9103 36.8997 31.8789 36.9305C31.8587 36.9614 31.2921 37.1261 30.6324 37.3015L29.4375 37.6202V40.8339V44.0576L30.6016 44.3355C31.2299 44.4901 31.7965 44.6548 31.838 44.6957C31.8895 44.7372 31.6424 45.2521 31.3022 45.8392C30.9519 46.4264 30.6739 46.9205 30.6739 46.962C30.6739 46.9928 31.6939 48.0326 32.9297 49.2685L35.1862 51.5242L36.227 50.8854C36.8037 50.5459 37.3194 50.2574 37.3704 50.2574C37.4634 50.2574 37.4842 50.319 37.886 51.8228L38.1225 52.7293H41.3267H44.5315L44.8302 51.5656C44.995 50.937 45.1699 50.3706 45.2114 50.319C45.2523 50.2681 45.778 50.5151 46.3962 50.8754L47.4986 51.5141L49.7652 49.2484L52.0216 46.9928L51.3827 45.8908C51.0223 45.2728 50.7752 44.7473 50.8261 44.7064C50.8777 44.6548 51.4443 44.4901 52.0833 44.3355L53.2373 44.0576V40.8339V37.6101L52.4442 37.404C52.0009 37.2807 51.4443 37.1361 51.2078 37.0745C50.9601 37.0129 50.7645 36.9199 50.7645 36.8683C50.7645 36.8174 51.0531 36.3019 51.3928 35.7254L52.0317 34.685L49.7753 32.4294C48.5389 31.1941 47.4986 30.1744 47.4678 30.1744C47.4263 30.1744 46.932 30.4523 46.3446 30.8024C45.7572 31.1425 45.2422 31.3896 45.2007 31.338C45.1598 31.2966 44.995 30.7302 44.8403 30.092L44.5624 28.9385H41.3267H38.1024L37.9992 29.3195ZM43.4492 31.5336C43.5832 32.0591 43.7171 32.5325 43.7586 32.574C43.7995 32.6255 44.1913 32.811 44.6139 32.9964L45.3862 33.3359L46.2415 32.8418C46.7157 32.5633 47.1483 32.337 47.21 32.337C47.3339 32.337 49.8375 34.8189 49.8375 34.9428C49.8375 34.9943 49.6105 35.4162 49.3325 35.8801L48.8174 36.7244L49.147 37.5586L49.4765 38.4035L50.4557 38.6399L51.4343 38.8875L51.4651 40.8131L51.4858 42.7287L51.1047 42.8318C50.8884 42.8833 50.445 42.9965 50.1155 43.0895C49.7752 43.1718 49.4973 43.2542 49.4872 43.2749C49.4765 43.2951 49.3224 43.666 49.147 44.1091L48.8174 44.9019L49.3426 45.7877L49.8683 46.6734L48.5288 48.0125L47.1893 49.3509L46.3032 48.836L45.4171 48.3111L44.6139 48.6405C44.1706 48.8159 43.7995 48.9699 43.7794 48.9806C43.7586 48.9907 43.6762 49.2685 43.5938 49.6086C43.5008 49.9381 43.3876 50.3812 43.336 50.5868L43.2329 50.9785H41.3374H39.4413L39.2872 50.4328C39.2048 50.1442 39.0809 49.691 39.0193 49.4338C38.9061 48.9699 38.8954 48.9699 38.0609 48.6405L37.2263 48.3111L36.3817 48.8259C35.9176 49.1038 35.4956 49.3308 35.4541 49.3308C35.3308 49.3308 32.8373 46.8281 32.8373 46.7042C32.8373 46.6426 33.0637 46.2101 33.3423 45.7361L33.8366 44.8812L33.497 44.1091C33.3115 43.6867 33.1259 43.2951 33.0744 43.2542C33.0329 43.2127 32.5593 43.0788 32.0443 42.9449L31.0858 42.7186V40.8339V38.9492L31.9411 38.7329C32.4046 38.6091 32.8681 38.4752 32.9712 38.4343C33.0744 38.3928 33.3115 38.0018 33.507 37.5586L33.8473 36.7552L33.3423 35.9109C33.0637 35.4476 32.8373 35.0251 32.8373 34.9635C32.8373 34.8296 35.3308 32.337 35.4648 32.337C35.5164 32.337 35.949 32.5633 36.4125 32.8418L37.2572 33.3466L38.0401 33.0065C38.4728 32.8211 38.8439 32.6463 38.8747 32.6149C38.9061 32.5841 38.9986 32.2961 39.081 31.956C39.1734 31.6266 39.2872 31.1834 39.3388 30.9671L39.4413 30.5862H41.3267H43.2228L43.4492 31.5336Z" fill="#10243E"/>
<path d="M40.4115 34.079C39.5254 34.223 38.9997 34.3983 38.1859 34.8202C35.9294 35.9945 34.5697 38.2193 34.5591 40.7836C34.549 42.0089 34.693 42.6476 35.2703 43.8426C36.0118 45.3973 37.3413 46.5817 39.1028 47.2512C39.7311 47.4989 39.9273 47.519 41.287 47.5297C42.6472 47.5297 42.8428 47.5089 43.5333 47.2512C44.6044 46.8602 45.3364 46.3968 46.1194 45.6136C46.9124 44.8108 47.3759 44.0897 47.7576 43.0285C48.0148 42.3389 48.0356 42.1428 48.0356 40.7836C48.0255 39.4238 48.0048 39.2283 47.7576 38.6003C47.3558 37.5291 46.8715 36.7873 46.0471 35.9738C45.4496 35.3765 45.1094 35.1295 44.3472 34.7686C43.8321 34.5216 43.1931 34.2644 42.9353 34.2129C42.2555 34.0482 40.9983 33.986 40.4115 34.079ZM42.5749 35.8914C45.1917 36.5817 46.8715 39.2283 46.325 41.8341C45.9232 43.7603 44.2648 45.418 42.3379 45.8198C39.2676 46.4585 36.2388 43.9967 36.2388 40.866C36.2388 37.5391 39.3808 35.0673 42.5749 35.8914Z" fill="#10243E"/>
<path d="M40.4702 37.5374C39.7382 37.7436 39.3363 38.0013 38.7697 38.6293C37.3068 40.2563 37.8427 42.8419 39.862 43.8817C40.5419 44.2319 41.7575 44.2734 42.5719 43.9641C43.3958 43.6554 44.1586 42.8929 44.4674 42.0693C44.7768 41.2558 44.7353 40.0401 44.385 39.3605C43.6329 37.8982 41.9638 37.1256 40.4702 37.5374ZM42.1594 39.3711C42.6235 39.6283 43.0354 40.3185 43.0354 40.8435C43.0354 41.369 42.6235 42.0278 42.1078 42.2957C41.572 42.5842 41.1707 42.5943 40.6035 42.3371C40.1092 42.1102 39.7488 41.6575 39.6664 41.1527C39.4293 39.6899 40.8821 38.6501 42.1594 39.3711Z" fill="#10243E"/>
<path d="M0.486328 41.6572V52.729H8.98643H17.4865V41.6572V30.5859H8.98643H0.486328V41.6572ZM15.8376 41.6572V50.9782H9.03798H2.2378V41.6572V32.3367H9.03798H15.8376V41.6572Z" fill="#10243E"/>
<path d="M3.88281 34.8601V35.7352H8.9831H14.0828V34.8601V33.9844H8.9831H3.88281V34.8601Z" fill="#10243E"/>
<path d="M3.88281 38.2593V39.1451L4.73809 39.1143L5.5827 39.0834V38.2593V37.4358L4.73809 37.4049L3.88281 37.3735V38.2593Z" fill="#10243E"/>
<path d="M7.2832 38.2594V39.1351H10.683H14.0828V38.2594V37.3843H10.683H7.2832V38.2594Z" fill="#10243E"/>
<path d="M3.88281 41.6578V42.5335H8.9831H14.0828V41.6578V40.7827H8.9831H3.88281V41.6578Z" fill="#10243E"/>
<path d="M3.88281 45.0568V45.932H8.9831H14.0828V45.0568V44.1812H8.9831H3.88281V45.0568Z" fill="#10243E"/>
<path d="M3.88281 48.4552V49.3309H7.28321H10.683V48.4552V47.5801H7.28321H3.88281V48.4552Z" fill="#10243E"/>
<path d="M12.4375 48.4552V49.3309H13.262H14.0858V48.4552V47.5801H13.262H12.4375V48.4552Z" fill="#10243E"/>
<path d="M19.9779 38.8569L18 40.8347L20.0087 42.8432L22.018 44.8511L22.6054 44.2539L23.2028 43.6668L22.2242 42.6886L21.2451 41.7098H24.47H27.6849V40.8347V39.959H24.47H21.2451L22.2242 38.9808L23.1927 38.0026L22.6362 37.4362C22.3274 37.1269 22.0488 36.8691 22.018 36.8691C21.9872 36.8691 21.0702 37.7656 19.9779 38.8569Z" fill="#10243E"/>
</svg>
