<svg width="54" height="53" viewBox="0 0 54 53" fill="none" xmlns="http://www.w3.org/2000/svg">
<path d="M33.4618 0.140468C30.7312 0.511436 28.4127 1.49991 26.1967 3.23089C21.2816 7.07272 19.2927 13.6452 21.2508 19.5991C22.0647 22.1123 23.6725 24.5437 25.63 26.2226C27.5881 27.9121 29.9683 29.0967 32.3698 29.5909C34.6777 30.0751 39.1191 30.0751 41.1804 29.5909L41.8396 29.4363L43.9216 31.5068C45.9206 33.4849 46.0237 33.5673 46.4049 33.5673C46.8276 33.5673 47.1673 33.351 47.3635 32.98C47.4352 32.836 47.4767 31.7545 47.4767 29.7041V26.6552L48.4863 25.6561C49.95 24.2137 51.0527 22.6273 51.7842 20.9484C54.4839 14.6959 52.6497 7.39213 47.322 3.23089C45.0758 1.46909 42.7774 0.511451 39.9645 0.129816C38.5939 -0.0450007 34.8116 -0.0450156 33.4618 0.140468ZM40.5312 2.28273C44.5399 3.13785 47.817 5.65165 49.6512 9.26711C50.0532 10.0807 50.6092 11.7703 50.7847 12.7593C50.9596 13.7069 50.9596 16.2716 50.7847 17.1884C50.2073 20.2895 48.7027 22.8234 46.137 25.038L45.4671 25.6146L45.4362 27.8505L45.4054 30.0958L43.9732 28.6742L42.5409 27.2632L42.0975 27.3148C41.8502 27.3349 41.1904 27.4688 40.6237 27.6028C39.6965 27.8191 39.3355 27.8398 36.9138 27.8398C33.3076 27.8505 32.0194 27.6027 29.7934 26.5112C26.1351 24.7186 23.631 21.4634 22.7862 17.3946C22.5592 16.3131 22.5283 13.8817 22.7346 12.7593C23.4561 8.7314 26.0627 5.24987 29.7418 3.38496C30.6382 2.94229 32.3076 2.40659 33.2561 2.26258C33.6782 2.20036 34.1424 2.12865 34.2864 2.10791C34.9355 1.99472 39.8305 2.13873 40.5312 2.28273Z" fill="#10243E"/>
<path d="M6.00051 18.0749C5.60895 18.1573 4.8464 18.4459 4.31055 18.693C3.50674 19.0847 3.18726 19.3111 2.44534 20.053C1.67248 20.8151 1.47667 21.0936 1.07479 21.928C0.260668 23.6169 0.281298 23.3597 0.281298 33.0529C0.281298 42.746 0.260668 42.4888 1.07479 44.1777C1.47667 45.0121 1.67248 45.2906 2.44534 46.0527C3.18726 46.7947 3.50674 47.021 4.31055 47.4021C5.80476 48.1334 6.30967 48.1956 10.2462 48.1956H13.6262L15.5844 50.163C18.1709 52.7693 18.3974 52.9233 19.0672 52.6146C19.5824 52.3775 19.6547 52.0789 19.6547 50.0599V48.1956H25.0133C31.1549 48.1956 31.3405 48.1748 32.9482 47.4021C33.7722 47.011 34.071 46.7947 34.8132 46.0427C35.5655 45.3007 35.7819 45.002 36.1732 44.1777C36.9361 42.602 36.9771 42.2103 36.9462 37.5027L36.9154 33.4446L36.565 33.1352C36.2763 32.8774 36.1631 32.8366 35.8436 32.8881C35.6064 32.9189 35.3699 33.0629 35.1944 33.2591L34.9057 33.5678V37.5649C34.9057 41.9531 34.8856 42.1795 34.2773 43.3748C33.8855 44.1576 32.9684 45.0945 32.2267 45.4655C30.9486 46.1144 31.4021 46.0735 24.5289 46.1351L18.2118 46.1867L17.9338 46.4753C17.6557 46.7431 17.6451 46.8148 17.5935 47.9485L17.5419 49.1331L16.2027 47.7831C15.4706 47.0311 14.77 46.3621 14.6567 46.2791C14.4918 46.1659 13.7395 46.1351 10.6893 46.1351C7.68022 46.1351 6.80432 46.1043 6.3303 45.9804C4.42389 45.4862 2.99151 44.0545 2.49686 42.1487C2.27016 41.2728 2.27016 24.8323 2.49686 23.9571C2.99151 22.0513 4.42389 20.6195 6.3303 20.1253C6.81463 20.0014 7.89666 19.9706 12.5648 19.9706H18.2118L18.5414 19.672C18.82 19.4242 18.8817 19.301 18.8817 18.9407C18.8817 18.5798 18.82 18.4565 18.5414 18.2088L18.2118 17.9102L12.4618 17.9208C7.82451 17.9208 6.58794 17.9516 6.00051 18.0749Z" fill="#10243E"/>
<path d="M6.51636 26.2434C5.85684 26.5213 5.68166 27.3765 6.18663 27.8707L6.46484 28.1593L14.3481 28.1901L22.221 28.2109L22.5613 27.9122C22.8394 27.6651 22.901 27.5412 22.901 27.1809C22.901 26.82 22.8394 26.6968 22.5613 26.4491L22.2311 26.1504L14.4718 26.1611C10.2158 26.1611 6.62971 26.2019 6.51636 26.2434Z" fill="#10243E"/>
<path d="M6.51636 32.0109C5.85684 32.2894 5.68166 33.144 6.18663 33.6388L6.46484 33.9268L17.6972 33.9582L28.9194 33.9783L29.2596 33.6797C29.5377 33.4326 29.5993 33.3087 29.5993 32.9484C29.5993 32.5881 29.5377 32.4642 29.2596 32.2171L28.9294 31.9185L17.8211 31.9285C11.7203 31.9285 6.62971 31.97 6.51636 32.0109Z" fill="#10243E"/>
<path d="M6.51636 37.7811C5.85684 38.059 5.68166 38.9141 6.18663 39.4083L6.46484 39.6969L15.6158 39.7177C22.767 39.7378 24.8075 39.7177 25.0138 39.6146C25.1579 39.5423 25.3535 39.3159 25.4567 39.0996C25.6422 38.7286 25.6422 38.7079 25.4567 38.3369C25.3535 38.1206 25.1579 37.8942 25.0138 37.8219C24.8182 37.7188 22.7261 37.688 15.7391 37.6981C10.7826 37.6981 6.62971 37.7396 6.51636 37.7811Z" fill="#10243E"/>
</svg>
