<svg width="56" height="53" viewBox="0 0 56 53" fill="none" xmlns="http://www.w3.org/2000/svg">
<path d="M26.0661 0.0224366C24.9485 0.1422 22.855 0.543272 21.8142 0.835818C17.5728 2.02846 13.8632 4.18607 10.7719 7.2762C7.69118 10.3451 5.5652 13.923 4.38272 18.0218L4.02516 19.2905L3.2333 17.9675C2.79899 17.2408 2.39776 16.6227 2.34348 16.5903C2.27858 16.5472 1.17224 17.1323 0.857741 17.3712C0.825293 17.4037 3.27637 21.5673 3.87292 22.4998C3.94904 22.6083 4.53497 22.3046 6.55236 21.1007C7.98382 20.2443 9.15569 19.5394 9.17753 19.5288C9.19875 19.507 8.41813 18.1515 8.28771 17.9894C8.28771 17.9781 7.76731 18.2819 7.13831 18.6612C6.5087 19.0516 5.96643 19.366 5.92337 19.366C5.81479 19.366 6.24848 17.9027 6.75829 16.5903C9.48081 9.56416 15.382 4.34886 22.714 2.45137C26.337 1.51884 30.5134 1.50823 34.1794 2.45137L35.34 2.74391L35.6003 1.91993C35.7956 1.313 35.828 1.07409 35.7307 1.02045C35.5029 0.890079 33.8537 0.499613 32.5526 0.271939C31.5655 0.0985322 30.7299 0.0336654 28.886 0.0118336C27.5737 -0.00999815 26.3045 0.00122856 26.0661 0.0224366Z" fill="#10243E"/>
<path d="M26.7169 6.32124C24.4929 6.66868 22.1935 7.78522 20.5124 9.32467C19.0154 10.7019 17.7244 12.8708 17.1497 14.9959L16.857 16.0582L16.8458 20.5038V24.9494L17.1278 25.5457C17.5403 26.4239 18.0177 26.9117 18.8744 27.324L19.6444 27.6927L19.9377 28.6252C20.1112 29.1454 20.4581 29.937 20.7183 30.3923C21.2388 31.3249 22.6059 32.7889 23.4302 33.2985C23.799 33.5261 23.9507 33.6995 23.9507 33.8623C23.9507 34.1331 24.2109 34.0682 20.1324 34.8161C18.6685 35.0768 17.1933 35.4018 16.8676 35.5209C15.1323 36.1715 13.8088 37.5488 13.1473 39.4026C12.9845 39.8692 12.8216 40.2703 12.7786 40.314C12.7461 40.3676 11.9973 39.674 11.1187 38.7957C8.96029 36.6163 8.94968 36.9306 11.3901 34.4693L13.2665 32.5936L9.95806 29.2864L6.65023 25.9686L4.25281 28.3863C2.23542 30.4248 1.80113 30.9132 1.5197 31.5095C0.988054 32.6154 0.814582 33.4394 0.86887 34.697C0.922534 35.9114 1.15028 36.6924 1.73622 37.6461C1.96398 38.026 4.42628 40.5628 8.86293 44.9872C15.2084 51.2972 15.707 51.7638 16.4015 52.1C18.354 53.0213 20.7289 52.924 22.4325 51.8505C22.7251 51.6659 24.0917 50.4845 25.4582 49.2375L27.953 46.9602L27.281 46.2878L26.6189 45.6047H36.1861C41.447 45.6047 45.7533 45.5723 45.7533 45.518C45.7533 45.2361 43.5405 38.8824 43.2473 38.3185C42.7811 37.4509 41.6636 36.3343 40.8174 35.879C39.9176 35.413 39.3753 35.2721 36.2622 34.7082C32.6611 34.0576 32.9538 34.1331 32.9644 33.8623C32.9644 33.6995 33.214 33.4394 33.7887 33.0271C34.2442 32.7022 34.8195 32.1813 35.0903 31.8781L35.5677 31.3143L36.8369 31.2706C37.8565 31.2382 38.1929 31.1839 38.5398 30.9999C39.0933 30.7067 39.527 30.2732 39.8309 29.7206C40.0586 29.2864 40.0586 29.2321 40.0586 22.8891C40.0586 17.1423 40.0368 16.405 39.8633 15.5923C38.898 11.1142 35.72 7.75278 31.3264 6.56014C30.7086 6.38674 30.1008 6.33247 28.7779 6.30004C27.8232 6.27821 26.9009 6.28881 26.7169 6.32124ZM30.0578 8.14326C33.6046 8.76141 36.5873 11.2764 37.7373 14.6273C38.171 15.8954 38.2684 16.6658 38.2684 18.9531V20.9704L37.8347 20.8076C37.4116 20.6342 37.401 20.6229 37.401 20.1027V19.5825H36.3702C33.7344 19.5825 31.2509 18.509 29.2765 16.503L28.474 15.6896L27.5193 16.5897C25.3715 18.6387 23.17 19.5825 20.5343 19.5825H19.5034V20.1027C19.5034 20.6229 19.4928 20.6342 19.0591 20.8076L18.6142 20.981L18.6685 18.4653C18.7228 15.6571 18.7877 15.2991 19.5146 13.749C20.8163 10.9514 23.3647 8.88055 26.2395 8.2624C27.7908 7.9368 28.7124 7.90435 30.0578 8.14326ZM29.2116 18.8558C30.6219 20.016 32.6611 20.9373 34.4183 21.2086C34.895 21.2847 35.3512 21.3602 35.4267 21.3821C35.5246 21.4145 35.5571 22.0545 35.5571 24.1578C35.5571 27.107 35.4809 27.6602 34.9711 28.8204L34.6891 29.4492L31.576 29.471L28.4522 29.5035V30.3711V31.2382L30.7841 31.2924L33.1166 31.3467L32.6068 31.7048C31.8362 32.2356 30.8384 32.6803 29.938 32.8755C28.8647 33.1138 27.2048 33.0384 26.2289 32.7128C24.0268 31.9649 22.3457 30.2408 21.5969 27.9852C21.3261 27.1612 21.3149 26.9878 21.2606 24.31C21.2063 21.2411 21.1957 21.3172 21.8465 21.3172C22.3669 21.3172 24.146 20.84 25.0352 20.4495C25.8707 20.1027 27.7583 18.9101 28.1159 18.509C28.2351 18.3786 28.3655 18.2813 28.4198 18.2813C28.474 18.2813 28.821 18.5414 29.2116 18.8558ZM19.5034 24.1578V25.6867L19.2214 25.4265C19.0697 25.2856 18.8744 25.0361 18.7877 24.8733C18.603 24.5264 18.5924 23.67 18.7552 23.3444C18.9181 23.0413 19.2975 22.6184 19.4167 22.6184C19.4604 22.6184 19.5034 23.312 19.5034 24.1578ZM38.0737 23.2795C38.4531 23.9844 38.2902 24.8627 37.6831 25.4265L37.401 25.6867V24.1472V22.5965L37.6394 22.7481C37.7698 22.8348 37.9651 23.0737 38.0737 23.2795ZM38.2684 28.0938C38.2684 28.8205 38.2359 28.9502 37.9976 29.1779C37.7916 29.3949 37.6288 29.4492 37.2057 29.4492H36.674L36.9237 28.7119C37.0647 28.3108 37.1839 27.9097 37.1839 27.823C37.1839 27.6821 37.8129 27.3565 38.1929 27.2916C38.2359 27.2916 38.2684 27.649 38.2684 28.0938ZM10.2838 33.0814L9.79583 33.5692L7.73475 31.5095L5.6849 29.4492L6.16164 28.9614L6.65023 28.4736L8.71068 30.5333L10.7718 32.5936L10.2838 33.0814ZM8.17965 35.2502C7.61555 36.063 7.55004 37.1259 7.99495 37.9823C8.32068 38.6111 15.2296 45.4425 15.7613 45.6702C16.5968 46.017 17.8872 45.8218 18.4732 45.2798C18.7009 45.0739 18.701 45.0739 20.7508 47.1336L22.8119 49.1939L22.2478 49.7253C21.9333 50.0179 21.391 50.3865 21.0547 50.5599C20.4687 50.8419 20.3277 50.8637 19.1783 50.8637C17.1391 50.8637 17.7138 51.319 9.99051 43.6099C2.75584 36.3886 2.95115 36.6163 2.6691 35.0874C2.43073 33.8081 2.87503 32.3765 3.85159 31.2924L4.35016 30.7286L6.40063 32.7888L8.46172 34.8379L8.17965 35.2502ZM28.5065 34.7949C29.3851 34.7949 30.0684 34.7294 30.459 34.6215C30.7841 34.5348 31.0661 34.4693 31.0774 34.4805C31.088 34.4911 30.5021 35.098 29.7757 35.8247L28.4522 37.1477L27.1075 35.8029L25.7621 34.4587L26.4567 34.6321C26.9122 34.7406 27.6061 34.8055 28.5065 34.7949ZM26.4673 37.7659L28.3979 39.6958L30.3398 37.7546L32.2811 35.8141L35.6869 36.4323C38.4312 36.9306 39.2125 37.1041 39.7441 37.3642C40.4817 37.7222 41.1538 38.3185 41.5768 38.991C41.8158 39.3596 43.2585 43.3929 43.2585 43.6748C43.2585 43.7185 39.0933 43.7615 34.0058 43.7615H24.7644L23.0833 42.0811C22.161 41.1591 21.3586 40.4007 21.3149 40.4007C21.2606 40.4007 20.523 41.0294 19.6769 41.7885C17.2258 44.0216 17.1391 44.0871 16.7703 44.0871C16.4882 44.0871 16.2492 43.9025 15.3276 42.9918L14.21 41.8964L14.6331 40.6495C15.1104 39.2292 15.5335 38.5032 16.1843 37.9605C17.0305 37.2775 17.6489 37.0822 20.9679 36.4535C22.7033 36.1391 24.2109 35.8684 24.3307 35.8571C24.4717 35.8465 25.198 36.4971 26.4673 37.7659ZM24.7968 47.4155L24.2221 47.9906L22.161 45.9303L20.1 43.8594L20.6859 43.3174L21.2718 42.7641L23.3111 44.8026L25.3609 46.8516L24.7968 47.4155Z" fill="#10243E"/>
<path d="M50.3758 14.1832C50.2891 14.3242 49.584 15.495 48.8033 16.7961L47.3931 19.149L47.8486 19.4309C48.0982 19.5831 48.4127 19.7777 48.5431 19.865C48.6729 19.9518 48.8252 20.0166 48.8682 20.0166C48.9225 20.0166 49.2913 19.4527 49.7038 18.7585C50.2023 17.9345 50.4844 17.5552 50.5387 17.6526C50.5823 17.7287 50.7446 18.2601 50.8968 18.824C52.7408 25.6112 51.4173 32.9086 47.3282 38.6117C46.9812 39.0889 46.688 39.5336 46.6555 39.5985C46.6118 39.707 47.7619 40.7263 47.9353 40.7263C48.0657 40.7263 49.2695 39.0022 50.007 37.7665C52.3283 33.863 53.4783 29.6232 53.489 25.0043C53.489 22.5104 53.1314 19.9948 52.4806 17.859C52.3607 17.4686 52.2852 17.1429 52.2959 17.1217C52.3283 17.0999 53.2724 17.6526 54.5086 18.4011L54.8555 18.6181L55.3117 17.8478C55.5606 17.4249 55.7453 17.0675 55.7235 17.0456C55.6692 16.9914 51.0266 14.205 50.7446 14.0528C50.5711 13.9661 50.5062 13.9879 50.3758 14.1832Z" fill="#10243E"/>
</svg>
