<svg width="59" height="53" viewBox="0 0 59 53" fill="none" xmlns="http://www.w3.org/2000/svg">
<path d="M41.4477 1.47262C38.378 2.28331 35.7409 2.97943 35.5947 3.01392C35.2381 3.1051 34.9516 3.72173 35.0919 4.10983C35.1679 4.29278 35.7526 4.77206 36.7583 5.46819C38.1031 6.39286 38.2844 6.56412 38.185 6.74707C37.8868 7.30642 36.2672 9.3153 35.1796 10.4685C33.981 11.7468 33.8465 11.987 34.0395 12.4891C34.1622 12.786 34.7469 13.0029 35.1212 12.8661C35.8754 12.6031 39.6351 8.01423 40.2081 6.66698C40.4478 6.08483 40.249 5.79959 39.0971 5.0117C38.5358 4.63471 38.0681 4.28109 38.0389 4.2355C37.9921 4.14432 46.6341 1.87241 46.7159 1.96359C46.7393 1.98638 46.944 3.80182 47.1603 5.99366C47.3767 8.1855 47.5814 10.2061 47.6281 10.4796L47.6983 10.9823L46.6224 10.24C45.4238 9.40707 45.1489 9.2814 44.8332 9.46376C44.7046 9.52104 44.1257 10.1833 43.5293 10.925C39.565 15.8908 34.9984 19.5784 29.3325 22.4096C23.6784 25.2292 17.6383 26.85 10.1949 27.5578C9.48744 27.6262 9.4173 27.6151 9.4173 27.421C9.4173 27.2609 9.75052 27.1013 11.1071 26.656C17.2524 24.6354 22.9065 21.9987 27.5725 18.9617C28.7946 18.1744 31.8351 15.9364 32.677 15.2058C33.2033 14.761 33.2852 14.2472 32.9109 13.8702C32.449 13.4137 32.0748 13.4821 31.2153 14.1789C25.8944 18.5397 18.9656 22.2156 10.8674 24.944C9.63363 25.3549 8.49339 25.7997 8.32967 25.9253C7.45261 26.6104 7.45261 28.1628 8.32967 28.8595C8.90269 29.3049 9.31205 29.3616 10.8791 29.2131C21.7079 28.2317 31.227 24.5325 38.6177 18.4252C40.2608 17.0785 42.9329 14.384 44.19 12.8316C44.7514 12.1355 45.2308 11.5416 45.2659 11.496C45.301 11.4505 46.0318 11.9069 46.8738 12.5008C47.7217 13.094 48.5169 13.5733 48.6572 13.5733C49.0548 13.5733 49.2711 13.4482 49.4349 13.1285C49.5577 12.8772 49.4992 11.987 48.9788 6.83823C48.6455 3.53879 48.3707 0.764811 48.359 0.662525C48.359 0.320014 47.9146 -0.0113894 47.4702 0.000300381C47.2422 0.000300381 44.535 0.673622 41.4477 1.47262Z" fill="#10243E"/>
<path d="M44.9884 21.0962C44.8071 21.2102 44.5557 21.4043 44.4387 21.5416C43.9008 22.1349 43.9125 21.793 43.9008 36.8272V51.0174H42.5326H41.1644V39.8636C41.1644 28.7332 41.1643 28.7104 40.9246 28.2083C40.7726 27.9114 40.4861 27.5917 40.2171 27.4093L39.7436 27.1013H36.0891C32.4581 27.1013 32.4288 27.1013 32.002 27.3637C31.774 27.5122 31.464 27.8202 31.3179 28.0487L31.0547 28.4708L31.0196 39.7496L30.9962 51.0174H29.628H28.2598V43.0491C28.2481 34.647 28.2481 34.5553 27.7219 33.9848C27.6049 33.8592 27.3184 33.6534 27.0787 33.5394C26.6811 33.3226 26.4179 33.3115 23.0149 33.3454L19.3839 33.3799L18.9629 33.7107C18.1151 34.3501 18.0917 34.4758 18.0917 38.939C18.0917 41.6446 18.1385 42.9918 18.2203 43.1859C18.4717 43.7224 19.3488 43.8253 19.6587 43.3454C19.7055 43.2659 19.7698 41.371 19.8049 39.1447L19.8634 35.0919L23.1085 35.0579C25.6286 35.0351 26.3712 35.0691 26.453 35.1719C26.4998 35.252 26.5466 38.8478 26.5466 43.1631V51.0174H23.1787H19.8049V48.4714C19.8049 45.9487 19.8049 45.9143 19.5418 45.6746C19.1676 45.3204 18.6297 45.3432 18.3314 45.7202C18.1034 46.0054 18.0917 46.1656 18.0917 48.517V51.0174H16.7235H15.3552V46.2451C15.3552 43.3226 15.3085 41.3248 15.2383 41.0624C15.1681 40.8228 14.9869 40.4803 14.8173 40.2862C14.2443 39.6012 14.2209 39.6012 10.2624 39.6012C6.83601 39.6012 6.6255 39.6129 6.22789 39.8408C5.99986 39.9665 5.6783 40.2523 5.53212 40.4803L5.24562 40.9028L5.2105 45.9599L5.17546 51.0174H3.24588C2.18756 51.0174 1.18188 51.0741 1.00647 51.1314C0.380826 51.371 0.199546 52.0216 0.620538 52.4787L0.860289 52.7294H29.628H58.3958L58.6355 52.4787C59.0565 52.0216 58.8752 51.371 58.2496 51.1314C58.0742 51.0741 57.0568 51.0174 55.9985 51.0174H54.069V42.9234C54.069 38.4714 54.0339 34.7382 53.9988 34.6354C53.8819 34.3612 53.3146 34.1105 52.9813 34.19C52.3323 34.3501 52.3557 34.0304 52.3557 42.8778V51.0174H48.9878H45.614V36.9412C45.614 29.2131 45.6608 22.8088 45.7076 22.7287C45.7894 22.6259 46.532 22.5919 49.0521 22.6147L52.2973 22.6486L52.3323 27.2609C52.3557 31.8269 52.3675 31.8842 52.6072 32.1466C52.9463 32.5236 53.5193 32.5008 53.8292 32.1127C54.0573 31.8158 54.069 31.6901 54.069 27.1241C54.069 22.5919 54.0573 22.4207 53.8292 21.9408C53.6655 21.61 53.4258 21.3476 53.11 21.1646L52.6188 20.8794H48.9761C45.6257 20.8794 45.31 20.9022 44.9884 21.0962ZM39.3109 28.8933C39.4161 28.9962 39.4512 31.6217 39.4512 40.0238V51.0174H36.0833H32.7095V40.0238C32.7095 31.6217 32.7445 28.9962 32.8498 28.8933C33.0427 28.6993 39.1179 28.6993 39.3109 28.8933ZM13.5719 41.4961C13.607 41.599 13.6421 43.7797 13.6421 46.348V51.0174H10.2683H6.90033V46.2451C6.90033 43.6196 6.93542 41.4277 6.98219 41.3938C7.01728 41.3482 8.50245 41.3137 10.28 41.3137C13.1158 41.3137 13.5134 41.3365 13.5719 41.4961Z" fill="#10243E"/>
</svg>
