<svg width="24" height="24" viewBox="0 0 24 24" fill="none" xmlns="http://www.w3.org/2000/svg">
<g clip-path="url(#clip0_1801_6028)">
<path d="M20.3032 2.70145L19.3086 3.69604L20.3032 4.69064L21.2978 3.69604L20.3032 2.70145Z" fill="white"/>
<path d="M21.7549 0.0280781C17.1695 0.0854531 11.8529 3.11484 8.80819 7.72134C8.71397 7.86389 8.62345 8.00723 8.53481 8.15105L4.90031 9.05963L2.0827 14.695L6.88753 13.4938C6.52064 13.6302 6.17648 13.8448 5.88206 14.1391C5.03166 14.9895 1.83211 20.7066 1.19934 21.844L0 24L2.15587 22.8005C3.29325 22.1677 9.01003 18.9679 9.86044 18.1176C10.1548 17.8232 10.3695 17.479 10.5058 17.112L9.30455 21.917L14.9399 19.0993L15.8497 15.4602C17.4558 14.4687 18.9109 13.1915 20.1707 11.6706C22.5473 8.80181 23.9327 5.36634 23.9717 2.24508L23.9999 0L21.7549 0.0280781ZM6.85251 12.0527L4.70845 12.5887L5.86912 10.2674L7.63969 9.82472C7.30659 10.5575 7.04405 11.3017 6.85251 12.0527ZM8.86589 17.123C8.45592 17.5329 5.97141 19.012 3.66989 20.33C4.98764 18.0284 6.46669 15.5437 6.8767 15.1338C7.42472 14.5858 8.31656 14.5851 8.86537 15.1332L8.8665 15.1343C9.41419 15.6828 9.41405 16.5747 8.86589 17.123ZM9.86095 14.1398C9.86076 14.1396 9.86058 14.1394 9.86039 14.1392C9.8602 14.139 9.86001 14.1388 9.85983 14.1386L8.196 12.4748C8.32209 11.9696 8.48695 11.4687 8.68528 10.975L13.0248 15.3145C12.5311 15.5129 12.0302 15.6778 11.525 15.8038L9.86095 14.1398ZM13.7323 18.1305L11.4109 19.2912L11.9468 17.1474C12.6966 16.9558 13.441 16.6924 14.1756 16.3574L13.7323 18.1305ZM22.5653 2.22741C22.5053 7.02675 18.8959 12.2304 14.3773 14.6777L9.32217 9.62255C11.7695 5.10398 16.9732 1.49456 21.7725 1.43452L22.5754 1.42448L22.5653 2.22741Z" fill="white"/>
<path d="M18.8108 5.18763C17.7139 4.09075 15.9292 4.0908 14.8324 5.18763C13.7356 6.28446 13.7356 8.06918 14.8324 9.16605C15.9317 10.2654 17.7113 10.2656 18.8108 9.16605C19.9102 8.06669 19.9104 6.28713 18.8108 5.18763ZM17.8163 8.17136C17.2666 8.72107 16.3769 8.72116 15.827 8.17136C15.2786 7.62293 15.2786 6.73061 15.827 6.18218C16.3755 5.63374 17.2678 5.63369 17.8163 6.18218C18.3659 6.73197 18.366 7.62161 17.8163 8.17136Z" fill="white"/>
<path d="M13.3413 9.66337L12.3467 10.658L13.3413 11.6526L14.3359 10.658L13.3413 9.66337Z" fill="white"/>
</g>
<defs>
<clipPath id="clip0_1801_6028">
<rect width="24" height="24" fill="white"/>
</clipPath>
</defs>
</svg>
