<svg width="53" height="53" viewBox="0 0 53 53" fill="none" xmlns="http://www.w3.org/2000/svg">
<path d="M1.7916 0.206212C1.19382 0.443019 0.668312 0.917165 0.359133 1.49362L0.132812 1.90606V26.3705V50.8354L0.359133 51.2473C0.617134 51.7315 1.12206 52.2262 1.62698 52.4941C1.97732 52.6792 2.6574 52.6898 20.1239 52.7204C40.0638 52.7409 38.7654 52.7826 39.5694 52.1233C39.7752 51.9477 40.0638 51.5769 40.2084 51.2784L40.4759 50.7426V45.8393V40.9259L40.239 40.7097C39.8992 40.3901 39.3426 40.4106 39.0234 40.7508L38.7759 41.0187L38.7554 45.613C38.7348 48.1467 38.7036 50.3206 38.673 50.4441C38.539 51.021 39.5489 50.9899 20.2273 50.9899H2.43054L2.13192 50.6914L1.83276 50.3924V26.381V2.37967L2.08021 2.09118L2.32765 1.80268L20.1445 1.77209C32.7063 1.76154 38.0341 1.78212 38.2193 1.86493C38.3739 1.91608 38.539 2.07061 38.6108 2.19456C38.6936 2.35911 38.7348 4.82105 38.7554 10.9401L38.7759 19.4482L39.0234 19.7161C39.3531 20.0663 39.9298 20.0869 40.2495 19.7473L40.4759 19.5105V10.7544V1.99835L40.2084 1.45248C39.8886 0.82434 39.2191 0.27847 38.549 0.113391C38.2504 0.0311152 32.4794 0 20.2067 0C2.79143 0.0105482 2.2865 0.0105436 1.7916 0.206212Z" fill="#10243E"/>
<path d="M49.0791 10.8261C48.533 11.094 48.131 11.4854 47.7806 12.1135C47.5026 12.5977 47.4609 12.6288 47.1312 12.5876C46.946 12.5671 46.6885 12.5977 46.5751 12.6594C46.4616 12.7216 45.905 13.566 45.3384 14.5449C43.9165 16.9862 44.1222 16.7695 43.4421 16.4398C42.8961 16.1724 42.8549 16.1724 42.5046 16.3164C42.2471 16.4193 42.1026 16.5532 42.0514 16.7595C41.8968 17.3465 42.0303 17.5938 42.7109 18.0163L43.1535 18.2942L39.4339 24.7223L35.7137 31.1604L34.7968 33.6223C34.2813 34.9714 33.5906 36.6096 33.2609 37.2583C32.7048 38.3089 32.6425 38.484 32.6425 39.0504C32.6425 39.4523 32.7148 39.8436 32.8594 40.1733L33.0757 40.678L32.1687 41.7908C31.6744 42.3984 31.2412 42.9443 31.2 42.9854C31.1589 43.0371 30.9732 42.6974 30.788 42.2439C30.2725 40.9565 29.5618 40.4412 28.552 40.6369C28.1705 40.7091 27.4904 41.2961 27.2224 41.7597C27.1401 41.9142 27.0784 41.5229 26.9444 40.0293C26.7586 37.8864 26.6658 37.6085 25.9651 37.1349C25.2956 36.6813 24.2957 36.8358 23.7602 37.4745C23.3682 37.9381 21.1428 44.6441 21.2456 45.046C21.328 45.4062 21.8846 45.7564 22.2349 45.6847C22.3789 45.6536 22.5852 45.5196 22.6987 45.3962C22.8121 45.2622 23.3476 43.8097 23.9354 41.9965C24.5021 40.2561 24.9864 38.8342 25.017 38.8342C25.0581 38.8342 25.141 39.6068 25.2127 40.5546C25.285 41.5229 25.409 42.4395 25.4913 42.6457C26.058 43.9949 27.7173 44.1805 28.552 42.9854C28.7271 42.7386 28.9023 42.5429 28.9329 42.5429C28.9741 42.5429 29.1286 42.8725 29.2938 43.2739C29.6441 44.1805 29.9428 44.5413 30.5305 44.7575C31.066 44.9632 31.6021 44.9015 32.0864 44.5719C32.2616 44.4585 32.89 43.748 33.4777 43.006L34.5387 41.6569L35.1265 41.698C35.5898 41.7291 35.8272 41.6875 36.2698 41.4918C36.9504 41.1727 37.2285 40.8842 38.032 39.6274C38.3824 39.0815 39.3716 37.7836 40.2269 36.743L41.7833 34.8686L45.5241 28.3788C47.5744 24.8045 49.2748 21.879 49.2849 21.8585C49.3571 21.7762 50.1612 22.2704 50.3053 22.4766C50.6456 22.9502 50.5321 23.2181 48.6565 26.4733C47.6572 28.2037 46.822 29.759 46.7914 29.9447C46.7397 30.2126 46.7914 30.336 47.0594 30.604C47.3375 30.8719 47.4404 30.913 47.7084 30.8613C47.8836 30.8307 48.0898 30.7479 48.1621 30.6862C48.3679 30.5111 52.0158 24.1553 52.1292 23.7745C52.4695 22.59 51.9746 21.4566 50.8102 20.7045L50.1712 20.2926L51.2945 18.3353C52.5001 16.2647 52.6241 15.8734 52.2321 15.5132C52.0363 15.3275 52.0364 15.3175 52.3867 14.6788C52.8299 13.8751 52.9227 13.2158 52.7064 12.4537C52.3661 11.3103 51.3974 10.6099 50.1712 10.6099C49.7075 10.6199 49.3571 10.6816 49.0791 10.8261ZM50.7791 12.5671C51.1088 12.8967 51.1399 13.2263 50.8825 13.7617C50.7485 14.0196 50.5939 14.2564 50.5216 14.2769C50.4287 14.3181 49.306 13.7516 49.038 13.5354C48.9657 13.4732 49.5429 12.5771 49.7281 12.4743C50.0272 12.2992 50.5527 12.3403 50.7791 12.5671ZM48.8628 15.4615C49.6563 15.9251 50.3364 16.3164 50.357 16.337C50.3876 16.3681 48.7905 19.2008 48.6565 19.3554C48.6359 19.386 45.8021 17.7895 45.637 17.6555C45.5958 17.6249 47.3064 14.6271 47.3686 14.6271C47.3892 14.6271 48.0587 15.0084 48.8628 15.4615ZM46.7297 20.3237C47.2552 20.6122 47.6878 20.9001 47.6878 20.9518C47.6878 21.0241 41.175 32.3549 40.7941 32.9525C40.7218 33.0553 40.3815 32.9008 39.2276 32.2315C38.4135 31.7679 37.7334 31.3766 37.7128 31.356C37.6923 31.3455 42.0408 23.754 44.4625 19.6027L44.72 19.1697L45.2455 19.4688C45.5446 19.6439 46.2142 20.0246 46.7297 20.3237ZM38.6504 33.9103C39.1453 34.1988 39.5779 34.4667 39.6091 34.5184C39.6397 34.5695 39.1659 35.2082 38.5575 35.9503L37.4448 37.2788L36.8781 36.9598C36.5584 36.7741 36.1775 36.5579 36.0229 36.465C35.8578 36.3828 35.7343 36.2799 35.7343 36.2488C35.7343 36.1765 36.8676 33.1587 36.9399 33.0348C36.9605 32.9936 37.1562 33.0554 37.3625 33.1793C37.5788 33.3027 38.1455 33.6323 38.6504 33.9103ZM35.796 38.3811C36.1569 38.5873 36.4555 38.7725 36.4555 38.793C36.4555 38.9681 36.0023 39.6685 35.8166 39.8025C35.2705 40.1938 34.4876 39.8025 34.467 39.1432C34.467 38.7725 34.8479 38.0104 35.0336 38.0104C35.0848 38.0104 35.4352 38.1749 35.796 38.3811Z" fill="#10243E"/>
<path d="M6.91457 23.7646C6.60539 23.8263 6.26562 24.2693 6.26562 24.6295C6.26562 24.7841 6.37906 25.052 6.51307 25.2065L6.76 25.495H15.8797H25L25.2675 25.2477C25.6389 24.8975 25.6389 24.341 25.2675 23.9908L25 23.744L16.0755 23.7335C11.1603 23.7229 7.03856 23.7335 6.91457 23.7646Z" fill="#10243E"/>
<path d="M28.0561 23.7643C27.3866 23.9394 27.1492 24.7738 27.6541 25.2474L27.9221 25.4947H31.3231H34.7235L34.971 25.2063C35.2902 24.8355 35.2902 24.403 34.971 24.0317L34.7235 23.7437L31.4877 23.7227C29.7155 23.7227 28.1696 23.7332 28.0561 23.7643Z" fill="#10243E"/>
<path d="M6.7279 28.246C6.2024 28.5445 6.09896 29.2038 6.52158 29.6157L6.76906 29.8736H11.499H16.2291L16.5071 29.6057C16.868 29.2349 16.8574 28.8124 16.476 28.4211L16.1774 28.1221H11.5508C8.27379 28.1326 6.87194 28.1632 6.7279 28.246Z" fill="#10243E"/>
<path d="M19.0432 28.2555C18.4866 28.534 18.4143 29.2755 18.9092 29.6669C19.1567 29.8626 19.3419 29.8731 22.5365 29.8731C25.7824 29.8731 25.9164 29.8626 26.1327 29.6669C26.607 29.2239 26.5142 28.544 25.9475 28.2555C25.5766 28.0704 19.4141 28.0704 19.0432 28.2555Z" fill="#10243E"/>
<path d="M9.56068 34.457C6.74748 35.0545 4.56264 37.1663 3.83138 39.9679C3.56335 40.9979 3.58393 42.6978 3.87253 43.7278C4.61435 46.3031 6.53117 48.2087 9.09693 48.9502C9.72532 49.1258 10.1891 49.177 11.0549 49.1875C12.4562 49.1875 13.0334 49.0536 14.3836 48.3943C15.28 47.9718 15.5892 47.7556 16.2487 47.0964C17.5983 45.7573 18.3818 44.1091 18.4952 42.3476C18.5464 41.4821 18.5464 41.4515 18.2684 41.173C17.65 40.5654 16.7741 41.029 16.7741 41.9562C16.7636 43.2436 16.1146 44.7578 15.1254 45.7367C13.9815 46.8801 12.6831 47.426 11.1066 47.426C7.88077 47.4466 5.37675 44.9435 5.39733 41.7194C5.39733 40.143 5.94393 38.845 7.08726 37.7016C8.45799 36.3319 10.4471 35.765 12.3428 36.2185C12.9406 36.3525 13.2603 36.4965 14.6305 37.2074C14.9708 37.3925 15.0325 37.3925 15.3728 37.2486C15.7643 37.0835 15.8878 36.8161 15.826 36.3008C15.7643 35.7138 14.105 34.7766 12.5596 34.4464C11.7144 34.2713 10.4365 34.2713 9.56068 34.457Z" fill="#10243E"/>
<path d="M14.3014 39.2157C14.2191 39.2468 13.3944 39.9989 12.4674 40.8744L10.7875 42.4709L9.72598 41.4303C8.85015 40.5653 8.61326 40.3797 8.35579 40.3797C7.91259 40.3797 7.5 40.8122 7.5 41.2758C7.5 41.5848 7.634 41.7705 8.59267 42.7488C9.19045 43.3669 9.83942 43.9439 10.0457 44.0368C10.4578 44.2324 11.1273 44.263 11.5605 44.0879C11.9625 43.9439 15.1155 40.8333 15.2907 40.4108C15.4864 39.9472 15.3112 39.4731 14.858 39.288C14.6723 39.2057 14.4971 39.1435 14.4871 39.154C14.4665 39.154 14.3837 39.1851 14.3014 39.2157Z" fill="#10243E"/>
</svg>
