<svg width="24" height="24" viewBox="0 0 24 24" fill="none" xmlns="http://www.w3.org/2000/svg">
<g clip-path="url(#clip0_1813_6318)">
<path d="M15.75 15.75C15.75 15.3522 15.592 14.9707 15.3107 14.6894C15.0294 14.408 14.6478 14.25 14.25 14.25H9.42375L9.75 11.67C9.75184 11.6551 9.75184 11.64 9.75 11.625C9.75 9.54751 8.28 9.00001 7.5 9.00001C7.41583 8.9969 7.33307 9.02221 7.26504 9.07187C7.19701 9.12153 7.14768 9.19265 7.125 9.27376L5.625 14.4825C5.37303 14.9793 4.98221 15.3923 4.5 15.6713V15.375C4.5 15.2756 4.46049 15.1802 4.39016 15.1098C4.31984 15.0395 4.22446 15 4.125 15H0.375C0.275544 15 0.180161 15.0395 0.109835 15.1098C0.0395088 15.1802 0 15.2756 0 15.375L0 23.625C0 23.7245 0.0395088 23.8199 0.109835 23.8902C0.180161 23.9605 0.275544 24 0.375 24H4.125C4.22446 24 4.31984 23.9605 4.39016 23.8902C4.46049 23.8199 4.5 23.7245 4.5 23.625V23.3738L6.64875 24C6.68226 24.0057 6.71649 24.0057 6.75 24H13.125C13.4091 23.996 13.6862 23.9114 13.9241 23.756C14.162 23.6007 14.3508 23.3809 14.4687 23.1224C14.5866 22.8639 14.6286 22.5772 14.5899 22.2958C14.5511 22.0143 14.4333 21.7496 14.25 21.5325C14.4358 21.4207 14.5951 21.27 14.717 21.0907C14.8388 20.9114 14.9204 20.7078 14.9561 20.4939C14.9917 20.2801 14.9806 20.061 14.9234 19.8519C14.8663 19.6428 14.7645 19.4485 14.625 19.2825C14.8108 19.1707 14.9701 19.02 15.092 18.8407C15.2138 18.6614 15.2954 18.4578 15.3311 18.2439C15.3667 18.0301 15.3556 17.811 15.2984 17.6019C15.2413 17.3928 15.1395 17.1985 15 17.0325C15.2256 16.9023 15.4134 16.7155 15.5449 16.4906C15.6764 16.2658 15.7471 16.0105 15.75 15.75ZM3.75 23.25H0.75V15.75H3.75V23.25ZM13.125 23.25H6.8025L4.5 22.5938V16.455C5.625 16.1963 6.30375 14.8575 6.33375 14.7938C6.34411 14.7719 6.35288 14.7494 6.36 14.7263L7.77375 9.78376C8.2125 9.88126 8.9925 10.245 9 11.6025L8.625 14.58C8.61859 14.6324 8.6233 14.6855 8.6388 14.7359C8.65431 14.7863 8.68028 14.8328 8.715 14.8725C8.75056 14.913 8.79442 14.9453 8.8436 14.9673C8.89278 14.9893 8.94612 15.0005 9 15H14.25C14.4489 15 14.6397 15.079 14.7803 15.2197C14.921 15.3603 15 15.5511 15 15.75C15 15.9489 14.921 16.1397 14.7803 16.2803C14.6397 16.421 14.4489 16.5 14.25 16.5H12.375C12.2755 16.5 12.1802 16.5395 12.1098 16.6098C12.0395 16.6802 12 16.7756 12 16.875C12 16.9745 12.0395 17.0699 12.1098 17.1402C12.1802 17.2105 12.2755 17.25 12.375 17.25H13.875C14.0739 17.25 14.2647 17.329 14.4053 17.4697C14.546 17.6103 14.625 17.8011 14.625 18C14.625 18.1989 14.546 18.3897 14.4053 18.5303C14.2647 18.671 14.0739 18.75 13.875 18.75H12C11.9005 18.75 11.8052 18.7895 11.7348 18.8598C11.6645 18.9302 11.625 19.0256 11.625 19.125C11.625 19.2245 11.6645 19.3199 11.7348 19.3902C11.8052 19.4605 11.9005 19.5 12 19.5H13.5C13.6989 19.5 13.8897 19.579 14.0303 19.7197C14.171 19.8603 14.25 20.0511 14.25 20.25C14.25 20.4489 14.171 20.6397 14.0303 20.7803C13.8897 20.921 13.6989 21 13.5 21H11.625C11.5255 21 11.4302 21.0395 11.3598 21.1098C11.2895 21.1802 11.25 21.2756 11.25 21.375C11.25 21.4745 11.2895 21.5699 11.3598 21.6402C11.4302 21.7105 11.5255 21.75 11.625 21.75H13.125C13.3239 21.75 13.5147 21.829 13.6553 21.9697C13.796 22.1103 13.875 22.3011 13.875 22.5C13.875 22.6989 13.796 22.8897 13.6553 23.0303C13.5147 23.171 13.3239 23.25 13.125 23.25Z" fill="white"/>
<path d="M4.875 5.625H5.25V6C5.25 6.09946 5.28951 6.19484 5.35984 6.26517C5.43016 6.33549 5.52554 6.375 5.625 6.375C5.72446 6.375 5.81984 6.33549 5.89016 6.26517C5.96049 6.19484 6 6.09946 6 6V5.625H6.375C6.47446 5.625 6.56984 5.58549 6.64017 5.51516C6.71049 5.44484 6.75 5.34946 6.75 5.25C6.75 5.15054 6.71049 5.05516 6.64017 4.98484C6.56984 4.91451 6.47446 4.875 6.375 4.875H6V4.5C6 4.40054 5.96049 4.30516 5.89016 4.23484C5.81984 4.16451 5.72446 4.125 5.625 4.125C5.52554 4.125 5.43016 4.16451 5.35984 4.23484C5.28951 4.30516 5.25 4.40054 5.25 4.5V4.875H4.875C4.77554 4.875 4.68016 4.91451 4.60984 4.98484C4.53951 5.05516 4.5 5.15054 4.5 5.25C4.5 5.34946 4.53951 5.44484 4.60984 5.51516C4.68016 5.58549 4.77554 5.625 4.875 5.625Z" fill="white"/>
<path d="M20.25 18.75H19.875V18.375C19.875 18.2755 19.8355 18.1802 19.7652 18.1098C19.6948 18.0395 19.5995 18 19.5 18C19.4005 18 19.3052 18.0395 19.2348 18.1098C19.1645 18.1802 19.125 18.2755 19.125 18.375V18.75H18.75C18.6505 18.75 18.5552 18.7895 18.4848 18.8598C18.4145 18.9302 18.375 19.0255 18.375 19.125C18.375 19.2245 18.4145 19.3198 18.4848 19.3902C18.5552 19.4605 18.6505 19.5 18.75 19.5H19.125V19.875C19.125 19.9745 19.1645 20.0698 19.2348 20.1402C19.3052 20.2105 19.4005 20.25 19.5 20.25C19.5995 20.25 19.6948 20.2105 19.7652 20.1402C19.8355 20.0698 19.875 19.9745 19.875 19.875V19.5H20.25C20.3495 19.5 20.4448 19.4605 20.5152 19.3902C20.5855 19.3198 20.625 19.2245 20.625 19.125C20.625 19.0255 20.5855 18.9302 20.5152 18.8598C20.4448 18.7895 20.3495 18.75 20.25 18.75Z" fill="white"/>
<path d="M15.75 -2.46284e-05C13.562 -2.46284e-05 11.4635 0.869169 9.91637 2.41634C8.36919 3.96352 7.5 6.06194 7.5 8.24998C7.5 8.34943 7.53951 8.44481 7.60983 8.51514C7.68016 8.58547 7.77554 8.62498 7.875 8.62498C7.97446 8.62498 8.06984 8.58547 8.14017 8.51514C8.21049 8.44481 8.25 8.34943 8.25 8.24998C8.25044 6.82788 8.65519 5.43521 9.41704 4.2344C10.1789 3.03359 11.2664 2.07413 12.5529 1.46791C13.8393 0.861686 15.2715 0.633698 16.6826 0.810529C18.0937 0.987361 19.4254 1.56172 20.5224 2.46663C21.6194 3.37154 22.4366 4.5697 22.8786 5.92138C23.3206 7.27305 23.3691 8.72252 23.0187 10.1008C22.6682 11.479 21.9331 12.7292 20.8991 13.7055C19.8651 14.6818 18.5748 15.3441 17.1788 15.615C17.0793 15.6244 16.9877 15.673 16.924 15.75C16.8604 15.827 16.8299 15.9261 16.8394 16.0256C16.8488 16.1251 16.8974 16.2167 16.9744 16.2803C17.0514 16.344 17.1505 16.3744 17.25 16.365H17.3212C19.3542 15.9933 21.1735 14.8721 22.4195 13.2233C23.6654 11.5745 24.2472 9.51819 24.0497 7.46103C23.8521 5.40388 22.8897 3.49577 21.3529 2.11416C19.816 0.732556 17.8165 -0.0219227 15.75 -2.46284e-05Z" fill="white"/>
<path d="M19.125 9.75C19.125 8.95435 18.8089 8.19129 18.2463 7.62868C17.6837 7.06607 16.9206 6.75 16.125 6.75H15.375C15.1761 6.75 14.9853 6.67098 14.8447 6.53033C14.704 6.38968 14.625 6.19891 14.625 6C14.625 5.80109 14.704 5.61032 14.8447 5.46967C14.9853 5.32902 15.1761 5.25 15.375 5.25H18C18.2984 5.25 18.5845 5.13147 18.7955 4.9205C19.0065 4.70952 19.125 4.42337 19.125 4.125C19.125 3.82663 19.0065 3.54048 18.7955 3.3295C18.5845 3.11853 18.2984 3 18 3H16.875V1.875C16.875 1.77554 16.8355 1.68016 16.7652 1.60984C16.6948 1.53951 16.5995 1.5 16.5 1.5H15C14.9005 1.5 14.8052 1.53951 14.7348 1.60984C14.6645 1.68016 14.625 1.77554 14.625 1.875V3.0975C13.92 3.28175 13.3062 3.7163 12.8981 4.32C12.49 4.92371 12.3156 5.6553 12.4075 6.37817C12.4993 7.10103 12.8512 7.76576 13.3972 8.24823C13.9433 8.7307 14.6463 8.99792 15.375 9H16.125C16.3239 9 16.5147 9.07902 16.6553 9.21967C16.796 9.36032 16.875 9.55109 16.875 9.75C16.875 9.94891 16.796 10.1397 16.6553 10.2803C16.5147 10.421 16.3239 10.5 16.125 10.5H13.5C13.2016 10.5 12.9155 10.6185 12.7045 10.8295C12.4935 11.0405 12.375 11.3266 12.375 11.625C12.375 11.9234 12.4935 12.2095 12.7045 12.4205C12.9155 12.6315 13.2016 12.75 13.5 12.75H14.625V13.875C14.625 13.9745 14.6645 14.0698 14.7348 14.1402C14.8052 14.2105 14.9005 14.25 15 14.25H16.5C16.5995 14.25 16.6948 14.2105 16.7652 14.1402C16.8355 14.0698 16.875 13.9745 16.875 13.875V12.6525C17.5186 12.4863 18.0888 12.1111 18.496 11.5858C18.9033 11.0604 19.1245 10.4147 19.125 9.75ZM16.4475 11.9738C16.3574 11.9865 16.275 12.0316 16.2157 12.1005C16.1563 12.1695 16.1241 12.2578 16.125 12.3488V13.5H15.375V12.375C15.375 12.2755 15.3355 12.1802 15.2652 12.1098C15.1948 12.0395 15.0995 12 15 12H13.5C13.4005 12 13.3052 11.9605 13.2348 11.8902C13.1645 11.8198 13.125 11.7245 13.125 11.625C13.125 11.5255 13.1645 11.4302 13.2348 11.3598C13.3052 11.2895 13.4005 11.25 13.5 11.25H16.125C16.5228 11.25 16.9044 11.092 17.1857 10.8107C17.467 10.5294 17.625 10.1478 17.625 9.75C17.625 9.35218 17.467 8.97064 17.1857 8.68934C16.9044 8.40804 16.5228 8.25 16.125 8.25H15.375C14.8097 8.24507 14.2669 8.0275 13.8547 7.64058C13.4425 7.25366 13.1911 6.72574 13.1505 6.16186C13.1098 5.59798 13.2829 5.03946 13.6354 4.59742C13.9878 4.15538 14.4937 3.86222 15.0525 3.77625C15.1426 3.76351 15.225 3.71845 15.2843 3.64946C15.3437 3.58046 15.3759 3.49224 15.375 3.40125V2.25H16.125V3.375C16.125 3.47446 16.1645 3.56984 16.2348 3.64016C16.3052 3.71049 16.4005 3.75 16.5 3.75H18C18.0995 3.75 18.1948 3.78951 18.2652 3.85984C18.3355 3.93016 18.375 4.02554 18.375 4.125C18.375 4.22446 18.3355 4.31984 18.2652 4.39016C18.1948 4.46049 18.0995 4.5 18 4.5H15.375C14.9772 4.5 14.5956 4.65804 14.3143 4.93934C14.033 5.22064 13.875 5.60218 13.875 6C13.875 6.39782 14.033 6.77936 14.3143 7.06066C14.5956 7.34196 14.9772 7.5 15.375 7.5H16.125C16.6903 7.50493 17.2331 7.7225 17.6453 8.10942C18.0575 8.49634 18.3089 9.02426 18.3495 9.58814C18.3902 10.152 18.2171 10.7105 17.8646 11.1526C17.5122 11.5946 17.0063 11.8878 16.4475 11.9738Z" fill="white"/>
</g>
<defs>
<clipPath id="clip0_1813_6318">
<rect width="24" height="24" fill="white"/>
</clipPath>
</defs>
</svg>
