<svg width="24" height="24" viewBox="0 0 24 24" fill="none" xmlns="http://www.w3.org/2000/svg">
<g clip-path="url(#clip0_1813_6325)">
<path d="M5.25 2.0625C5.12672 2.0625 5.00578 2.11261 4.91859 2.19984C4.83141 2.28708 4.78125 2.40797 4.78125 2.53125C4.78125 2.65453 4.83136 2.77547 4.91859 2.86261C5.00578 2.94984 5.12672 3 5.25 3C5.37328 3 5.49422 2.94984 5.58136 2.86261C5.66859 2.77547 5.71875 2.65453 5.71875 2.53125C5.71875 2.40797 5.66859 2.28703 5.58136 2.19984C5.49422 2.11261 5.37328 2.0625 5.25 2.0625Z" fill="white"/>
<path d="M3 2.0625C2.87672 2.0625 2.75578 2.11261 2.66859 2.19984C2.58141 2.28708 2.53125 2.40745 2.53125 2.53125C2.53125 2.65453 2.58136 2.77547 2.66859 2.86261C2.75578 2.94984 2.87672 3 3 3C3.12328 3 3.24422 2.94984 3.33136 2.86261C3.41859 2.77547 3.46875 2.65453 3.46875 2.53125C3.46875 2.40797 3.41859 2.28703 3.33136 2.19984C3.24422 2.11261 3.12328 2.0625 3 2.0625Z" fill="white"/>
<path d="M7.5 2.0625C7.37672 2.0625 7.25578 2.11261 7.16859 2.19984C7.08141 2.28708 7.03125 2.40797 7.03125 2.53125C7.03125 2.65453 7.08136 2.77547 7.16859 2.86261C7.25578 2.94984 7.37672 3 7.5 3C7.62328 3 7.74422 2.94984 7.83136 2.86261C7.91859 2.77547 7.96875 2.65453 7.96875 2.53125C7.96875 2.40797 7.91859 2.28703 7.83136 2.19984C7.74422 2.11261 7.62375 2.0625 7.5 2.0625Z" fill="white"/>
<path d="M21.4688 12.7534V1.96875C21.4688 0.883172 20.5856 0 19.5 0H1.96875C0.883172 0 0 0.883172 0 1.96875V20.1562C0 21.2418 0.883172 22.125 1.96875 22.125H5.6303C5.88914 22.125 6.09905 21.9151 6.09905 21.6562C6.09905 21.3974 5.88914 21.1875 5.6303 21.1875H1.96875C1.40011 21.1875 0.9375 20.7249 0.9375 20.1562V5.0625H20.5312V12.1794C19.6973 11.7649 18.7583 11.5312 17.7656 11.5312C14.328 11.5312 11.5312 14.328 11.5312 17.7656C11.5312 19.0284 11.909 20.2045 12.557 21.1875H9.84905C9.5902 21.1875 9.3803 21.3974 9.3803 21.6562C9.3803 21.9151 9.5902 22.125 9.84905 22.125H13.3135C14.4458 23.2812 16.0232 24 17.7656 24C21.2033 24 24 21.2033 24 17.7656C24 15.7136 23.0033 13.8901 21.4688 12.7534ZM0.9375 4.125V1.96875C0.9375 1.40011 1.40011 0.9375 1.96875 0.9375H19.5C20.0686 0.9375 20.5312 1.40011 20.5312 1.96875V4.125H0.9375ZM17.7656 23.0625C14.8449 23.0625 12.4688 20.6864 12.4688 17.7656C12.4688 14.8449 14.8449 12.4688 17.7656 12.4688C20.6864 12.4688 23.0625 14.8449 23.0625 17.7656C23.0625 20.6864 20.6864 23.0625 17.7656 23.0625Z" fill="white"/>
<path d="M15.8019 16.0496C15.6188 15.8666 15.3221 15.8666 15.139 16.0496L13.7545 17.4341C13.5714 17.6171 13.5714 17.914 13.7545 18.0971L15.139 19.4816C15.2305 19.5731 15.3505 19.6189 15.4704 19.6189C15.5904 19.6189 15.7103 19.5731 15.8019 19.4816C15.9849 19.2985 15.9849 19.0017 15.8019 18.8186L14.7489 17.7656L15.802 16.7125C15.985 16.5295 15.985 16.2327 15.8019 16.0496Z" fill="white"/>
<path d="M21.7863 17.4341L20.4018 16.0496C20.2187 15.8666 19.922 15.8666 19.7388 16.0496C19.5558 16.2327 19.5558 16.5295 19.7388 16.7126L20.7919 17.7656L19.7388 18.8186C19.5558 19.0017 19.5558 19.2985 19.7388 19.4816C19.8304 19.5731 19.9503 19.6189 20.0703 19.6189C20.1903 19.6189 20.3102 19.5731 20.4018 19.4816L21.7863 18.0971C21.9694 17.914 21.9694 17.6171 21.7863 17.4341Z" fill="white"/>
<path d="M18.3866 15.5033C18.1368 15.4355 17.8793 15.583 17.8115 15.8329L16.829 19.4528C16.7612 19.7027 16.9087 19.9601 17.1586 20.028C17.1997 20.0391 17.241 20.0445 17.2816 20.0445C17.488 20.0445 17.6771 19.9071 17.7337 19.6984L18.7162 16.0785C18.7841 15.8286 18.6365 15.5711 18.3866 15.5033Z" fill="white"/>
<path d="M3.09375 14.4375H9.60253C9.86138 14.4375 10.0713 14.2276 10.0713 13.9688C10.0713 13.7099 9.86138 13.5 9.60253 13.5H3.09375C2.83491 13.5 2.625 13.7099 2.625 13.9688C2.625 14.2276 2.83491 14.4375 3.09375 14.4375Z" fill="white"/>
<path d="M2.76234 12.0501C2.84953 12.1373 2.97047 12.1875 3.09375 12.1875C3.21703 12.1875 3.33797 12.1373 3.42511 12.0501C3.51234 11.963 3.5625 11.842 3.5625 11.7188C3.5625 11.5955 3.51234 11.4745 3.42511 11.3873C3.33797 11.3001 3.21703 11.25 3.09375 11.25C2.97047 11.25 2.84953 11.3001 2.76234 11.3873C2.67516 11.4746 2.625 11.5955 2.625 11.7188C2.625 11.842 2.67511 11.963 2.76234 12.0501Z" fill="white"/>
<path d="M11.9882 11.25H5.20312C4.94428 11.25 4.73438 11.4599 4.73438 11.7188C4.73438 11.9776 4.94428 12.1875 5.20312 12.1875H11.9882C12.2471 12.1875 12.457 11.9776 12.457 11.7188C12.457 11.4599 12.2471 11.25 11.9882 11.25Z" fill="white"/>
<path d="M3.09375 16.6875H4.64194C4.90078 16.6875 5.11069 16.4776 5.11069 16.2188C5.11069 15.9599 4.90078 15.75 4.64194 15.75H3.09375C2.83491 15.75 2.625 15.9599 2.625 16.2188C2.625 16.4776 2.83491 16.6875 3.09375 16.6875Z" fill="white"/>
<path d="M9.60253 15.75H6.89062C6.63178 15.75 6.42188 15.9599 6.42188 16.2188C6.42188 16.4776 6.63178 16.6875 6.89062 16.6875H9.60253C9.86138 16.6875 10.0713 16.4776 10.0713 16.2188C10.0713 15.9599 9.86138 15.75 9.60253 15.75Z" fill="white"/>
<path d="M3.09375 18.9375H9.60253C9.86138 18.9375 10.0713 18.7276 10.0713 18.4688C10.0713 18.2099 9.86138 18 9.60253 18H3.09375C2.83491 18 2.625 18.2099 2.625 18.4688C2.625 18.7276 2.83491 18.9375 3.09375 18.9375Z" fill="white"/>
<path d="M3.09375 9.9375H5.31741C5.57625 9.9375 5.78616 9.72759 5.78616 9.46875C5.78616 9.20991 5.57625 9 5.31741 9H3.09375C2.83491 9 2.625 9.20991 2.625 9.46875C2.625 9.72759 2.83491 9.9375 3.09375 9.9375Z" fill="white"/>
<path d="M7.17188 9.46875C7.17188 9.72759 7.38178 9.9375 7.64063 9.9375H11.9854C12.2442 9.9375 12.4541 9.72759 12.4541 9.46875C12.4541 9.20991 12.2442 9 11.9854 9H7.64063C7.38173 9 7.17188 9.20991 7.17188 9.46875Z" fill="white"/>
<path d="M13.6172 9.46875C13.6172 9.72759 13.8271 9.9375 14.0859 9.9375H18.375C18.6338 9.9375 18.8438 9.72759 18.8438 9.46875C18.8438 9.20991 18.6338 9 18.375 9H14.0859C13.8271 9 13.6172 9.20991 13.6172 9.46875Z" fill="white"/>
<path d="M18.375 7.6875C18.6338 7.6875 18.8437 7.47759 18.8437 7.21875C18.8437 6.95991 18.6338 6.75 18.375 6.75H15.6133C15.3544 6.75 15.1445 6.95991 15.1445 7.21875C15.1445 7.47759 15.3544 7.6875 15.6133 7.6875H18.375Z" fill="white"/>
<path d="M6.89062 6.75H3.09375C2.83491 6.75 2.625 6.95991 2.625 7.21875C2.625 7.47759 2.83491 7.6875 3.09375 7.6875H6.89062C7.14947 7.6875 7.35938 7.47759 7.35938 7.21875C7.35938 6.95991 7.14947 6.75 6.89062 6.75Z" fill="white"/>
<path d="M13.5147 6.75H9.25C8.99116 6.75 8.78125 6.95991 8.78125 7.21875C8.78125 7.47759 8.99116 7.6875 9.25 7.6875H13.5147C13.7735 7.6875 13.9834 7.47759 13.9834 7.21875C13.9834 6.95991 13.7735 6.75 13.5147 6.75Z" fill="white"/>
<path d="M7.74219 21.1875C7.61891 21.1875 7.49797 21.2376 7.41083 21.3248C7.32364 21.412 7.27344 21.533 7.27344 21.6562C7.27344 21.7795 7.32359 21.9005 7.41083 21.9876C7.49797 22.0748 7.61891 22.125 7.74219 22.125C7.86552 22.125 7.98641 22.0748 8.07359 21.9876C8.16125 21.9005 8.21094 21.7795 8.21094 21.6562C8.21094 21.533 8.16125 21.412 8.07359 21.3248C7.98641 21.2376 7.86598 21.1875 7.74219 21.1875Z" fill="white"/>
</g>
<defs>
<clipPath id="clip0_1813_6325">
<rect width="24" height="24" fill="white"/>
</clipPath>
</defs>
</svg>
