<svg width="24" height="24" viewBox="0 0 24 24" fill="none" xmlns="http://www.w3.org/2000/svg">
<g clip-path="url(#clip0_1828_755)">
<path fill-rule="evenodd" clip-rule="evenodd" d="M9.69001 2.30737L10.6059 3.04359L10.2976 4.17759C10.2454 4.36978 10.3158 4.56956 10.4769 4.68666C10.5607 4.74759 10.6582 4.7782 10.756 4.77816C10.8461 4.77816 10.9365 4.75209 11.0165 4.69978L11.9996 4.05619L12.9829 4.69978C13.1496 4.80886 13.3614 4.80384 13.5227 4.68652C13.6837 4.56942 13.7539 4.36969 13.7017 4.17755L13.3934 3.04359L14.3093 2.30742C14.4646 2.18278 14.5251 1.97981 14.4637 1.79039C14.4022 1.60083 14.2339 1.47206 14.0349 1.46241L12.8611 1.40517L12.444 0.306609V0.306516C12.3732 0.120328 12.1989 0 11.9997 0C11.8005 0 11.626 0.120328 11.5554 0.306516L11.1383 1.40517L9.96456 1.46241C9.76548 1.47206 9.5971 1.60083 9.53579 1.79002C9.47406 1.97962 9.53471 2.18278 9.69001 2.30737ZM11.3544 2.14552C11.5431 2.13642 11.7084 2.01633 11.7756 1.83961L11.9996 1.24941L12.2237 1.83966C12.2908 2.01637 12.4562 2.13642 12.6448 2.14552L13.2753 2.17627L12.7832 2.57175C12.636 2.69006 12.5729 2.88436 12.6224 3.0668L12.788 3.67598L12.2601 3.33042C12.1809 3.27853 12.0901 3.25256 11.9994 3.25256C11.9088 3.25256 11.8182 3.27848 11.7392 3.33023L11.2111 3.67598L11.3767 3.06661C11.4262 2.88412 11.363 2.68987 11.2158 2.57175L10.7238 2.17627L11.3544 2.14552ZM14.9761 3.32119L15.892 4.05736L15.5837 5.19136C15.5315 5.38355 15.6019 5.58333 15.7629 5.70042C15.8468 5.76136 15.9443 5.79197 16.0421 5.79192C16.1322 5.79192 16.2226 5.76586 16.3026 5.71355L17.2858 5.06995L18.269 5.71355C18.4356 5.82258 18.6473 5.81752 18.8089 5.70028C18.9699 5.58319 19.0401 5.38341 18.9879 5.19136L18.6796 4.05736L19.5954 3.32123C19.7508 3.19636 19.8114 2.9933 19.7499 2.80416C19.6884 2.61459 19.52 2.48583 19.321 2.47617L18.1472 2.41894L17.7302 1.32037V1.32028C17.6594 1.13409 17.485 1.01377 17.2859 1.01377C17.0867 1.01377 16.9122 1.13409 16.8415 1.32028L16.4244 2.41894L15.2507 2.47617C15.0517 2.48583 14.8833 2.61459 14.822 2.80378C14.7603 2.99316 14.8208 3.19617 14.9761 3.32119ZM16.6405 3.15923C16.8293 3.15014 16.9946 3.03005 17.0617 2.85333L17.2857 2.26312L17.5098 2.85337C17.577 3.03009 17.7423 3.15014 17.9309 3.15923L18.5614 3.18998L18.0693 3.58552C17.9219 3.70397 17.8589 3.89841 17.9085 4.08052L18.0741 4.6897L17.5462 4.34414C17.4671 4.29225 17.3763 4.26628 17.2856 4.26628C17.195 4.26628 17.1044 4.2922 17.0253 4.34395L16.4972 4.68966L16.6629 4.08042C16.7124 3.89808 16.6492 3.70383 16.5019 3.58547L16.0099 3.18998L16.6405 3.15923ZM4.40382 3.32119L5.31976 4.05736L5.0116 5.19103C4.95915 5.38336 5.02942 5.58328 5.19067 5.70047C5.27457 5.76141 5.37212 5.79202 5.46985 5.79202C5.56004 5.79202 5.65042 5.76595 5.73029 5.71359L6.71349 5.07L7.69674 5.71359C7.86343 5.82272 8.07517 5.81761 8.23642 5.70047C8.39753 5.58342 8.46784 5.38359 8.41557 5.19141L8.10728 4.05741L9.02345 3.32109C9.1786 3.19622 9.23907 2.9932 9.17757 2.8042C9.11607 2.61464 8.94774 2.48587 8.74871 2.47622L7.57496 2.41898L7.15787 1.32042C7.15787 1.32042 7.15787 1.32042 7.15787 1.32037C7.08713 1.13419 6.91276 1.01381 6.71359 1.01381C6.51418 1.01381 6.33971 1.13428 6.26935 1.32033L5.85221 2.41898L4.67846 2.47622C4.47962 2.48587 4.31129 2.6145 4.24956 2.8042C4.1881 2.99353 4.24867 3.19645 4.40382 3.32119ZM6.06821 3.15923C6.25717 3.15009 6.42259 3.02986 6.48938 2.85333L6.71349 2.26317L6.93756 2.85337C7.00468 3.03009 7.17001 3.15014 7.35863 3.15923L7.98915 3.18998L7.49682 3.58561C7.34978 3.70402 7.28678 3.89822 7.33623 4.08047L7.50184 4.68966L6.97393 4.34409C6.89476 4.2922 6.80401 4.26623 6.71331 4.26623C6.62265 4.26623 6.53209 4.29216 6.4531 4.34391L5.92496 4.68961L6.09057 4.08037C6.14012 3.89789 6.07688 3.70359 5.92965 3.58542L5.4376 3.18994L6.06821 3.15923ZM8.16812 9.12356C8.44946 8.83083 8.62304 8.4337 8.62304 7.99659C8.62304 7.09908 7.89282 6.36881 6.99526 6.36881C6.0977 6.36881 5.36748 7.09903 5.36748 7.99659C5.36748 8.43384 5.5411 8.83111 5.82263 9.12384C5.09279 9.45061 4.51885 10.0778 4.26971 10.8823C4.18004 11.1718 4.23132 11.4771 4.41029 11.7199C4.58931 11.9628 4.86582 12.102 5.16896 12.102H8.3319V12.3964C8.3319 13.0912 8.89721 13.6565 9.59199 13.6565H14.4074C15.1021 13.6565 15.6674 13.0912 15.6674 12.3964V12.1022H18.8304C19.1335 12.1022 19.41 11.9629 19.5891 11.7201C19.768 11.4772 19.8193 11.1719 19.7296 10.8824C19.4805 10.0779 18.9065 9.4507 18.1767 9.12394C18.4583 8.83116 18.6319 8.43394 18.6319 7.99669C18.6319 7.09917 17.9017 6.36891 17.0041 6.36891C16.1065 6.36891 15.3763 7.09912 15.3763 7.99669C15.3763 8.4338 15.5499 8.83087 15.8312 9.12361C15.4793 9.28153 15.1621 9.5108 14.8984 9.80086C14.4938 9.28702 13.9563 8.88586 13.3392 8.64633C13.7736 8.27025 14.0491 7.71548 14.0491 7.0972C14.0491 5.96714 13.1298 5.04769 11.9997 5.04769C10.8696 5.04769 9.95017 5.96709 9.95017 7.0972C9.95017 7.71548 10.2257 8.27025 10.6601 8.64633C10.043 8.88586 9.50556 9.28702 9.10093 9.80086C8.83721 9.51075 8.52001 9.28148 8.16812 9.12356ZM6.99526 7.11881C7.47924 7.11881 7.87304 7.51256 7.87304 7.99659C7.87304 8.48063 7.47929 8.87438 6.99526 8.87438C6.51123 8.87438 6.11748 8.48063 6.11748 7.99659C6.11748 7.51256 6.51128 7.11881 6.99526 7.11881ZM5.01404 11.2749C4.99281 11.2461 4.96093 11.1856 4.98615 11.1041C5.26032 10.219 6.06765 9.62433 6.99521 9.62433C7.6696 9.62433 8.28554 9.93816 8.68154 10.4721C8.54837 10.7472 8.44759 11.0419 8.38557 11.352H5.16896C5.08365 11.3521 5.03527 11.3037 5.01404 11.2749ZM16.1263 7.99669C16.1263 7.5127 16.52 7.11891 17.0041 7.11891C17.4881 7.11891 17.8818 7.51266 17.8818 7.99669C17.8818 8.48072 17.4881 8.87447 17.0041 8.87447C16.52 8.87447 16.1263 8.48067 16.1263 7.99669ZM17.0041 9.62442C17.9317 9.62442 18.739 10.2191 19.0131 11.1043C19.0383 11.1857 19.0065 11.2462 18.9853 11.2751C18.964 11.3039 18.9157 11.3522 18.8303 11.3522H15.6137C15.5517 11.0421 15.4509 10.7474 15.3177 10.4722C15.7137 9.9383 16.3297 9.62442 17.0041 9.62442ZM11.9997 5.79769C12.7162 5.79769 13.2991 6.38067 13.2991 7.0972C13.2991 7.81373 12.7162 8.39667 11.9997 8.39667C11.2832 8.39667 10.7002 7.81373 10.7002 7.0972C10.7002 6.38067 11.2832 5.79769 11.9997 5.79769ZM11.9996 9.14663C13.4978 9.14663 14.7487 10.2635 14.9174 11.7477V12.3964C14.9173 12.6777 14.6885 12.9065 14.4073 12.9065H9.59199C9.31074 12.9065 9.0819 12.6777 9.0819 12.3965V11.7477C9.25056 10.2635 10.5015 9.14663 11.9996 9.14663ZM23.0172 15.2633C22.8022 14.9044 21.9204 13.8386 19.5981 15.1912L15.5217 17.5654C15.3284 17.678 15.1319 17.7592 14.9274 17.8097C15.0005 17.6865 15.0582 17.5488 15.0987 17.3974C15.3089 16.6129 14.8428 15.7938 14.0376 15.5327C14.0215 15.5276 14.0051 15.5235 13.9885 15.5204C12.8181 15.3093 11.6625 14.8915 10.7339 14.5559C10.4109 14.4391 10.1059 14.3288 9.84634 14.2447C8.79751 13.9043 7.85106 14.3249 7.06327 14.781L4.04213 16.5301L3.71738 15.9562C3.58946 15.7301 3.38045 15.5672 3.12896 15.4975C2.87757 15.4279 2.61442 15.4599 2.38838 15.588L1.24468 16.2352C0.776728 16.5001 0.611447 17.0963 0.876337 17.5643L4.23882 23.5056C4.41803 23.8223 4.74892 24.0003 5.08913 24.0003C5.25174 24.0003 5.41651 23.9596 5.56782 23.874L6.71157 23.2267C6.93765 23.0987 7.10059 22.8897 7.17024 22.6382C7.23995 22.3868 7.20788 22.1237 7.07987 21.8976L6.78512 21.3768L7.46026 20.9871L12.6759 22.3845C12.972 22.4639 13.2626 22.5035 13.547 22.5035C14.114 22.5035 14.6561 22.346 15.1663 22.0319L22.5639 17.4768C23.2441 17.058 23.4602 16.003 23.0172 15.2633ZM6.44762 22.4379C6.4314 22.4963 6.39399 22.5446 6.34224 22.5739L5.19849 23.2213C5.14674 23.2506 5.08609 23.2577 5.02763 23.2416C4.96923 23.2254 4.9209 23.1879 4.8916 23.1362L1.52907 17.1948C1.49977 17.1431 1.4926 17.0824 1.50873 17.024C1.52495 16.9656 1.5624 16.9173 1.61415 16.8879L2.75785 16.2406C2.79156 16.2216 2.82906 16.2119 2.86717 16.2119C2.8877 16.2119 2.90832 16.2147 2.92871 16.2203C2.98707 16.2365 3.0354 16.274 3.0647 16.3257L5.95046 21.4246C5.9506 21.4249 5.9507 21.4252 5.95088 21.4254C5.95098 21.4256 5.95112 21.4258 5.95121 21.426L6.42723 22.267C6.45657 22.3188 6.46379 22.3795 6.44762 22.4379ZM22.1707 16.8382L14.7731 21.3933C14.1898 21.7525 13.5494 21.8423 12.8701 21.6601L7.50442 20.2224C7.40851 20.1966 7.30599 20.2101 7.21988 20.2598L6.41574 20.724L4.4116 17.1829L7.43912 15.43C8.11618 15.038 8.84842 14.7094 9.61496 14.9581C9.86265 15.0384 10.1483 15.1417 10.479 15.2612C11.427 15.604 12.6052 16.0299 13.8282 16.2536C14.2469 16.4004 14.4811 16.8048 14.3742 17.2034C14.2337 17.7277 13.7962 17.7932 13.4479 17.7533C12.8481 17.63 12.2779 17.4672 11.6746 17.2949C11.3882 17.2131 11.092 17.1285 10.7875 17.0469C10.5874 16.9934 10.3819 17.1121 10.3282 17.3121C10.2746 17.5122 10.3934 17.7178 10.5934 17.7714C10.8919 17.8514 11.1851 17.9351 11.4686 18.0161C12.0909 18.1938 12.6788 18.3617 13.3121 18.4912C13.3145 18.4917 13.317 18.4919 13.3194 18.4923C13.3219 18.4928 13.3244 18.4935 13.327 18.494L13.8339 18.5764C14.5951 18.6983 15.2707 18.5795 15.8991 18.2136L19.9754 15.8394C21.1418 15.1602 22.0383 15.0889 22.3737 15.6488C22.6044 16.0339 22.502 16.6342 22.1707 16.8382ZM3.12863 17.4569C3.16126 17.68 3.00681 17.8874 2.78368 17.92C2.56051 17.9527 2.35318 17.7982 2.32056 17.575C2.28793 17.3519 2.44238 17.1445 2.66556 17.1119C2.88863 17.0793 3.09601 17.2337 3.12863 17.4569Z" fill="white"/>
</g>
<defs>
<clipPath id="clip0_1828_755">
<rect width="24" height="24" fill="white"/>
</clipPath>
</defs>
</svg>
