<svg xmlns="http://www.w3.org/2000/svg" width="192" height="45" fill="none"><g clip-path="url(#a)"><path fill="#fff" d="M22.5 45C34.926 45 45 34.926 45 22.5S34.926 0 22.5 0 0 10.074 0 22.5 10.074 45 22.5 45Z"/><path fill="#10243E" d="M43.436 22.5a20.785 20.785 0 0 1-6.133 14.804l-.064.064-14.74-30.762L7.76 37.368l-.064-.064A20.937 20.937 0 1 1 37.303 7.696 20.785 20.785 0 0 1 43.436 22.5Z"/><path fill="#10243E" d="M35.86 38.616c-.569.472-1.16.914-1.775 1.324L22.5 15.799 10.928 39.954a21.482 21.482 0 0 1-1.78-1.338l13.333-27.865L35.86 38.616Z"/><path fill="#10243E" d="M32.527 40.89c-.637.34-1.29.647-1.959.919L22.5 24.99 14.43 41.836a20.654 20.654 0 0 1-1.958-.92L22.5 19.963l10.027 20.927Z"/><path fill="#10243E" d="M28.872 42.452a21.149 21.149 0 0 1-12.744 0l6.372-13.3 6.372 13.3ZM39.276 4.535V1.887h-.869v-.46h2.363v.46h-.869v2.648h-.625ZM41.253 4.533V1.406h.69l.887 1.513.878-1.513h.703v3.127h-.588v-2.3l-.782 1.38h-.418l-.782-1.38v2.3h-.588ZM52.577 36.944 62.09 8.058h7.71l9.627 28.886h-6.165l-1.623-5.517h-11.31l-1.682 5.517h-6.069Zm8.905-9.36h9.04L66.08 12.411l-4.598 15.171ZM96.304 37.45a26.632 26.632 0 0 1-5.761-.505 11.343 11.343 0 0 1-3.512-1.352 6.437 6.437 0 0 1-2.106-2.16 8.385 8.385 0 0 1-1.044-2.713 17.284 17.284 0 0 1-.266-3.25v-9.655c0-3.445.699-5.859 2.096-7.241a9.94 9.94 0 0 1 5.554-2.68 24.037 24.037 0 0 1 4.423-.332c5.961 0 9.516 1.63 10.666 4.892.558 1.69.822 3.462.781 5.241v.354l-5.691.667v-1.458c0-2.009-.396-3.37-1.187-4.073-.79-.703-2.298-1.057-4.528-1.057-2.23 0-3.839.358-4.823 1.066-.984.708-1.48 2.028-1.48 3.945v10.905c0 1.931.506 3.22 1.517 3.866 1.011.647 2.62.97 4.823.97a16.09 16.09 0 0 0 2.758-.188 3.675 3.675 0 0 0 1.701-.74c.472-.386.804-.916.947-1.508.193-.82.279-1.66.258-2.501v-.92h5.692v.524c0 2.86-.42 4.926-1.26 6.198a7.358 7.358 0 0 1-3.632 2.809 16.92 16.92 0 0 1-5.926.896ZM125.18 37.454c-5.425 0-8.981-1.29-10.666-3.871-.944-1.462-1.416-3.393-1.416-5.793V8.044h5.815v20.003c0 1.812.515 3.076 1.554 3.789 1.039.712 2.621 1.066 4.745 1.066s3.678-.354 4.597-1.057c.92-.704 1.38-1.959 1.38-3.798V8.044h5.815V27.55c0 3.837-1.135 6.513-3.406 8.027-1.907 1.25-4.713 1.876-8.418 1.876ZM144.162 36.944V8.058h11.117c3.963 0 6.675.613 8.137 1.839a5.447 5.447 0 0 1 1.632 2.35c.348 1.153.504 2.357.46 3.562a6.93 6.93 0 0 1-.781 3.531c-.525.878-1.495 1.503-2.92 1.867 1.931.26 3.237.991 3.917 2.193.681 1.201 1.019 2.793 1.016 4.776v.35c0 2.844-.783 4.957-2.349 6.34-1.566 1.382-4.136 2.075-7.71 2.078h-12.519Zm5.811-17.264h6.009c1.839 0 2.941-.489 3.306-1.466.23-.797.329-1.627.294-2.455a5.733 5.733 0 0 0-.363-2.377 2.06 2.06 0 0 0-1.32-1.048 10.747 10.747 0 0 0-2.993-.304h-4.933v7.65Zm0 13.19h5.637c.923.02 1.845-.038 2.758-.174a3.103 3.103 0 0 0 1.605-.745c.415-.385.697-.892.804-1.448.135-.712.197-1.436.184-2.161a17.7 17.7 0 0 0-.078-1.926 3.403 3.403 0 0 0-1.232-2.437c-.694-.529-1.839-.796-3.444-.796h-6.234v9.687ZM172.653 36.944V8.058h18.928v4.381h-13.135v7.673h11.646v4.189h-11.646v8.275h13.333v4.386l-19.126-.018Z"/></g><defs><clipPath id="a"><path fill="#fff" d="M0 0h191.793v45H0z"/></clipPath></defs></svg>