<svg width="48" height="48" viewBox="0 0 48 48" fill="none" xmlns="http://www.w3.org/2000/svg">
<path fill-rule="evenodd" clip-rule="evenodd" d="M0.0440254 25.3792V25.391C0.0440254 25.4306 0.0628281 25.4741 0.0667801 25.5137C0.0667801 25.5928 0.0801315 25.6679 0.0840836 25.7471C0.0880356 25.7787 0.0947418 25.8143 0.0986938 25.8459C0.102646 25.9172 0.111927 25.9844 0.119831 26.0516C0.155457 26.4274 0.203598 26.8032 0.259045 27.1711C0.274849 27.2858 0.292995 27.4005 0.312756 27.5112C0.316708 27.5469 0.319881 27.5825 0.327782 27.6181C0.34359 27.713 0.359039 27.804 0.378796 27.8949C0.410473 28.0848 0.445919 28.2787 0.485497 28.4685C0.485497 28.4725 0.485378 28.4764 0.48933 28.4804C0.528908 28.6742 0.57238 28.8641 0.61591 29.0579C0.623814 29.0935 0.631718 29.1291 0.643631 29.1647C0.928524 30.3712 1.30844 31.5381 1.77542 32.6694C1.78338 32.6891 1.79129 32.705 1.79919 32.7247C1.8823 32.9344 1.97331 33.1401 2.06828 33.3458C2.55112 34.4336 3.12102 35.4779 3.76212 36.4707C4.59716 37.7682 5.55883 38.9786 6.62338 40.0862C8.02437 41.5418 9.60738 42.8195 11.3368 43.8836C14.02 45.5291 17.0554 46.6604 20.2967 47.1271C20.3323 47.1311 20.3679 47.139 20.4035 47.143C20.6608 47.1786 20.918 47.2102 21.1752 47.2339C21.4483 47.2656 21.7253 47.2893 22.0024 47.3091C22.2517 47.3249 22.501 47.3408 22.7503 47.3487C22.7978 47.3526 22.8493 47.3526 22.9007 47.3526C23.1619 47.3645 23.4231 47.3684 23.6843 47.3684C28.2038 47.3684 32.4344 46.0908 36.0318 43.8836C37.7652 42.8195 39.3482 41.5418 40.7452 40.0862C41.8138 38.9786 42.7715 37.7682 43.6105 36.4707C44.2872 35.4225 44.8808 34.3188 45.3874 33.1678C45.4507 33.0214 45.514 32.8711 45.5734 32.7247C45.5813 32.705 45.5892 32.6891 45.5971 32.6694C46.0641 31.5381 46.4441 30.3712 46.729 29.1647C46.7409 29.1291 46.7488 29.0935 46.7567 29.0579C46.8991 28.4409 47.0179 27.8198 47.1129 27.1869C47.1485 26.9258 47.1801 26.6687 47.2079 26.4116C47.2435 26.0754 47.2751 25.7431 47.2989 25.4345C47.3068 25.3752 47.3107 25.3159 47.3147 25.2566C47.3147 25.2408 47.3186 25.2249 47.3186 25.2091C47.3542 24.7107 47.3701 24.2044 47.3701 23.6981C47.3701 23.259 47.3582 22.8199 47.3305 22.3848C47.287 21.5027 47.188 20.6364 47.0416 19.786C46.7685 18.1285 46.3174 16.5305 45.7158 15.0076C45.6961 14.9601 45.6763 14.9166 45.6605 14.8691C45.6011 14.7228 45.5457 14.4815 45.4903 14.343C43.8281 10.4427 41.1489 7.00204 37.781 4.45002H37.7771C37.7731 4.45002 37.7731 4.54105 37.7692 4.54105C37.0726 4.14941 36.3484 3.6194 35.5965 3.1803C35.5846 3.1724 35.5727 3.1882 35.5609 3.1803C32.0663 1.14315 28.0059 0 23.6843 0C23.2766 0 22.8691 0.0257344 22.4654 0.0454839C22.0617 0.0652935 21.666 0.103835 21.2702 0.143394C20.8705 0.182953 20.4747 0.239808 20.079 0.299118C19.6911 0.362436 19.3033 0.430423 18.9233 0.509542C9.68654 2.4082 2.3849 9.70673 0.485256 18.939C0.406158 19.3188 0.33886 19.7067 0.275509 20.0943C0.216171 20.4899 0.164738 20.8855 0.125099 21.2851C0.0855789 21.6806 0.0539055 22.0762 0.0341454 22.4797C0.014328 22.8832 0.00241089 23.2906 0.00241089 23.6981C0.00241089 23.9987 0.00642395 24.2993 0.0222321 24.596C0.0261841 24.8017 0.0380974 25.0073 0.0539055 25.2091C0.0539055 25.2091 0.04702 25.2289 0.04702 25.2566C0.04702 25.2961 0.0440254 25.3396 0.0440254 25.3792Z" fill="#3C3CA3"/>
<path fill-rule="evenodd" clip-rule="evenodd" d="M0.00117111 23.6972C0.00117111 23.9978 -0.00374222 24.2985 0.0121269 24.5951C0.020031 24.8601 0.0427856 25.1212 0.0427856 25.3783V25.3902C0.0427856 25.5088 0.0714645 25.6275 0.0793686 25.7462C0.0833206 25.7778 0.0917625 25.8135 0.0957146 25.8451C0.0996666 25.9163 0.109848 25.9835 0.117752 26.0508C0.121166 26.0875 0.128647 26.1234 0.132359 26.1601C0.163975 26.4741 0.203312 26.7861 0.24876 27.0962C0.252354 27.1206 0.254509 27.1459 0.258163 27.1702C0.273968 27.2849 0.290016 27.3997 0.309776 27.5104C0.313728 27.546 0.317738 27.5816 0.325642 27.6172C0.341511 27.7121 0.357376 27.8031 0.377136 27.8941C0.40881 28.084 0.444435 28.2778 0.484016 28.4676C0.484016 28.4716 0.484016 28.4755 0.487968 28.4795C0.527546 28.6733 0.571075 28.8632 0.614666 29.057C0.622509 29.0925 0.630413 29.1279 0.642208 29.1634C2.66615 37.7312 9.35113 44.4979 17.8762 46.6458C17.9022 46.6524 17.9283 46.6585 17.9543 46.665C18.2894 46.7482 18.6272 46.8241 18.9677 46.8929C19.0339 46.9064 19.0997 46.9205 19.166 46.9334C19.5398 47.0055 19.9156 47.0719 20.2954 47.1262C20.331 47.1303 20.3667 47.1382 20.4023 47.1422C20.6595 47.1777 20.9168 47.2093 21.1739 47.2331C21.4471 47.2647 21.7241 47.2884 22.0011 47.3082C22.2504 47.324 22.4998 47.3399 22.7491 47.3478C22.7966 47.3517 22.848 47.3517 22.8994 47.3517C23.1607 47.3636 23.4219 47.3675 23.683 47.3675C28.2026 47.3675 32.4332 46.0899 36.0305 43.8827C37.764 42.8186 39.347 41.541 40.744 40.0853C41.8125 38.9777 42.7702 37.7673 43.6092 36.4699C44.286 35.4216 44.8796 34.318 45.3861 33.1669C45.4495 33.0205 45.5128 32.8703 45.5722 32.7239C45.5801 32.7041 45.588 32.6883 45.5959 32.6685C46.0629 31.5372 46.4428 30.3703 46.7277 29.1638C46.7396 29.1282 46.7475 29.0926 46.7554 29.057C46.8979 28.44 47.0166 27.819 47.1116 27.1861C47.1472 26.9249 47.1789 26.6678 47.2066 26.4107C47.2422 26.0745 47.2739 25.7422 47.2976 25.4337C47.3055 25.3744 47.3095 25.3562 47.3134 25.2969C47.3134 25.281 47.3174 25.2905 47.3174 25.2905H22.4628L22.4641 0.0996094C22.4641 0.0996094 21.6647 0.130431 21.2689 0.16999C20.8693 0.209549 20.4735 0.250725 20.0778 0.310033C19.6899 0.369342 19.306 0.431464 18.9221 0.514533C9.66548 2.40135 2.3718 9.68898 0.484013 18.9412C0.400902 19.3249 0.333664 19.7073 0.274265 20.095C0.214928 20.4905 0.163494 20.8854 0.123856 21.2849C0.0843391 21.6805 0.0526619 22.0797 0.0329056 22.4792C0.0130844 22.8827 0.00117111 23.2898 0.00117111 23.6972Z" fill="#F02449"/>
<path fill-rule="evenodd" clip-rule="evenodd" d="M12.1688 3.01367C10.3082 4.05107 8.60203 5.33211 7.0935 6.81339H22.4824V3.01367H12.1688Z" fill="#FAEFE1"/>
<path fill-rule="evenodd" clip-rule="evenodd" d="M4.07561 10.4277C3.26583 11.621 2.56307 12.8928 1.97927 14.2278H22.4824V10.4277H4.07561Z" fill="#FAEFE1"/>
<path fill-rule="evenodd" clip-rule="evenodd" d="M0.73671 17.8428C0.423018 19.0733 0.207403 20.3432 0.0951939 21.6427H22.4824V17.8428H0.73671Z" fill="#FAEFE1"/>
<path fill-rule="evenodd" clip-rule="evenodd" d="M0.0546684 25.292C0.0586205 25.292 0.0665245 25.4447 0.0744858 25.5317C0.0863419 25.7176 0.102089 25.8909 0.121967 26.0728C0.157536 26.4486 0.205074 26.8161 0.26046 27.184C0.276268 27.2987 0.292137 27.4072 0.311893 27.518C0.331715 27.6486 0.351475 27.8048 0.3792 27.9274C0.446438 28.319 0.525593 28.6947 0.612656 29.12H46.7574C47.0424 27.844 47.2363 26.1427 47.3154 25.292L0.0546684 25.292Z" fill="#FAEFE1"/>
<path fill-rule="evenodd" clip-rule="evenodd" d="M1.76805 32.5215C2.31419 33.7975 2.9751 35.0735 3.74685 36.3495H43.611C44.3827 35.0735 45.0515 33.7975 45.5977 32.5215H1.76805Z" fill="#FAEFE1"/>
<path fill-rule="evenodd" clip-rule="evenodd" d="M6.59958 40.1777C8.00051 41.4537 9.58353 43.1551 11.317 43.5804H36.0317C37.7651 43.1551 39.3481 41.4537 40.7451 40.1777H6.59958Z" fill="#FAEFE1"/>
<path fill-rule="evenodd" clip-rule="evenodd" d="M35.596 4.43005L35.3427 5.90943L36.6645 5.21328L37.9863 5.90943L37.7687 4.63575C37.0721 4.24417 36.3479 3.66664 35.596 3.22754L34.5235 3.38183L35.596 4.43005Z" fill="#FAEFE1"/>
<path fill-rule="evenodd" clip-rule="evenodd" d="M29.2984 1.82227L28.6374 3.16818L27.1593 3.38399L28.2288 4.43168L27.9763 5.91093L29.2984 5.21257L30.6204 5.91093L30.3679 4.43168L31.4375 3.38399L29.9594 3.16818L29.2984 1.82227Z" fill="#FAEFE1"/>
<path fill-rule="evenodd" clip-rule="evenodd" d="M40.2662 7.74219L39.6051 9.08816L38.1271 9.30397L39.1966 10.3516L38.9442 11.8309L40.2662 11.1324L41.5882 11.8309L41.3358 10.3516L42.4053 9.30397L40.9272 9.08816L40.2662 7.74219Z" fill="#FAEFE1"/>
<path fill-rule="evenodd" clip-rule="evenodd" d="M33.065 7.74219L32.404 9.08816L30.9259 9.30397L31.9954 10.3516L31.7429 11.8309L33.065 11.1324L34.387 11.8309L34.1345 10.3516L35.2041 9.30397L33.726 9.08816L33.065 7.74219Z" fill="#FAEFE1"/>
<path fill-rule="evenodd" clip-rule="evenodd" d="M25.8649 7.74219L25.2038 9.08816L23.7257 9.30397L24.7953 10.3516L24.5428 11.8309L25.8649 11.1324L27.1869 11.8309L26.9344 10.3516L28.0039 9.30397L26.5259 9.08816L25.8649 7.74219Z" fill="#FAEFE1"/>
<path fill-rule="evenodd" clip-rule="evenodd" d="M42.9574 15.6136L42.7081 17.093L44.0299 16.3968L45.3517 17.093L45.0984 15.6136L45.7158 15.0084C45.6406 14.8264 45.5654 14.6484 45.4903 14.4665L44.6909 14.3517L44.0299 13.0068L43.369 14.3517L41.8889 14.5653L42.9574 15.6136Z" fill="#FAEFE1"/>
<path fill-rule="evenodd" clip-rule="evenodd" d="M36.6646 13.0049L36.0036 14.3509L34.5255 14.5667L35.595 15.6144L35.3426 17.0936L36.6646 16.3952L37.9867 17.0936L37.7342 15.6144L38.8037 14.5667L37.3257 14.3509L36.6646 13.0049Z" fill="#FAEFE1"/>
<path fill-rule="evenodd" clip-rule="evenodd" d="M29.3004 13.0049L28.6393 14.3509L27.1612 14.5667L28.2308 15.6144L27.9783 17.0936L29.3004 16.3952L30.6224 17.0936L30.3699 15.6144L31.4395 14.5667L29.9613 14.3509L29.3004 13.0049Z" fill="#FAEFE1"/>
<path fill-rule="evenodd" clip-rule="evenodd" d="M46.3961 21.5345L46.1428 23.0139L47.3301 22.385C47.2865 21.5029 47.1876 20.6366 47.0412 19.7861L46.8037 20.2727L45.3276 20.4863L46.3961 21.5345Z" fill="#FAEFE1"/>
<path fill-rule="evenodd" clip-rule="evenodd" d="M40.2633 18.9248L39.6022 20.2707L38.1242 20.4865L39.1937 21.5342L38.9412 23.0135L40.2633 22.315L41.5853 23.0135L41.3328 21.5342L42.4023 20.4865L40.9243 20.2707L40.2633 18.9248Z" fill="#FAEFE1"/>
<path fill-rule="evenodd" clip-rule="evenodd" d="M33.064 18.9248L32.403 20.2707L30.9249 20.4865L31.9945 21.5342L31.742 23.0135L33.064 22.315L34.3861 23.0135L34.1336 21.5342L35.2031 20.4865L33.725 20.2707L33.064 18.9248Z" fill="#FAEFE1"/>
<path fill-rule="evenodd" clip-rule="evenodd" d="M25.8629 18.9248L25.2019 20.2707L23.7238 20.4865L24.7934 21.5342L24.5409 23.0135L25.8629 22.315L27.1849 23.0135L26.9324 21.5342L28.002 20.4865L26.5239 20.2707L25.8629 18.9248Z" fill="#FAEFE1"/>
</svg>
