<svg width="40" height="40" viewBox="0 0 40 40" fill="none" xmlns="http://www.w3.org/2000/svg">
<g clip-path="url(#clip0_1730_770)">
<mask id="mask0_1730_770" style="mask-type:luminance" maskUnits="userSpaceOnUse" x="0" y="0" width="40" height="40">
<path d="M0 0H40V40H0V0Z" fill="white"/>
</mask>
<g mask="url(#mask0_1730_770)">
<path d="M31.6673 0H8.33398C4.19898 0 0.833984 3.365 0.833984 7.5V39.1667C0.833984 39.5167 1.05398 39.83 1.38398 39.95C1.47732 39.9833 1.57232 40 1.66732 40C1.91065 40 2.14565 39.895 2.30732 39.7L10.3907 30H31.6673C35.8023 30 39.1673 26.635 39.1673 22.5V7.5C39.1673 3.365 35.8023 0 31.6673 0ZM11.6673 18.3333C10.289 18.3333 9.16732 17.2117 9.16732 15.8333C9.16732 14.455 10.289 13.3333 11.6673 13.3333C13.0457 13.3333 14.1673 14.455 14.1673 15.8333C14.1673 17.2117 13.0457 18.3333 11.6673 18.3333ZM20.0007 18.3333C18.6223 18.3333 17.5007 17.2117 17.5007 15.8333C17.5007 14.455 18.6223 13.3333 20.0007 13.3333C21.379 13.3333 22.5007 14.455 22.5007 15.8333C22.5007 17.2117 21.379 18.3333 20.0007 18.3333ZM28.334 18.3333C26.9557 18.3333 25.834 17.2117 25.834 15.8333C25.834 14.455 26.9557 13.3333 28.334 13.3333C29.7123 13.3333 30.834 14.455 30.834 15.8333C30.834 17.2117 29.7123 18.3333 28.334 18.3333Z" fill="url(#paint0_linear_1730_770)"/>
</g>
</g>
<defs>
<linearGradient id="paint0_linear_1730_770" x1="20.0007" y1="0" x2="20.0007" y2="40" gradientUnits="userSpaceOnUse">
<stop stop-color="#003AFF"/>
<stop offset="1" stop-color="#90A8F9"/>
</linearGradient>
<clipPath id="clip0_1730_770">
<rect width="40" height="40" fill="white"/>
</clipPath>
</defs>
</svg>
