<svg width="179" height="107" viewBox="0 0 179 107" fill="none" xmlns="http://www.w3.org/2000/svg">
<g clip-path="url(#clip0_2012_1478)">
<path d="M123.145 44.4559C118.131 34.0547 106.847 26.0124 89.1656 26.0124C71.4842 26.0124 60.2006 34.0547 55.1861 44.4559H50.7354V48.8756H127.596V44.4559H123.145ZM89.1571 44.4559H58.6954C67.6916 31.9668 84.2507 30.9846 89.1656 30.9839C94.0806 30.9839 110.64 31.9668 119.636 44.4559H89.1571Z" fill="#1800A9"/>
<path d="M51.9405 64.5168C51.6102 63.6759 51.1397 62.9366 50.5293 62.2977C49.9176 61.66 49.1856 61.1569 48.332 60.7898C47.4783 60.4226 46.5178 60.239 45.4505 60.239C44.4028 60.239 43.4522 60.4226 42.5985 60.7898C41.7449 61.1569 41.0165 61.66 40.4159 62.2977C39.8141 62.9354 39.3486 63.6759 39.0194 64.5168C38.689 65.3577 38.5244 66.2426 38.5244 67.1703C38.5244 68.0982 38.689 68.9782 39.0194 69.8093C39.3486 70.6403 39.8153 71.3759 40.4159 72.0137C41.0165 72.6513 41.7449 73.1544 42.5985 73.5216C43.4522 73.8888 44.4028 74.0724 45.4505 74.0724C46.5178 74.0724 47.4783 73.8888 48.332 73.5216C49.1856 73.1544 49.9176 72.6513 50.5293 72.0137C51.141 71.3759 51.6102 70.6415 51.9405 69.8093C52.2697 68.9782 52.4355 68.0982 52.4355 67.1703C52.4355 66.2426 52.2697 65.3577 51.9405 64.5168ZM49.6118 68.9684C49.3981 69.529 49.0971 70.0173 48.709 70.4335C48.3209 70.8497 47.8505 71.1826 47.2978 71.4335C46.7451 71.6856 46.1285 71.8105 45.4493 71.8105C44.7701 71.8105 44.1584 71.6856 43.6155 71.4335C43.0726 71.1826 42.6108 70.8484 42.2325 70.4335C41.8542 70.0173 41.5582 69.5302 41.3445 68.9684C41.1308 68.4078 41.0239 67.8081 41.0239 67.1703C41.0239 66.5327 41.1308 65.9329 41.3445 65.3723C41.5582 64.8118 41.8542 64.3185 42.2325 63.8938C42.6108 63.469 43.0714 63.13 43.6155 62.8791C44.1584 62.6282 44.7701 62.5021 45.4493 62.5021C46.1285 62.5021 46.7439 62.6282 47.2978 62.8791C47.8505 63.13 48.3209 63.469 48.709 63.8938C49.0971 64.3197 49.3981 64.8118 49.6118 65.3723C49.8255 65.9329 49.9324 66.5327 49.9324 67.1703C49.9324 67.8081 49.8255 68.4078 49.6118 68.9684Z" fill="#1800A9"/>
<path d="M58.432 62.8497C58.8582 62.0369 59.4896 61.3993 60.3235 60.9354C61.1575 60.4715 62.0603 60.239 63.0306 60.239C64.039 60.239 64.9663 60.4225 65.8101 60.7898C66.6539 61.1569 67.3712 61.66 67.9632 62.2977C68.5552 62.9354 69.0158 63.6759 69.345 64.5168C69.6742 65.3576 69.84 66.2426 69.84 67.1703C69.84 68.0981 69.6754 68.9782 69.345 69.8092C69.0146 70.6403 68.554 71.3759 67.9632 72.0136C67.3712 72.6513 66.6539 73.1544 65.8101 73.5216C64.9663 73.8887 64.039 74.0723 63.0306 74.0723C62.0603 74.0723 61.1575 73.8398 60.3235 73.3759C59.4896 72.912 58.8582 72.2743 58.432 71.4616V80.8877H55.8994V60.5878H58.432V62.8497ZM62.9139 62.5021C62.2347 62.5021 61.6194 62.6281 61.0654 62.879C60.5127 63.13 60.0422 63.469 59.6541 63.8937C59.266 64.3197 58.9651 64.8117 58.7514 65.3723C58.5377 65.9329 58.4308 66.5327 58.4308 67.1703C58.4308 67.808 58.5377 68.4078 58.7514 68.9683C58.9651 69.5289 59.2648 70.0173 59.6541 70.4335C60.0422 70.8496 60.5127 71.1825 61.0654 71.4335C61.6181 71.6856 62.2347 71.8104 62.9139 71.8104C63.5735 71.8104 64.1753 71.6856 64.7182 71.4335C65.2611 71.1825 65.7217 70.8484 66.1012 70.4335C66.4795 70.0173 66.7755 69.5301 66.9892 68.9683C67.2029 68.4078 67.3098 67.808 67.3098 67.1703C67.3098 66.5327 67.2029 65.9329 66.9892 65.3723C66.7755 64.8117 66.4795 64.3185 66.1012 63.8937C65.7229 63.469 65.2611 63.13 64.7182 62.879C64.1753 62.6281 63.5735 62.5021 62.9139 62.5021Z" fill="#1800A9"/>
<path d="M78.9125 66.4164C79.4171 66.5718 79.9063 66.7359 80.3828 66.9097C80.8582 67.0835 81.2795 67.3062 81.6488 67.5767C82.0176 67.8472 82.3136 68.1862 82.537 68.5914C82.7593 68.9978 82.8724 69.5094 82.8724 70.1287C82.8724 70.786 82.7408 71.3613 82.4792 71.8545C82.2176 72.3478 81.8541 72.7591 81.3872 73.087C80.9219 73.4163 80.3727 73.6623 79.7429 73.8264C79.1114 73.9904 78.4286 74.0724 77.6905 74.0724C76.9535 74.0724 76.2547 73.9757 75.595 73.7823C74.9354 73.5889 74.3581 73.2939 73.8632 72.8973C73.3682 72.5008 72.9702 72.0038 72.6705 71.4041C72.3696 70.8056 72.2197 70.1091 72.2197 69.316H74.6934C74.6934 70.3209 74.9895 71.032 75.5815 71.4482C76.1735 71.8643 76.9153 72.0712 77.8083 72.0712C78.6238 72.0712 79.2685 71.9218 79.7439 71.622C80.2193 71.3221 80.4576 70.8435 80.4576 70.1862C80.4576 69.8191 80.3605 69.5241 80.1663 69.3013C79.9726 69.0797 79.6962 68.8802 79.3375 68.7064C78.9777 68.5326 78.5368 68.3723 78.0136 68.2279C77.4889 68.0822 76.8967 67.8937 76.2388 67.6624C75.7336 67.5082 75.2634 67.3429 74.8273 67.1691C74.3913 66.9953 74.0118 66.7726 73.6924 66.502C73.3718 66.2316 73.1201 65.9035 72.9358 65.5155C72.7516 65.1288 72.6595 64.6355 72.6595 64.037C72.6595 63.4189 72.786 62.873 73.0378 62.3981C73.2896 61.9244 73.6384 61.5278 74.0855 61.2096C74.5313 60.8901 75.0558 60.649 75.6578 60.485C76.2584 60.321 76.8994 60.239 77.5785 60.239C78.2959 60.239 78.9655 60.3454 79.5869 60.5584C80.2071 60.7714 80.7462 61.0762 81.202 61.4715C81.6578 61.8681 82.0165 62.3369 82.2791 62.8779C82.5407 63.4189 82.6723 64.0186 82.6723 64.6759H80.2278C80.2278 63.9023 79.9997 63.3087 79.5439 62.8926C79.0881 62.4776 78.4238 62.2695 77.5504 62.2695C76.8516 62.2695 76.269 62.425 75.8037 62.7334C75.3383 63.0431 75.1049 63.4972 75.1049 64.0969C75.1049 64.4262 75.1872 64.6967 75.3518 64.9085C75.5164 65.1214 75.7633 65.305 76.0934 65.4592C76.4229 65.6147 76.8208 65.764 77.2862 65.9085C77.7494 66.0541 78.2922 66.223 78.9125 66.4164Z" fill="#1800A9"/>
<path d="M95.7687 65.376C95.6716 64.5633 95.3463 63.8827 94.7934 63.3307C94.2411 62.78 93.3428 62.5045 92.1012 62.5045C91.422 62.5045 90.8251 62.6306 90.312 62.8815C89.7973 63.1324 89.3707 63.4764 89.0306 63.9109C88.6905 64.3454 88.4336 64.8436 88.2591 65.4041C88.085 65.9647 87.9975 66.5547 87.9975 67.1728C87.9975 67.7921 88.0803 68.3809 88.2447 68.9414C88.4092 69.502 88.6671 69.9953 89.0157 70.4213C89.3649 70.8472 89.8068 71.185 90.3401 71.4359C90.8728 71.6881 91.508 71.8129 92.246 71.8129C93.3518 71.8129 94.1673 71.5816 94.6905 71.1165C95.2137 70.6526 95.5819 70.0247 95.7957 69.2316H98.3283C98.2312 69.9084 98.0275 70.5412 97.7171 71.1312C97.4061 71.7211 96.9933 72.2327 96.4802 72.6685C95.9655 73.103 95.34 73.4469 94.6035 73.6978C93.8649 73.9488 93.0212 74.0748 92.0704 74.0748C90.9837 74.0748 90.0329 73.8814 89.2184 73.4947C88.4029 73.1079 87.7152 72.5963 87.1528 71.9574C86.5903 71.3196 86.1674 70.5852 85.8862 69.753C85.605 68.9219 85.4639 68.0614 85.4639 67.1716C85.4639 66.283 85.6039 65.4213 85.8862 64.5902C86.1674 63.7591 86.585 63.0199 87.1379 62.3711C87.6908 61.7237 88.3795 61.2071 89.2041 60.8191C90.0281 60.4324 90.9736 60.239 92.0412 60.239C93.1082 60.239 94.0246 60.3895 94.7913 60.6882C95.5575 60.988 96.1879 61.3748 96.6824 61.8485C97.1774 62.3222 97.5557 62.868 97.8173 63.4874C98.0789 64.1067 98.2402 64.7346 98.2975 65.3723H95.7687V65.376Z" fill="#1800A9"/>
<path d="M107.591 74.0724C106.544 74.0724 105.593 73.8887 104.739 73.5216C103.885 73.1544 103.157 72.6513 102.557 72.0136C101.954 71.3759 101.489 70.6415 101.16 69.8093C100.83 68.9782 100.665 68.0982 100.665 67.1703C100.665 66.2426 100.83 65.3577 101.16 64.5168C101.489 63.6759 101.956 62.9366 102.557 62.2977C103.157 61.66 103.885 61.1569 104.739 60.7898C105.593 60.4225 106.544 60.239 107.591 60.239C108.659 60.239 109.619 60.4225 110.473 60.7898C111.326 61.1569 112.058 61.66 112.67 62.2977C113.282 62.9354 113.751 63.6759 114.081 64.5168C114.41 65.3577 114.576 66.2426 114.576 67.1703C114.576 68.0982 114.411 68.9782 114.081 69.8093C113.751 70.6403 113.28 71.3759 112.67 72.0136C112.058 72.6513 111.326 73.1544 110.473 73.5216C109.618 73.8875 108.657 74.0724 107.591 74.0724ZM107.591 71.8092C108.27 71.8092 108.886 71.6844 109.44 71.4322C109.992 71.1813 110.463 70.8472 110.851 70.4323C111.239 70.0161 111.54 69.529 111.754 68.9672C111.967 68.4066 112.074 67.8068 112.074 67.1691C112.074 66.5314 111.967 65.9317 111.754 65.3711C111.54 64.8105 111.239 64.3173 110.851 63.8925C110.463 63.4678 109.992 63.1288 109.44 62.8779C108.887 62.6269 108.27 62.5009 107.591 62.5009C106.912 62.5009 106.3 62.6269 105.757 62.8779C105.214 63.1288 104.753 63.4678 104.374 63.8925C103.996 64.3185 103.7 64.8105 103.486 65.3711C103.272 65.9317 103.166 66.5314 103.166 67.1691C103.166 67.8068 103.272 68.4066 103.486 68.9672C103.7 69.5278 103.996 70.0161 104.374 70.4323C104.753 70.8484 105.213 71.1813 105.757 71.4322C106.3 71.6844 106.911 71.8092 107.591 71.8092Z" fill="#1800A9"/>
<path d="M125.218 73.752C124.967 73.79 124.631 73.8291 124.214 73.8683C123.796 73.9062 123.375 73.9258 122.947 73.9258C122.54 73.9258 122.094 73.8866 121.609 73.8095C121.124 73.7324 120.673 73.5439 120.255 73.2441C119.837 72.9442 119.489 72.4852 119.208 71.8671C118.926 71.249 118.785 70.3983 118.785 69.3151V62.7019H116.341V60.5844H118.785V53.4499H121.318V60.5844H124.752V62.7019H121.318V68.7435C121.318 69.38 121.37 69.8855 121.477 70.2612C121.584 70.637 121.734 70.9271 121.928 71.129C122.122 71.331 122.35 71.4607 122.612 71.5195C122.874 71.577 123.17 71.6063 123.5 71.6063C123.772 71.6063 124.078 71.6063 124.417 71.6063C124.756 71.6063 125.022 71.577 125.217 71.5195V73.752H125.218Z" fill="#1800A9"/>
<path d="M137.214 65.376C137.116 64.5633 136.791 63.8827 136.238 63.3307C135.685 62.78 134.788 62.5045 133.546 62.5045C132.867 62.5045 132.27 62.6306 131.756 62.8815C131.242 63.1324 130.816 63.4764 130.475 63.9109C130.135 64.3454 129.879 64.8436 129.704 65.4041C129.529 65.9647 129.442 66.5547 129.442 67.1728C129.442 67.7921 129.525 68.3809 129.689 68.9414C129.854 69.502 130.111 69.9953 130.461 70.4213C130.809 70.8472 131.25 71.185 131.784 71.4359C132.318 71.6881 132.953 71.8129 133.691 71.8129C134.796 71.8129 135.612 71.5816 136.135 71.1165C136.658 70.6526 137.027 70.0247 137.241 69.2316H139.773C139.676 69.9084 139.472 70.5412 139.161 71.1312C138.85 71.7211 138.438 72.2327 137.925 72.6685C137.41 73.103 136.785 73.4469 136.048 73.6978C135.31 73.9488 134.466 74.0748 133.515 74.0748C132.428 74.0748 131.478 73.8814 130.663 73.4947C129.848 73.1079 129.16 72.5963 128.597 71.9574C128.035 71.3196 127.612 70.5852 127.331 69.753C127.05 68.9219 126.908 68.0614 126.908 67.1716C126.908 66.283 127.048 65.4213 127.331 64.5902C127.612 63.7591 128.03 63.0199 128.582 62.3711C129.135 61.7237 129.824 61.2071 130.648 60.8191C131.472 60.4324 132.419 60.239 133.486 60.239C134.553 60.239 135.469 60.3895 136.236 60.6882C137.002 60.988 137.632 61.3748 138.127 61.8485C138.622 62.3222 139.001 62.868 139.262 63.4874C139.524 64.1067 139.685 64.7346 139.742 65.3723H137.214V65.376Z" fill="#1800A9"/>
<path d="M143.331 53.4499H145.864V62.9051C146.252 62.0936 146.844 61.4449 147.639 60.9614C148.434 60.4779 149.395 60.2368 150.52 60.2368C151.451 60.2368 152.247 60.3874 152.906 60.6861C153.566 60.9859 154.089 61.4155 154.479 61.9761C154.847 62.4792 155.109 63.0397 155.265 63.6578C155.419 64.2772 155.498 65.0495 155.498 65.9785V73.7508H152.965V66.7606C152.965 66.1621 152.907 65.5966 152.791 65.0642C152.675 64.533 152.485 64.0777 152.223 63.7007C151.962 63.3237 151.617 63.0239 151.19 62.8023C150.763 62.5808 150.24 62.4681 149.618 62.4681C148.978 62.4681 148.424 62.5942 147.959 62.8451C147.494 63.096 147.105 63.4302 146.795 63.8451C146.484 64.2613 146.252 64.7398 146.096 65.2809C145.94 65.8231 145.863 66.3824 145.863 66.9626V73.7496H143.33V53.4499H143.331Z" fill="#1800A9"/>
<path d="M22.8418 53.4499H25.3744V62.9051C25.7626 62.0936 26.3546 61.4449 27.1493 60.9614C27.9452 60.4779 28.9056 60.2368 30.0307 60.2368C30.9617 60.2368 31.7576 60.3874 32.4172 60.6861C33.0768 60.9859 33.6 61.4155 33.9894 61.9761C34.3578 62.4792 34.6195 63.0397 34.7754 63.6578C34.9302 64.2772 35.0088 65.0495 35.0088 65.9785V73.7508H32.4749V66.7606C32.4749 66.1621 32.4172 65.5966 32.3005 65.0642C32.1838 64.533 31.9947 64.0777 31.733 63.7007C31.4715 63.3237 31.1263 63.0239 30.7001 62.8023C30.2727 62.5808 29.7494 62.4681 29.1279 62.4681C28.488 62.4681 27.9341 62.5942 27.4686 62.8451C27.0031 63.096 26.615 63.4302 26.3042 63.8451C25.9935 64.2613 25.7613 64.7398 25.6053 65.2809C25.4494 65.8231 25.372 66.3824 25.372 66.9626V73.7496H22.8418V53.4499Z" fill="#1800A9"/>
</g>
<defs>
<clipPath id="clip0_2012_1478">
<rect width="133.181" height="54.9909" fill="white" transform="translate(22.5762 26.0046)"/>
</clipPath>
</defs>
</svg>
