<svg width="47" height="47" viewBox="0 0 47 47" fill="none" xmlns="http://www.w3.org/2000/svg">
<path d="M23.7368 0.473633C36.5567 0.473633 46.9483 10.8662 46.9483 23.6859C46.9483 36.5038 36.5565 46.8952 23.7368 46.8952C10.9181 46.8952 0.526367 36.5036 0.526367 23.6859C0.526367 10.8662 10.9181 0.473633 23.7368 0.473633Z" fill="#D6D4D1"/>
<mask id="mask0_1743_2005" style="mask-type:luminance" maskUnits="userSpaceOnUse" x="1" y="1" width="46" height="46">
<path d="M23.7336 1.04102C36.2395 1.04102 46.3776 11.179 46.3776 23.6858C46.3776 36.1915 36.2395 46.3294 23.7336 46.3294C11.2279 46.3294 1.08984 36.1915 1.08984 23.6858C1.08984 11.1791 11.2279 1.04102 23.7336 1.04102Z" fill="white"/>
</mask>
<g mask="url(#mask0_1743_2005)">
<path d="M-10.2217 31.0381H57.7176V46.3251H-10.2217V31.0381Z" fill="#11892E"/>
<path d="M-10.2217 1.03027H57.7176V16.3163H-10.2217V1.03027Z" fill="#F2963B"/>
<path d="M-10.2266 16.3203H57.7165V31.0417H-10.2266V16.3203Z" fill="white"/>
<path d="M29.9198 22.8693C29.4693 19.4581 26.3428 17.0571 22.9335 17.5068C19.5193 17.9573 17.1215 21.0837 17.5682 24.4919C18.0177 27.9011 21.1451 30.3002 24.5583 29.8556C27.9696 29.4029 30.3685 26.2784 29.9198 22.8693ZM29.1827 24.0823C29.0149 24.0668 28.8588 24.1837 28.8393 24.3515C28.8159 24.5193 28.929 24.6714 29.0968 24.6986C29.0732 24.8274 29.0421 24.9541 29.0109 25.0771L26.1634 24.1448L24.8116 23.8794C24.8215 23.8405 24.8292 23.8014 24.8332 23.7625L26.1985 23.8599L29.1942 23.6961C29.1944 23.825 29.1867 23.9536 29.1827 24.0823ZM18.3113 23.2789C18.4791 23.2944 18.6311 23.1774 18.6547 23.0096C18.6791 22.8419 18.561 22.6898 18.3934 22.6624C18.4178 22.5337 18.447 22.4089 18.4792 22.2831L21.3278 23.2143L22.6803 23.4796C22.6727 23.5166 22.6648 23.5536 22.6608 23.5984L21.2917 23.5009L18.2998 23.6647C18.2996 23.5362 18.3035 23.4075 18.3113 23.2789ZM18.3932 24.6986C18.561 24.6714 18.6789 24.5193 18.6545 24.3515C18.631 24.1837 18.4789 24.0648 18.3111 24.0823C18.3035 23.9536 18.2994 23.825 18.2994 23.6963L21.2913 23.8601L22.6645 23.7626C22.6683 23.7822 22.6645 23.8016 22.6683 23.8251C22.6683 23.8445 22.676 23.8602 22.68 23.8776L21.3274 24.143L18.4789 25.0773C18.4468 24.9523 18.4214 24.8274 18.3932 24.6986ZM26.1986 23.5013L24.8295 23.5987C24.8257 23.5793 24.8295 23.5598 24.8257 23.5384C24.8257 23.517 24.8158 23.4974 24.812 23.4837L26.1637 23.2185L29.0112 22.2882C29.0425 22.4131 29.0736 22.5399 29.0971 22.6666C28.9293 22.694 28.8162 22.846 28.8396 23.0138C28.8592 23.1816 29.0112 23.2986 29.179 23.2829C29.1869 23.4117 29.1945 23.5404 29.1945 23.6692L26.1986 23.5013ZM28.8901 21.8862C28.929 22.008 28.972 22.13 29.007 22.2558L26.0698 22.8751L24.7767 23.3198C24.7593 23.2827 24.7396 23.2514 24.7261 23.2105L25.9625 22.6079L28.4706 20.9716C28.537 21.0837 28.5975 21.1949 28.656 21.3128C28.5037 21.383 28.4297 21.5605 28.496 21.7166C28.5547 21.8696 28.7342 21.9457 28.8901 21.8862ZM27.8214 20.5562C27.9227 20.6878 28.1139 20.7141 28.2465 20.6177C28.3246 20.7239 28.3908 20.8322 28.4553 20.9434L25.7832 22.2999L24.6444 23.0683C24.6208 23.037 24.6034 23.002 24.576 22.9709L25.6099 22.0698L27.611 19.8396C27.7006 19.9312 27.7903 20.0249 27.8762 20.1254C27.7395 20.2303 27.7198 20.4205 27.8214 20.5562ZM26.8734 19.6053C27.0061 19.7096 27.1973 19.6834 27.3024 19.5555C27.4 19.6394 27.4937 19.7271 27.5871 19.8189L25.3579 21.82L24.4529 22.8576C24.4198 22.8302 24.3944 22.8088 24.3593 22.7834L25.1315 21.6444L26.4871 18.9723C26.5962 19.0356 26.7035 19.1058 26.8128 19.18C26.7135 19.3137 26.7369 19.5039 26.8734 19.6053ZM25.711 18.9344C25.8671 18.9987 26.0426 18.9265 26.1127 18.7745C26.2297 18.8309 26.3467 18.8924 26.4561 18.9558L24.8177 21.4669L24.2169 22.6977C24.1818 22.6819 24.1429 22.6702 24.1038 22.6587L24.5563 21.3568L25.1687 18.4254C25.2954 18.4595 25.4182 18.4976 25.5451 18.5403C25.4809 18.6944 25.5549 18.87 25.711 18.9344ZM24.1469 18.2479C24.1312 18.4127 24.2481 18.5649 24.4159 18.5873C24.5837 18.6087 24.7358 18.4947 24.7632 18.3269C24.8918 18.3533 25.0167 18.3816 25.1415 18.4157L24.2094 21.2632L23.948 22.6158C23.9051 22.6079 23.87 22.5962 23.827 22.5924L23.9245 21.2233L23.7609 18.2314C23.8894 18.2312 24.0221 18.2372 24.1469 18.2479ZM23.0742 18.5871C23.2418 18.5647 23.3648 18.4127 23.3473 18.2477C23.4741 18.237 23.6048 18.2332 23.7294 18.2312L23.5695 21.2231L23.6631 22.5962C23.6437 22.6001 23.6242 22.5962 23.6046 22.6001C23.5851 22.6001 23.5637 22.6118 23.5441 22.6158L23.2828 21.2632L22.3496 18.4127C22.4753 18.3814 22.5983 18.3532 22.727 18.3268C22.7542 18.4946 22.9064 18.6087 23.0742 18.5871ZM21.7791 18.9344C21.938 18.87 22.0082 18.6926 21.9507 18.5345C22.0726 18.4925 22.1966 18.4565 22.3224 18.4232L22.9377 21.3546L23.3844 22.6507C23.3473 22.6662 23.3142 22.6858 23.2791 22.7015L22.6727 21.4649L21.0402 18.9518C21.1493 18.8903 21.2616 18.8279 21.3796 18.7723C21.4474 18.9265 21.6231 18.9987 21.7791 18.9344ZM20.6206 19.6053C20.7523 19.5039 20.7805 19.3137 20.6781 19.1762C20.7882 19.104 20.8916 19.0358 21.0096 18.9705L22.3593 21.6425L23.1325 22.7835C23.1013 22.8069 23.0664 22.8303 23.0351 22.8537L22.1341 21.8182L19.9028 19.817C20.0013 19.7255 20.091 19.6376 20.1924 19.5537C20.2929 19.6834 20.484 19.7096 20.6206 19.6053ZM19.6737 20.5562C19.7752 20.4226 19.7518 20.2323 19.6239 20.1252C19.702 20.0266 19.7956 19.933 19.8853 19.8394L21.8864 22.0697L22.926 22.9747C22.9006 23.002 22.8752 23.0372 22.8518 23.0683L21.7128 22.2999L19.0407 20.9434C19.1022 20.8321 19.1724 20.7219 19.2484 20.6157C19.3763 20.7141 19.5713 20.6878 19.6737 20.5562ZM18.9988 21.7166C19.0641 21.5605 18.9949 21.383 18.8389 21.3128C18.8965 21.1969 18.9568 21.0837 19.0222 20.9716L21.5313 22.6079L22.7659 23.2105C22.7504 23.2476 22.7347 23.2827 22.725 23.3255L21.423 22.875L18.4886 22.2577C18.5247 22.1318 18.5626 22.01 18.6027 21.886C18.757 21.9457 18.9345 21.8696 18.9988 21.7166ZM18.5989 25.475C18.559 25.354 18.5209 25.2292 18.4848 25.1043L21.4192 24.486L22.7171 24.0414C22.7288 24.0785 22.7504 24.1097 22.7621 24.1468L21.5265 24.7534L19.0183 26.3897C18.953 26.2748 18.8927 26.1653 18.835 26.0465C18.9901 25.9802 19.0603 25.8007 18.9949 25.6448C18.9345 25.4904 18.757 25.4125 18.5989 25.475ZM19.6737 26.805C19.5713 26.6725 19.3783 26.6489 19.2446 26.7465C19.1706 26.6374 19.1002 26.5281 19.0369 26.4188L21.7089 25.0614L22.848 24.2929C22.8713 24.3241 22.8927 24.3592 22.922 24.3905L21.8824 25.2915L19.8813 27.5189C19.7915 27.4291 19.7018 27.3354 19.6201 27.238C19.7516 27.1287 19.7732 26.9415 19.6737 26.805ZM20.6206 27.7568C20.484 27.6496 20.2929 27.6788 20.1904 27.8056C20.093 27.7197 19.9993 27.634 19.9008 27.5403L22.1321 25.5392L23.0371 24.4996C23.0704 24.5268 23.0976 24.5504 23.1307 24.5698L22.3575 25.7128L21.0078 28.3847C20.8936 28.3223 20.7863 28.252 20.6762 28.178C20.7805 28.0495 20.7541 27.8581 20.6206 27.7568ZM21.7791 28.4238C21.6231 28.3614 21.4476 28.4316 21.3774 28.5875C21.2594 28.5291 21.1473 28.4647 21.038 28.4042L22.6725 25.8941L23.2771 24.6595C23.3122 24.6791 23.3513 24.6907 23.3864 24.7004L22.9377 26.0012L22.3194 28.9348C22.1936 28.8995 22.0746 28.8664 21.9489 28.8215C22.0082 28.6656 21.934 28.4903 21.7791 28.4238ZM23.3471 29.1143C23.3626 28.9465 23.2418 28.7944 23.074 28.775C22.9063 28.7515 22.754 28.8686 22.725 29.0324C22.5981 29.009 22.4715 28.9777 22.3476 28.9465L23.2808 26.099L23.5421 24.7454C23.5851 24.7532 23.624 24.7648 23.6631 24.7688L23.5695 26.1341L23.7294 29.13C23.6008 29.13 23.4721 29.126 23.3471 29.1143ZM24.4159 28.775C24.2481 28.7944 24.1312 28.9465 24.1469 29.1143C24.018 29.1221 23.8894 29.126 23.7607 29.126L23.9243 26.1341L23.8269 24.7611C23.8463 24.7611 23.8698 24.7648 23.8855 24.7611C23.9049 24.7573 23.9283 24.7494 23.9479 24.7454L24.2092 26.099L25.1413 28.9465C25.0165 28.9777 24.8917 29.009 24.763 29.0324C24.7358 28.8684 24.5837 28.7515 24.4159 28.775ZM25.711 28.4238C25.5549 28.4901 25.4809 28.6656 25.5432 28.8255C25.4184 28.8664 25.2936 28.9035 25.1689 28.9388L24.5545 26.0052L24.1039 24.7103C24.141 24.6946 24.1741 24.6752 24.2151 24.6557L24.8158 25.8961L26.4543 28.4044C26.343 28.4706 26.228 28.5312 26.1109 28.5877C26.0426 28.4316 25.8671 28.3614 25.711 28.4238ZM26.8734 27.7568C26.7369 27.8581 26.7135 28.0474 26.8111 28.1858C26.7018 28.256 26.5965 28.3264 26.4834 28.3887L25.1296 25.7168L24.3574 24.5738C24.3925 24.5544 24.4276 24.5308 24.4549 24.5076L25.3561 25.5432L27.5873 27.5443C27.4937 27.638 27.4001 27.7238 27.3005 27.8097C27.1973 27.6788 27.0061 27.6516 26.8734 27.7568ZM27.8214 26.805C27.72 26.9415 27.7434 27.1289 27.8721 27.2341C27.7902 27.3354 27.6966 27.4291 27.6069 27.5189L25.6057 25.2935L24.566 24.3886C24.5914 24.3555 24.6168 24.3281 24.6402 24.2949L25.779 25.0634L28.4511 26.4188C28.3886 26.5319 28.3204 26.6392 28.2424 26.7504C28.1098 26.6489 27.9227 26.6725 27.8214 26.805ZM28.4924 25.6464C28.426 25.8027 28.5002 25.978 28.6523 26.0482C28.5936 26.1651 28.5353 26.2784 28.4688 26.3916L25.9607 24.7532L24.7279 24.1525C24.7436 24.1174 24.7553 24.0783 24.771 24.0392L26.0698 24.4879L29.0032 25.1042C28.9701 25.231 28.9292 25.3538 28.8882 25.4767C28.7342 25.4163 28.5547 25.4904 28.4924 25.6464Z" fill="#21296F"/>
</g>
</svg>
