<svg width="192" height="60" viewBox="0 0 192 60" fill="none" xmlns="http://www.w3.org/2000/svg">
<g clip-path="url(#clip0_2348_32)">
<mask id="mask0_2348_32" style="mask-type:luminance" maskUnits="userSpaceOnUse" x="0" y="0" width="192" height="45">
<path d="M191.793 0H0V45H191.793V0Z" fill="white"/>
</mask>
<g mask="url(#mask0_2348_32)">
<path d="M22.5 45C34.9264 45 45 34.9264 45 22.5C45 10.0736 34.9264 0 22.5 0C10.0736 0 0 10.0736 0 22.5C0 34.9264 10.0736 45 22.5 45Z" fill="white"/>
<path d="M43.4354 22.4997C43.4435 25.2504 42.9056 27.9752 41.8528 30.5164C40.8 33.0576 39.2533 35.3646 37.3023 37.3036L37.238 37.3679L22.4985 6.60629L7.75904 37.3679L7.69468 37.3036C5.71826 35.3667 4.14542 33.0572 3.06709 30.5087C1.98877 27.9602 1.42636 25.2232 1.41238 22.4559C1.39841 19.6887 1.93314 16.9462 2.98567 14.3869C4.03819 11.8276 5.58763 9.50235 7.54438 7.54559C9.50113 5.58884 11.8263 4.03941 14.3856 2.98688C16.9449 1.93436 19.6875 1.39962 22.4547 1.4136C25.2219 1.42757 27.9589 1.98998 30.5074 3.06831C33.056 4.14663 35.3654 5.71948 37.3023 7.69589C39.2533 9.63489 40.8 11.9418 41.8528 14.483C42.9056 17.0242 43.4435 19.7491 43.4354 22.4997Z" fill="#10243E"/>
<path d="M35.8597 38.616C35.2914 39.0876 34.6991 39.5296 34.0851 39.94L22.4995 15.7988L10.9277 39.9538C10.3119 39.5389 9.718 39.0924 9.14844 38.616L22.4811 10.7507L35.8597 38.616Z" fill="#10243E"/>
<path d="M32.5268 40.8893C31.8904 41.2298 31.2367 41.5367 30.5683 41.8088L22.4997 24.9913L14.4312 41.8364C13.7627 41.5643 13.109 41.2574 12.4727 40.9169L22.4997 19.9617L32.5268 40.8893Z" fill="#10243E"/>
<path d="M28.8712 42.4521C24.7242 43.7625 20.274 43.7625 16.127 42.4521L22.4991 29.1516L28.8712 42.4521Z" fill="#10243E"/>
<path d="M39.2752 4.53538V1.88723H38.4062V1.42749H40.7694V1.88723H39.9005V4.53538H39.2752Z" fill="white"/>
<path d="M41.252 4.53253V1.40625H41.9416L42.829 2.91882L43.7071 1.40625H44.4105V4.53253H43.822V2.23379L43.0404 3.61303H42.6221L41.8405 2.23379V4.53253H41.252Z" fill="white"/>
<path d="M52.5762 36.9437L62.0884 8.05786H69.7984L79.4255 36.9437H73.2603L71.6373 31.4268H60.3276L58.6449 36.9437H52.5762ZM61.4815 27.5833H70.5202L66.079 12.4117L61.4815 27.5833Z" fill="white"/>
<path d="M96.3037 37.4505C94.3708 37.4915 92.4392 37.322 90.543 36.9448C89.3051 36.693 88.118 36.2361 87.0306 35.5931C86.1674 35.0498 85.4457 34.3092 84.9249 33.4323C84.4218 32.5958 84.0686 31.6778 83.8813 30.7198C83.6902 29.6472 83.6009 28.5588 83.6147 27.4694V17.8147C83.6147 14.3697 84.3135 11.956 85.7111 10.5737C87.2314 9.11406 89.1763 8.17543 91.2648 7.89337C92.7257 7.64696 94.2063 7.53615 95.6876 7.56235C101.649 7.56235 105.204 9.19292 106.354 12.4541C106.912 14.1436 107.176 15.9163 107.135 17.6952V18.0492L101.444 18.7158V17.2584C101.444 15.2493 101.048 13.8885 100.257 13.1851C99.4667 12.4816 97.9588 12.1276 95.729 12.1276C93.4992 12.1276 91.8901 12.4862 90.9062 13.1943C89.9224 13.9023 89.4259 15.2217 89.4259 17.1389V28.0441C89.4259 29.975 89.9316 31.2638 90.943 31.9105C91.9545 32.5572 93.5621 32.8806 95.7658 32.8806C96.689 32.897 97.6119 32.834 98.5243 32.6921C99.1452 32.5948 99.7309 32.3399 100.225 31.9519C100.697 31.5657 101.029 31.0363 101.172 30.4439C101.365 29.6247 101.451 28.7842 101.43 27.9429V27.0234H107.122V27.5475C107.122 30.4072 106.702 32.473 105.862 33.7449C104.982 35.0448 103.709 36.0291 102.23 36.554C100.324 37.2031 98.3167 37.5067 96.3037 37.4505Z" fill="white"/>
<path d="M125.18 37.4537C119.755 37.4537 116.199 36.1633 114.514 33.5826C113.57 32.1206 113.098 30.1897 113.098 27.7898V8.0437H118.913V28.0473C118.913 29.8587 119.428 31.123 120.467 31.8356C121.506 32.5482 123.088 32.9022 125.212 32.9022C127.336 32.9022 128.89 32.5482 129.809 31.8448C130.729 31.1414 131.189 29.8863 131.189 28.0473V8.0437H137.004V27.5508C137.004 31.3881 135.869 34.0638 133.598 35.5779C131.691 36.8284 128.885 37.4537 125.18 37.4537Z" fill="white"/>
<path d="M144.162 36.9437V8.05786H155.279C159.242 8.05786 161.954 8.67086 163.416 9.89685C164.16 10.5209 164.723 11.3319 165.048 12.2462C165.396 13.4005 165.552 14.6043 165.508 15.8092C165.565 17.0346 165.295 18.253 164.727 19.34C164.202 20.2182 163.232 20.8434 161.807 21.2066C163.738 21.4671 165.044 22.1981 165.724 23.3996C166.405 24.6011 166.743 26.1933 166.74 28.1764V28.5258C166.74 31.3701 165.957 33.4834 164.391 34.8657C162.825 36.248 160.255 36.9407 156.681 36.9437H144.162ZM149.973 19.6803H155.982C157.821 19.6803 158.923 19.1914 159.288 18.2137C159.518 17.4166 159.617 16.5875 159.582 15.7586C159.63 14.9495 159.507 14.1394 159.219 13.3817C159.085 13.1239 158.899 12.8972 158.671 12.7165C158.444 12.5358 158.181 12.4053 157.899 12.3335C156.921 12.0926 155.913 11.9904 154.906 12.0301H149.973V19.6803ZM149.973 32.8704H155.61C156.533 32.8901 157.455 32.8316 158.368 32.6957C158.964 32.6083 159.522 32.3496 159.973 31.9509C160.388 31.5658 160.67 31.0586 160.777 30.5027C160.912 29.7906 160.974 29.0665 160.961 28.3419C160.97 27.6988 160.944 27.0558 160.883 26.4155C160.857 25.9464 160.734 25.4877 160.522 25.0684C160.31 24.649 160.013 24.2781 159.651 23.9789C158.957 23.4502 157.812 23.1835 156.207 23.1835H149.973V32.8704Z" fill="white"/>
<path d="M172.652 36.9437V8.05786H191.58V12.4392H178.445V20.1124H190.091V24.3007H178.445V32.5762H191.778V36.9621L172.652 36.9437Z" fill="white"/>
</g>
</g>
<path d="M46.6037 48.2727V57H44.7585V48.2727H46.6037ZM52.8562 50.7827C52.8221 50.4389 52.6758 50.1719 52.4173 49.9815C52.1587 49.7912 51.8079 49.696 51.3647 49.696C51.0636 49.696 50.8093 49.7386 50.6019 49.8239C50.3945 49.9062 50.2354 50.0213 50.1246 50.169C50.0167 50.3168 49.9627 50.4844 49.9627 50.6719C49.957 50.8281 49.9897 50.9645 50.0607 51.081C50.1346 51.1974 50.2354 51.2983 50.3633 51.3835C50.4911 51.4659 50.6388 51.5384 50.8065 51.6009C50.9741 51.6605 51.1531 51.7116 51.3434 51.7543L52.1275 51.9418C52.5082 52.027 52.8576 52.1406 53.1758 52.2827C53.494 52.4247 53.7695 52.5994 54.0025 52.8068C54.2354 53.0142 54.4158 53.2585 54.5437 53.5398C54.6744 53.821 54.7411 54.1435 54.744 54.5071C54.7411 55.0412 54.6048 55.5043 54.3349 55.8963C54.0678 56.2855 53.6815 56.5881 53.1758 56.804C52.6729 57.017 52.0664 57.1236 51.3562 57.1236C50.6516 57.1236 50.038 57.0156 49.5153 56.7997C48.9954 56.5838 48.5891 56.2642 48.2965 55.8409C48.0067 55.4148 47.8548 54.8878 47.8406 54.2599H49.6261C49.646 54.5526 49.7298 54.7969 49.8775 54.9929C50.0281 55.1861 50.2283 55.3324 50.4783 55.4318C50.7312 55.5284 51.0167 55.5767 51.3349 55.5767C51.6474 55.5767 51.9187 55.5312 52.1488 55.4403C52.3817 55.3494 52.5621 55.223 52.69 55.0611C52.8178 54.8991 52.8817 54.7131 52.8817 54.5028C52.8817 54.3068 52.8235 54.142 52.707 54.0085C52.5934 53.875 52.4258 53.7614 52.2042 53.6676C51.9854 53.5739 51.717 53.4886 51.3988 53.4119L50.4485 53.1733C49.7127 52.9943 49.1317 52.7145 48.7056 52.3338C48.2795 51.9531 48.0678 51.4403 48.0707 50.7955C48.0678 50.267 48.2085 49.8054 48.4925 49.4105C48.7795 49.0156 49.1729 48.7074 49.6729 48.4858C50.1729 48.2642 50.7411 48.1534 51.3775 48.1534C52.0252 48.1534 52.5906 48.2642 53.0735 48.4858C53.5593 48.7074 53.9371 49.0156 54.207 49.4105C54.4769 49.8054 54.6161 50.2628 54.6246 50.7827H52.8562ZM64.005 52.6364C64.005 53.5881 63.8246 54.3977 63.4638 55.0653C63.1058 55.733 62.6172 56.2429 61.9979 56.5952C61.3814 56.9446 60.6882 57.1193 59.9183 57.1193C59.1428 57.1193 58.4467 56.9432 57.8303 56.5909C57.2138 56.2386 56.7266 55.7287 56.3686 55.0611C56.0107 54.3935 55.8317 53.5852 55.8317 52.6364C55.8317 51.6847 56.0107 50.875 56.3686 50.2074C56.7266 49.5398 57.2138 49.0312 57.8303 48.6818C58.4467 48.3295 59.1428 48.1534 59.9183 48.1534C60.6882 48.1534 61.3814 48.3295 61.9979 48.6818C62.6172 49.0312 63.1058 49.5398 63.4638 50.2074C63.8246 50.875 64.005 51.6847 64.005 52.6364ZM62.1342 52.6364C62.1342 52.0199 62.0419 51.5 61.8572 51.0767C61.6754 50.6534 61.4183 50.3324 61.0859 50.1136C60.7536 49.8949 60.3643 49.7855 59.9183 49.7855C59.4723 49.7855 59.0831 49.8949 58.7507 50.1136C58.4183 50.3324 58.1598 50.6534 57.9751 51.0767C57.7933 51.5 57.7024 52.0199 57.7024 52.6364C57.7024 53.2528 57.7933 53.7727 57.9751 54.196C58.1598 54.6193 58.4183 54.9403 58.7507 55.1591C59.0831 55.3778 59.4723 55.4872 59.9183 55.4872C60.3643 55.4872 60.7536 55.3778 61.0859 55.1591C61.4183 54.9403 61.6754 54.6193 61.8572 54.196C62.0419 53.7727 62.1342 53.2528 62.1342 52.6364ZM68.098 57V55.6705L71.2045 52.794C71.4688 52.5384 71.6903 52.3082 71.8693 52.1037C72.0511 51.8991 72.1889 51.6989 72.2827 51.5028C72.3764 51.304 72.4233 51.0895 72.4233 50.8594C72.4233 50.6037 72.3651 50.3835 72.2486 50.1989C72.1321 50.0114 71.973 49.8679 71.7713 49.7685C71.5696 49.6662 71.3409 49.6151 71.0852 49.6151C70.8182 49.6151 70.5852 49.669 70.3864 49.777C70.1875 49.8849 70.0341 50.0398 69.9261 50.2415C69.8182 50.4432 69.7642 50.6832 69.7642 50.9616H68.0128C68.0128 50.3906 68.142 49.8949 68.4006 49.4744C68.6591 49.054 69.0213 48.7287 69.4872 48.4986C69.9531 48.2685 70.4901 48.1534 71.098 48.1534C71.723 48.1534 72.267 48.2642 72.7301 48.4858C73.196 48.7045 73.5582 49.0085 73.8168 49.3977C74.0753 49.7869 74.2045 50.233 74.2045 50.7358C74.2045 51.0653 74.1392 51.3906 74.0085 51.7116C73.8807 52.0327 73.652 52.3892 73.3224 52.7812C72.9929 53.1705 72.5284 53.6378 71.929 54.1832L70.6548 55.4318V55.4915H74.3196V57H68.098ZM76.0018 57L79.6197 49.8409V49.7812H75.4052V48.2727H81.5288V49.8026L77.9066 57H76.0018ZM86.0277 57.1918C85.2947 57.1889 84.6641 57.0085 84.1357 56.6506C83.6101 56.2926 83.2053 55.7741 82.9212 55.0952C82.6399 54.4162 82.5007 53.5994 82.5036 52.6449C82.5036 51.6932 82.6442 50.8821 82.9254 50.2116C83.2095 49.5412 83.6143 49.0312 84.1399 48.6818C84.6683 48.3295 85.2976 48.1534 86.0277 48.1534C86.7578 48.1534 87.3857 48.3295 87.9112 48.6818C88.4396 49.0341 88.8459 49.5455 89.13 50.2159C89.4141 50.8835 89.5547 51.6932 89.5518 52.6449C89.5518 53.6023 89.4098 54.4205 89.1257 55.0994C88.8445 55.7784 88.4411 56.2969 87.9155 56.6548C87.3899 57.0128 86.7607 57.1918 86.0277 57.1918ZM86.0277 55.6619C86.5277 55.6619 86.9268 55.4105 87.2251 54.9077C87.5234 54.4048 87.6712 53.6506 87.6683 52.6449C87.6683 51.983 87.6001 51.4318 87.4638 50.9915C87.3303 50.5511 87.1399 50.2202 86.8928 49.9986C86.6484 49.777 86.3601 49.6662 86.0277 49.6662C85.5305 49.6662 85.1328 49.9148 84.8345 50.4119C84.5362 50.9091 84.3857 51.6534 84.3828 52.6449C84.3828 53.3153 84.4496 53.875 84.5831 54.3239C84.7195 54.7699 84.9112 55.1051 85.1584 55.3295C85.4055 55.5511 85.6953 55.6619 86.0277 55.6619ZM94.2894 57.1918C93.5565 57.1889 92.9258 57.0085 92.3974 56.6506C91.8718 56.2926 91.467 55.7741 91.1829 55.0952C90.9016 54.4162 90.7624 53.5994 90.7653 52.6449C90.7653 51.6932 90.9059 50.8821 91.1871 50.2116C91.4712 49.5412 91.8761 49.0312 92.4016 48.6818C92.93 48.3295 93.5593 48.1534 94.2894 48.1534C95.0195 48.1534 95.6474 48.3295 96.1729 48.6818C96.7013 49.0341 97.1076 49.5455 97.3917 50.2159C97.6758 50.8835 97.8164 51.6932 97.8136 52.6449C97.8136 53.6023 97.6715 54.4205 97.3874 55.0994C97.1062 55.7784 96.7028 56.2969 96.1772 56.6548C95.6516 57.0128 95.0224 57.1918 94.2894 57.1918ZM94.2894 55.6619C94.7894 55.6619 95.1886 55.4105 95.4869 54.9077C95.7852 54.4048 95.9329 53.6506 95.93 52.6449C95.93 51.983 95.8619 51.4318 95.7255 50.9915C95.592 50.5511 95.4016 50.2202 95.1545 49.9986C94.9102 49.777 94.6218 49.6662 94.2894 49.6662C93.7923 49.6662 93.3945 49.9148 93.0962 50.4119C92.7979 50.9091 92.6474 51.6534 92.6445 52.6449C92.6445 53.3153 92.7113 53.875 92.8448 54.3239C92.9812 54.7699 93.1729 55.1051 93.4201 55.3295C93.6673 55.5511 93.957 55.6619 94.2894 55.6619ZM102.926 48.2727V57H101.081V50.0241H101.03L99.0312 51.277V49.6406L101.192 48.2727H102.926ZM106.078 55.9858C105.797 55.9858 105.556 55.8864 105.354 55.6875C105.155 55.4886 105.056 55.2472 105.056 54.9631C105.056 54.6847 105.155 54.446 105.354 54.2472C105.556 54.0483 105.797 53.9489 106.078 53.9489C106.351 53.9489 106.59 54.0483 106.794 54.2472C106.999 54.446 107.101 54.6847 107.101 54.9631C107.101 55.1506 107.053 55.3224 106.956 55.4787C106.863 55.6321 106.739 55.7557 106.586 55.8494C106.432 55.9403 106.263 55.9858 106.078 55.9858ZM106.078 51.7031C105.797 51.7031 105.556 51.6037 105.354 51.4048C105.155 51.206 105.056 50.9645 105.056 50.6804C105.056 50.402 105.155 50.1648 105.354 49.9688C105.556 49.7699 105.797 49.6705 106.078 49.6705C106.351 49.6705 106.59 49.7699 106.794 49.9688C106.999 50.1648 107.101 50.402 107.101 50.6804C107.101 50.8707 107.053 51.044 106.956 51.2003C106.863 51.3537 106.739 51.4759 106.586 51.5668C106.432 51.6577 106.263 51.7031 106.078 51.7031ZM108.575 57V55.6705L111.681 52.794C111.945 52.5384 112.167 52.3082 112.346 52.1037C112.528 51.8991 112.665 51.6989 112.759 51.5028C112.853 51.304 112.9 51.0895 112.9 50.8594C112.9 50.6037 112.842 50.3835 112.725 50.1989C112.609 50.0114 112.45 49.8679 112.248 49.7685C112.046 49.6662 111.817 49.6151 111.562 49.6151C111.295 49.6151 111.062 49.669 110.863 49.777C110.664 49.8849 110.511 50.0398 110.403 50.2415C110.295 50.4432 110.241 50.6832 110.241 50.9616H108.489C108.489 50.3906 108.619 49.8949 108.877 49.4744C109.136 49.054 109.498 48.7287 109.964 48.4986C110.43 48.2685 110.967 48.1534 111.575 48.1534C112.2 48.1534 112.744 48.2642 113.207 48.4858C113.673 48.7045 114.035 49.0085 114.293 49.3977C114.552 49.7869 114.681 50.233 114.681 50.7358C114.681 51.0653 114.616 51.3906 114.485 51.7116C114.357 52.0327 114.129 52.3892 113.799 52.7812C113.469 53.1705 113.005 53.6378 112.406 54.1832L111.131 55.4318V55.4915H114.796V57H108.575ZM119.555 57.1918C118.822 57.1889 118.191 57.0085 117.663 56.6506C117.137 56.2926 116.733 55.7741 116.449 55.0952C116.167 54.4162 116.028 53.5994 116.031 52.6449C116.031 51.6932 116.172 50.8821 116.453 50.2116C116.737 49.5412 117.142 49.0312 117.667 48.6818C118.196 48.3295 118.825 48.1534 119.555 48.1534C120.285 48.1534 120.913 48.3295 121.439 48.6818C121.967 49.0341 122.373 49.5455 122.657 50.2159C122.941 50.8835 123.082 51.6932 123.079 52.6449C123.079 53.6023 122.937 54.4205 122.653 55.0994C122.372 55.7784 121.968 56.2969 121.443 56.6548C120.917 57.0128 120.288 57.1918 119.555 57.1918ZM119.555 55.6619C120.055 55.6619 120.454 55.4105 120.752 54.9077C121.051 54.4048 121.199 53.6506 121.196 52.6449C121.196 51.983 121.127 51.4318 120.991 50.9915C120.858 50.5511 120.667 50.2202 120.42 49.9986C120.176 49.777 119.887 49.6662 119.555 49.6662C119.058 49.6662 118.66 49.9148 118.362 50.4119C118.064 50.9091 117.913 51.6534 117.91 52.6449C117.91 53.3153 117.977 53.875 118.11 54.3239C118.247 54.7699 118.439 55.1051 118.686 55.3295C118.933 55.5511 119.223 55.6619 119.555 55.6619ZM124.395 57V55.6705L127.501 52.794C127.766 52.5384 127.987 52.3082 128.166 52.1037C128.348 51.8991 128.486 51.6989 128.58 51.5028C128.673 51.304 128.72 51.0895 128.72 50.8594C128.72 50.6037 128.662 50.3835 128.545 50.1989C128.429 50.0114 128.27 49.8679 128.068 49.7685C127.866 49.6662 127.638 49.6151 127.382 49.6151C127.115 49.6151 126.882 49.669 126.683 49.777C126.484 49.8849 126.331 50.0398 126.223 50.2415C126.115 50.4432 126.061 50.6832 126.061 50.9616H124.31C124.31 50.3906 124.439 49.8949 124.697 49.4744C124.956 49.054 125.318 48.7287 125.784 48.4986C126.25 48.2685 126.787 48.1534 127.395 48.1534C128.02 48.1534 128.564 48.2642 129.027 48.4858C129.493 48.7045 129.855 49.0085 130.114 49.3977C130.372 49.7869 130.501 50.233 130.501 50.7358C130.501 51.0653 130.436 51.3906 130.305 51.7116C130.178 52.0327 129.949 52.3892 129.619 52.7812C129.29 53.1705 128.825 53.6378 128.226 54.1832L126.952 55.4318V55.4915H130.616V57H124.395ZM131.953 57V55.6705L135.06 52.794C135.324 52.5384 135.546 52.3082 135.725 52.1037C135.907 51.8991 136.044 51.6989 136.138 51.5028C136.232 51.304 136.279 51.0895 136.279 50.8594C136.279 50.6037 136.221 50.3835 136.104 50.1989C135.988 50.0114 135.828 49.8679 135.627 49.7685C135.425 49.6662 135.196 49.6151 134.941 49.6151C134.674 49.6151 134.441 49.669 134.242 49.777C134.043 49.8849 133.89 50.0398 133.782 50.2415C133.674 50.4432 133.62 50.6832 133.62 50.9616H131.868C131.868 50.3906 131.998 49.8949 132.256 49.4744C132.515 49.054 132.877 48.7287 133.343 48.4986C133.809 48.2685 134.346 48.1534 134.953 48.1534C135.578 48.1534 136.123 48.2642 136.586 48.4858C137.051 48.7045 137.414 49.0085 137.672 49.3977C137.931 49.7869 138.06 50.233 138.06 50.7358C138.06 51.0653 137.995 51.3906 137.864 51.7116C137.736 52.0327 137.507 52.3892 137.178 52.7812C136.848 53.1705 136.384 53.6378 135.784 54.1832L134.51 55.4318V55.4915H138.175V57H131.953ZM145.264 57.1278C144.593 57.1278 144.017 56.9858 143.534 56.7017C143.054 56.4148 142.684 56.017 142.426 55.5085C142.17 55 142.042 54.4148 142.042 53.7528C142.042 53.0824 142.172 52.4943 142.43 51.9886C142.691 51.4801 143.062 51.0838 143.542 50.7997C144.022 50.5128 144.593 50.3693 145.255 50.3693C145.826 50.3693 146.326 50.473 146.755 50.6804C147.184 50.8878 147.524 51.179 147.774 51.554C148.024 51.929 148.162 52.3693 148.187 52.875H146.474C146.426 52.5483 146.298 52.2855 146.091 52.0866C145.886 51.8849 145.618 51.7841 145.285 51.7841C145.004 51.7841 144.758 51.8608 144.548 52.0142C144.341 52.1648 144.179 52.3849 144.062 52.6747C143.946 52.9645 143.887 53.3153 143.887 53.7273C143.887 54.1449 143.944 54.5 144.058 54.7926C144.174 55.0852 144.338 55.3082 144.548 55.4616C144.758 55.6151 145.004 55.6918 145.285 55.6918C145.493 55.6918 145.679 55.6491 145.843 55.5639C146.011 55.4787 146.149 55.3551 146.257 55.1932C146.368 55.0284 146.44 54.831 146.474 54.6009H148.187C148.159 55.1009 148.022 55.5412 147.778 55.9219C147.537 56.2997 147.203 56.5952 146.777 56.8082C146.35 57.0213 145.846 57.1278 145.264 57.1278ZM152.332 57.1278C151.659 57.1278 151.08 56.9915 150.594 56.7188C150.111 56.4432 149.739 56.054 149.477 55.5511C149.216 55.0455 149.085 54.4474 149.085 53.7571C149.085 53.0838 149.216 52.4929 149.477 51.9844C149.739 51.4759 150.107 51.0795 150.581 50.7955C151.058 50.5114 151.618 50.3693 152.26 50.3693C152.692 50.3693 153.094 50.4389 153.466 50.5781C153.841 50.7145 154.168 50.9205 154.446 51.196C154.727 51.4716 154.946 51.8182 155.102 52.2358C155.259 52.6506 155.337 53.1364 155.337 53.6932V54.1918H149.81V53.0668H153.628C153.628 52.8054 153.571 52.5739 153.457 52.3722C153.344 52.1705 153.186 52.0128 152.984 51.8991C152.786 51.7827 152.554 51.7244 152.29 51.7244C152.014 51.7244 151.77 51.7884 151.557 51.9162C151.347 52.0412 151.182 52.2102 151.062 52.4233C150.943 52.6335 150.882 52.8679 150.879 53.1264V54.196C150.879 54.5199 150.939 54.7997 151.058 55.0355C151.18 55.2713 151.352 55.4531 151.574 55.581C151.795 55.7088 152.058 55.7727 152.362 55.7727C152.564 55.7727 152.749 55.7443 152.916 55.6875C153.084 55.6307 153.227 55.5455 153.347 55.4318C153.466 55.3182 153.557 55.179 153.619 55.0142L155.298 55.125C155.213 55.5284 155.038 55.8807 154.774 56.1818C154.513 56.4801 154.175 56.7131 153.76 56.8807C153.348 57.0455 152.872 57.1278 152.332 57.1278ZM156.521 57V50.4545H158.281V51.5966H158.349C158.469 51.1903 158.669 50.8835 158.95 50.6761C159.232 50.4659 159.555 50.3608 159.922 50.3608C160.013 50.3608 160.111 50.3665 160.216 50.3778C160.321 50.3892 160.413 50.4048 160.493 50.4247V52.0355C160.408 52.0099 160.29 51.9872 160.139 51.9673C159.989 51.9474 159.851 51.9375 159.726 51.9375C159.459 51.9375 159.22 51.9957 159.01 52.1122C158.803 52.2259 158.638 52.3849 158.516 52.5895C158.396 52.794 158.337 53.0298 158.337 53.2969V57H156.521ZM165.241 50.4545V51.8182H161.299V50.4545H165.241ZM162.194 48.8864H164.01V54.9886C164.01 55.1562 164.035 55.2869 164.086 55.3807C164.137 55.4716 164.208 55.5355 164.299 55.5724C164.393 55.6094 164.501 55.6278 164.623 55.6278C164.708 55.6278 164.794 55.6207 164.879 55.6065C164.964 55.5895 165.029 55.5767 165.075 55.5682L165.36 56.919C165.27 56.9474 165.142 56.9801 164.977 57.017C164.812 57.0568 164.612 57.081 164.376 57.0895C163.939 57.1065 163.555 57.0483 163.225 56.9148C162.899 56.7812 162.645 56.5739 162.463 56.2926C162.281 56.0114 162.191 55.6562 162.194 55.2273V48.8864ZM166.424 57V50.4545H168.239V57H166.424ZM167.336 49.6108C167.066 49.6108 166.834 49.5213 166.641 49.3423C166.451 49.1605 166.355 48.9432 166.355 48.6903C166.355 48.4403 166.451 48.2259 166.641 48.0469C166.834 47.8651 167.066 47.7741 167.336 47.7741C167.605 47.7741 167.836 47.8651 168.026 48.0469C168.219 48.2259 168.316 48.4403 168.316 48.6903C168.316 48.9432 168.219 49.1605 168.026 49.3423C167.836 49.5213 167.605 49.6108 167.336 49.6108ZM173.213 50.4545V51.8182H169.173V50.4545H173.213ZM170.098 57V49.9815C170.098 49.5071 170.19 49.1136 170.375 48.8011C170.562 48.4886 170.818 48.2543 171.142 48.098C171.466 47.9418 171.834 47.8636 172.246 47.8636C172.524 47.8636 172.778 47.8849 173.009 47.9276C173.241 47.9702 173.415 48.0085 173.528 48.0426L173.205 49.4062C173.134 49.3835 173.045 49.3622 172.94 49.3423C172.838 49.3224 172.733 49.3125 172.625 49.3125C172.358 49.3125 172.172 49.375 172.067 49.5C171.962 49.6222 171.909 49.794 171.909 50.0156V57H170.098ZM174.322 57V50.4545H176.137V57H174.322ZM175.234 49.6108C174.964 49.6108 174.733 49.5213 174.539 49.3423C174.349 49.1605 174.254 48.9432 174.254 48.6903C174.254 48.4403 174.349 48.2259 174.539 48.0469C174.733 47.8651 174.964 47.7741 175.234 47.7741C175.504 47.7741 175.734 47.8651 175.924 48.0469C176.118 48.2259 176.214 48.4403 176.214 48.6903C176.214 48.9432 176.118 49.1605 175.924 49.3423C175.734 49.5213 175.504 49.6108 175.234 49.6108ZM180.575 57.1278C179.901 57.1278 179.322 56.9915 178.836 56.7188C178.353 56.4432 177.981 56.054 177.719 55.5511C177.458 55.0455 177.327 54.4474 177.327 53.7571C177.327 53.0838 177.458 52.4929 177.719 51.9844C177.981 51.4759 178.349 51.0795 178.823 50.7955C179.3 50.5114 179.86 50.3693 180.502 50.3693C180.934 50.3693 181.336 50.4389 181.708 50.5781C182.083 50.7145 182.41 50.9205 182.688 51.196C182.969 51.4716 183.188 51.8182 183.344 52.2358C183.501 52.6506 183.579 53.1364 183.579 53.6932V54.1918H178.052V53.0668H181.87C181.87 52.8054 181.813 52.5739 181.7 52.3722C181.586 52.1705 181.428 52.0128 181.227 51.8991C181.028 51.7827 180.796 51.7244 180.532 51.7244C180.256 51.7244 180.012 51.7884 179.799 51.9162C179.589 52.0412 179.424 52.2102 179.305 52.4233C179.185 52.6335 179.124 52.8679 179.121 53.1264V54.196C179.121 54.5199 179.181 54.7997 179.3 55.0355C179.423 55.2713 179.594 55.4531 179.816 55.581C180.038 55.7088 180.3 55.7727 180.604 55.7727C180.806 55.7727 180.991 55.7443 181.158 55.6875C181.326 55.6307 181.469 55.5455 181.589 55.4318C181.708 55.3182 181.799 55.179 181.862 55.0142L183.54 55.125C183.455 55.5284 183.281 55.8807 183.016 56.1818C182.755 56.4801 182.417 56.7131 182.002 56.8807C181.59 57.0455 181.114 57.1278 180.575 57.1278ZM187.175 57.1065C186.678 57.1065 186.228 56.9787 185.825 56.723C185.424 56.4645 185.106 56.0852 184.87 55.5852C184.637 55.0824 184.521 54.4659 184.521 53.7358C184.521 52.9858 184.641 52.3622 184.883 51.8651C185.124 51.3651 185.445 50.9915 185.846 50.7443C186.249 50.4943 186.691 50.3693 187.171 50.3693C187.538 50.3693 187.843 50.4318 188.087 50.5568C188.335 50.679 188.533 50.8324 188.684 51.017C188.837 51.1989 188.954 51.3778 189.033 51.554H189.089V48.2727H190.9V57H189.11V55.9517H189.033C188.948 56.1335 188.827 56.3139 188.671 56.4929C188.518 56.669 188.317 56.8153 188.07 56.9318C187.826 57.0483 187.528 57.1065 187.175 57.1065ZM187.751 55.6619C188.043 55.6619 188.29 55.5824 188.492 55.4233C188.697 55.2614 188.853 55.0355 188.961 54.7457C189.072 54.456 189.127 54.1165 189.127 53.7273C189.127 53.3381 189.073 53 188.965 52.7131C188.857 52.4261 188.701 52.2045 188.496 52.0483C188.292 51.892 188.043 51.8139 187.751 51.8139C187.452 51.8139 187.201 51.8949 186.996 52.0568C186.792 52.2187 186.637 52.4432 186.532 52.7301C186.427 53.017 186.374 53.3494 186.374 53.7273C186.374 54.108 186.427 54.4446 186.532 54.7372C186.64 55.027 186.795 55.2543 186.996 55.419C187.201 55.581 187.452 55.6619 187.751 55.6619Z" fill="white"/>
<defs>
<clipPath id="clip0_2348_32">
<rect width="192" height="45" fill="white"/>
</clipPath>
</defs>
</svg>
