<svg width="192" height="45" viewBox="0 0 192 45" fill="none" xmlns="http://www.w3.org/2000/svg">
<g clip-path="url(#clip0_1784_484)">
<path d="M22.5 45C34.9264 45 45 34.9264 45 22.5C45 10.0736 34.9264 0 22.5 0C10.0736 0 0 10.0736 0 22.5C0 34.9264 10.0736 45 22.5 45Z" fill="white"/>
<path d="M43.4364 22.4997C43.4445 25.2504 42.9066 27.9752 41.8538 30.5164C40.801 33.0576 39.2543 35.3646 37.3033 37.3036L37.239 37.3679L22.4995 6.60629L7.76001 37.3679L7.69565 37.3036C5.71923 35.3667 4.14639 33.0572 3.06806 30.5087C1.98974 27.9602 1.42733 25.2232 1.41335 22.4559C1.39938 19.6887 1.93411 16.9462 2.98664 14.3869C4.03916 11.8276 5.5886 9.50235 7.54535 7.54559C9.5021 5.58884 11.8273 4.03941 14.3866 2.98688C16.9459 1.93436 19.6885 1.39962 22.4557 1.4136C25.2229 1.42757 27.9599 1.98998 30.5084 3.06831C33.057 4.14663 35.3664 5.71948 37.3033 7.69589C39.2543 9.63489 40.801 11.9418 41.8538 14.483C42.9066 17.0242 43.4445 19.7491 43.4364 22.4997Z" fill="#10243E"/>
<path d="M35.8597 38.616C35.2914 39.0876 34.6991 39.5296 34.0851 39.94L22.4995 15.7988L10.9277 39.9538C10.3119 39.5389 9.718 39.0924 9.14844 38.616L22.4811 10.7507L35.8597 38.616Z" fill="#10243E"/>
<path d="M32.5268 40.8893C31.8904 41.2298 31.2367 41.5367 30.5683 41.8088L22.4997 24.9913L14.4312 41.8364C13.7627 41.5643 13.109 41.2574 12.4727 40.9169L22.4997 19.9617L32.5268 40.8893Z" fill="#10243E"/>
<path d="M28.8721 42.4521C24.7251 43.7625 20.2749 43.7625 16.1279 42.4521L22.5 29.1516L28.8721 42.4521Z" fill="#10243E"/>
<path d="M39.2761 4.53526V1.88711H38.4072V1.42737H40.7703V1.88711H39.9014V4.53526H39.2761Z" fill="white"/>
<path d="M41.2529 4.53253V1.40625H41.9425L42.8299 2.91882L43.708 1.40625H44.4114V4.53253H43.8229V2.23379L43.0413 3.61303H42.623L41.8414 2.23379V4.53253H41.2529Z" fill="white"/>
<path d="M52.5771 36.9437L62.0893 8.05786H69.7993L79.4264 36.9437H73.2612L71.6382 31.4268H60.3285L58.6458 36.9437H52.5771ZM61.4824 27.5833H70.5211L66.0799 12.4117L61.4824 27.5833Z" fill="white"/>
<path d="M96.3037 37.4505C94.3708 37.4915 92.4392 37.322 90.543 36.9448C89.3051 36.693 88.118 36.2361 87.0306 35.5931C86.1674 35.0498 85.4457 34.3092 84.9249 33.4323C84.4218 32.5958 84.0686 31.6778 83.8813 30.7198C83.6902 29.6472 83.6009 28.5588 83.6147 27.4694V17.8147C83.6147 14.3697 84.3135 11.956 85.7111 10.5737C87.2314 9.11406 89.1763 8.17543 91.2648 7.89337C92.7257 7.64696 94.2063 7.53615 95.6876 7.56235C101.649 7.56235 105.204 9.19292 106.354 12.4541C106.912 14.1436 107.176 15.9163 107.135 17.6952V18.0492L101.444 18.7158V17.2584C101.444 15.2493 101.048 13.8885 100.257 13.1851C99.4667 12.4816 97.9588 12.1276 95.729 12.1276C93.4992 12.1276 91.8901 12.4862 90.9062 13.1943C89.9224 13.9023 89.4259 15.2217 89.4259 17.1389V28.0441C89.4259 29.975 89.9316 31.2638 90.943 31.9105C91.9545 32.5572 93.5621 32.8806 95.7658 32.8806C96.689 32.897 97.6119 32.834 98.5243 32.6921C99.1452 32.5948 99.7309 32.3399 100.225 31.9519C100.697 31.5657 101.029 31.0363 101.172 30.4439C101.365 29.6247 101.451 28.7842 101.43 27.9429V27.0234H107.122V27.5475C107.122 30.4072 106.702 32.473 105.862 33.7449C104.982 35.0448 103.709 36.0291 102.23 36.554C100.324 37.2031 98.3167 37.5067 96.3037 37.4505Z" fill="white"/>
<path d="M125.18 37.4537C119.755 37.4537 116.199 36.1633 114.514 33.5826C113.57 32.1206 113.098 30.1897 113.098 27.7898V8.0437H118.913V28.0473C118.913 29.8587 119.428 31.123 120.467 31.8356C121.506 32.5482 123.088 32.9022 125.212 32.9022C127.336 32.9022 128.89 32.5482 129.809 31.8448C130.729 31.1414 131.189 29.8863 131.189 28.0473V8.0437H137.004V27.5508C137.004 31.3881 135.869 34.0638 133.598 35.5779C131.691 36.8284 128.885 37.4537 125.18 37.4537Z" fill="white"/>
<path d="M144.162 36.9437V8.05786H155.279C159.242 8.05786 161.954 8.67086 163.416 9.89685C164.16 10.5209 164.723 11.3319 165.048 12.2462C165.396 13.4005 165.552 14.6043 165.508 15.8092C165.565 17.0346 165.295 18.253 164.727 19.34C164.202 20.2182 163.232 20.8434 161.807 21.2066C163.738 21.4671 165.044 22.1981 165.724 23.3996C166.405 24.6011 166.743 26.1933 166.74 28.1764V28.5258C166.74 31.3701 165.957 33.4834 164.391 34.8657C162.825 36.248 160.255 36.9407 156.681 36.9437H144.162ZM149.973 19.6803H155.982C157.821 19.6803 158.923 19.1914 159.288 18.2137C159.518 17.4166 159.617 16.5875 159.582 15.7586C159.63 14.9495 159.507 14.1394 159.219 13.3817C159.085 13.1239 158.899 12.8972 158.671 12.7165C158.444 12.5358 158.181 12.4053 157.899 12.3335C156.921 12.0926 155.913 11.9904 154.906 12.0301H149.973V19.6803ZM149.973 32.8704H155.61C156.533 32.8901 157.455 32.8316 158.368 32.6957C158.964 32.6083 159.522 32.3496 159.973 31.9509C160.388 31.5658 160.67 31.0586 160.777 30.5027C160.912 29.7906 160.974 29.0665 160.961 28.3419C160.97 27.6988 160.944 27.0558 160.883 26.4155C160.857 25.9464 160.734 25.4877 160.522 25.0684C160.31 24.649 160.013 24.2781 159.651 23.9789C158.957 23.4502 157.812 23.1835 156.207 23.1835H149.973V32.8704Z" fill="white"/>
<path d="M172.653 36.9437V8.05786H191.581V12.4392H178.446V20.1124H190.092V24.3007H178.446V32.5762H191.779V36.9621L172.653 36.9437Z" fill="white"/>
</g>
<defs>
<clipPath id="clip0_1784_484">
<rect width="191.793" height="45" fill="white"/>
</clipPath>
</defs>
</svg>
