<svg width="192" height="58" viewBox="0 0 192 58" fill="none" xmlns="http://www.w3.org/2000/svg">
<g clip-path="url(#clip0_2376_3)">
<mask id="mask0_2376_3" style="mask-type:luminance" maskUnits="userSpaceOnUse" x="0" y="0" width="192" height="45">
<path d="M191.793 0H0V45H191.793V0Z" fill="white"/>
</mask>
<g mask="url(#mask0_2376_3)">
<path d="M22.5 45C34.9264 45 45 34.9264 45 22.5C45 10.0736 34.9264 0 22.5 0C10.0736 0 0 10.0736 0 22.5C0 34.9264 10.0736 45 22.5 45Z" fill="white"/>
<path d="M43.4354 22.4997C43.4435 25.2504 42.9056 27.9752 41.8528 30.5164C40.8 33.0576 39.2533 35.3646 37.3023 37.3036L37.238 37.3679L22.4985 6.60629L7.75904 37.3679L7.69468 37.3036C5.71826 35.3667 4.14542 33.0572 3.06709 30.5087C1.98877 27.9602 1.42636 25.2232 1.41238 22.4559C1.39841 19.6887 1.93314 16.9462 2.98567 14.3869C4.03819 11.8276 5.58763 9.50235 7.54438 7.54559C9.50113 5.58884 11.8263 4.03941 14.3856 2.98688C16.9449 1.93436 19.6875 1.39962 22.4547 1.4136C25.2219 1.42757 27.9589 1.98998 30.5074 3.06831C33.056 4.14663 35.3654 5.71948 37.3023 7.69589C39.2533 9.63489 40.8 11.9418 41.8528 14.483C42.9056 17.0242 43.4435 19.7491 43.4354 22.4997Z" fill="#10243E"/>
<path d="M35.8597 38.616C35.2914 39.0876 34.6991 39.5296 34.0851 39.94L22.4995 15.7988L10.9277 39.9538C10.3119 39.5389 9.718 39.0924 9.14844 38.616L22.4811 10.7507L35.8597 38.616Z" fill="#10243E"/>
<path d="M32.5268 40.8893C31.8904 41.2298 31.2367 41.5367 30.5683 41.8088L22.4997 24.9913L14.4312 41.8364C13.7627 41.5643 13.109 41.2574 12.4727 40.9169L22.4997 19.9617L32.5268 40.8893Z" fill="#10243E"/>
<path d="M28.8712 42.4521C24.7242 43.7625 20.274 43.7625 16.127 42.4521L22.4991 29.1516L28.8712 42.4521Z" fill="#10243E"/>
<path d="M39.2752 4.53538V1.88723H38.4062V1.42749H40.7694V1.88723H39.9005V4.53538H39.2752Z" fill="white"/>
<path d="M41.252 4.53253V1.40625H41.9416L42.829 2.91882L43.7071 1.40625H44.4105V4.53253H43.822V2.23379L43.0404 3.61303H42.6221L41.8405 2.23379V4.53253H41.252Z" fill="white"/>
<path d="M52.5762 36.9437L62.0884 8.05786H69.7984L79.4255 36.9437H73.2603L71.6373 31.4268H60.3276L58.6449 36.9437H52.5762ZM61.4815 27.5833H70.5202L66.079 12.4117L61.4815 27.5833Z" fill="white"/>
<path d="M96.3037 37.4505C94.3708 37.4915 92.4392 37.322 90.543 36.9448C89.3051 36.693 88.118 36.2361 87.0306 35.5931C86.1674 35.0498 85.4457 34.3092 84.9249 33.4323C84.4218 32.5958 84.0686 31.6778 83.8813 30.7198C83.6902 29.6472 83.6009 28.5588 83.6147 27.4694V17.8147C83.6147 14.3697 84.3135 11.956 85.7111 10.5737C87.2314 9.11406 89.1763 8.17543 91.2648 7.89337C92.7257 7.64696 94.2063 7.53615 95.6876 7.56235C101.649 7.56235 105.204 9.19292 106.354 12.4541C106.912 14.1436 107.176 15.9163 107.135 17.6952V18.0492L101.444 18.7158V17.2584C101.444 15.2493 101.048 13.8885 100.257 13.1851C99.4667 12.4816 97.9588 12.1276 95.729 12.1276C93.4992 12.1276 91.8901 12.4862 90.9062 13.1943C89.9224 13.9023 89.4259 15.2217 89.4259 17.1389V28.0441C89.4259 29.975 89.9316 31.2638 90.943 31.9105C91.9545 32.5572 93.5621 32.8806 95.7658 32.8806C96.689 32.897 97.6119 32.834 98.5243 32.6921C99.1452 32.5948 99.7309 32.3399 100.225 31.9519C100.697 31.5657 101.029 31.0363 101.172 30.4439C101.365 29.6247 101.451 28.7842 101.43 27.9429V27.0234H107.122V27.5475C107.122 30.4072 106.702 32.473 105.862 33.7449C104.982 35.0448 103.709 36.0291 102.23 36.554C100.324 37.2031 98.3167 37.5067 96.3037 37.4505Z" fill="white"/>
<path d="M125.18 37.4537C119.755 37.4537 116.199 36.1633 114.514 33.5826C113.57 32.1206 113.098 30.1897 113.098 27.7898V8.0437H118.913V28.0473C118.913 29.8587 119.428 31.123 120.467 31.8356C121.506 32.5482 123.088 32.9022 125.212 32.9022C127.336 32.9022 128.89 32.5482 129.809 31.8448C130.729 31.1414 131.189 29.8863 131.189 28.0473V8.0437H137.004V27.5508C137.004 31.3881 135.869 34.0638 133.598 35.5779C131.691 36.8284 128.885 37.4537 125.18 37.4537Z" fill="white"/>
<path d="M144.162 36.9437V8.05786H155.279C159.242 8.05786 161.954 8.67086 163.416 9.89685C164.16 10.5209 164.723 11.3319 165.048 12.2462C165.396 13.4005 165.552 14.6043 165.508 15.8092C165.565 17.0346 165.295 18.253 164.727 19.34C164.202 20.2182 163.232 20.8434 161.807 21.2066C163.738 21.4671 165.044 22.1981 165.724 23.3996C166.405 24.6011 166.743 26.1933 166.74 28.1764V28.5258C166.74 31.3701 165.957 33.4834 164.391 34.8657C162.825 36.248 160.255 36.9407 156.681 36.9437H144.162ZM149.973 19.6803H155.982C157.821 19.6803 158.923 19.1914 159.288 18.2137C159.518 17.4166 159.617 16.5875 159.582 15.7586C159.63 14.9495 159.507 14.1394 159.219 13.3817C159.085 13.1239 158.899 12.8972 158.671 12.7165C158.444 12.5358 158.181 12.4053 157.899 12.3335C156.921 12.0926 155.913 11.9904 154.906 12.0301H149.973V19.6803ZM149.973 32.8704H155.61C156.533 32.8901 157.455 32.8316 158.368 32.6957C158.964 32.6083 159.522 32.3496 159.973 31.9509C160.388 31.5658 160.67 31.0586 160.777 30.5027C160.912 29.7906 160.974 29.0665 160.961 28.3419C160.97 27.6988 160.944 27.0558 160.883 26.4155C160.857 25.9464 160.734 25.4877 160.522 25.0684C160.31 24.649 160.013 24.2781 159.651 23.9789C158.957 23.4502 157.812 23.1835 156.207 23.1835H149.973V32.8704Z" fill="white"/>
<path d="M172.652 36.9437V8.05786H191.58V12.4392H178.445V20.1124H190.091V24.3007H178.445V32.5762H191.778V36.9621L172.652 36.9437Z" fill="white"/>
</g>
</g>
<path d="M58.3867 48V56H56.6953V48H58.3867ZM64.1182 50.3008C64.0869 49.9857 63.9528 49.7409 63.7158 49.5664C63.4788 49.3919 63.1572 49.3047 62.751 49.3047C62.4749 49.3047 62.2419 49.3437 62.0518 49.4219C61.8617 49.4974 61.7158 49.6029 61.6143 49.7383C61.5153 49.8737 61.4658 50.0273 61.4658 50.1992C61.4606 50.3424 61.4906 50.4674 61.5557 50.5742C61.6234 50.681 61.7158 50.7734 61.833 50.8516C61.9502 50.9271 62.0856 50.9935 62.2393 51.0508C62.3929 51.1055 62.557 51.1523 62.7314 51.1914L63.4502 51.3633C63.7992 51.4414 64.1195 51.5456 64.4111 51.6758C64.7028 51.806 64.9554 51.9661 65.1689 52.1562C65.3825 52.3464 65.5479 52.5703 65.665 52.8281C65.7848 53.0859 65.846 53.3815 65.8486 53.7148C65.846 54.2044 65.721 54.6289 65.4736 54.9883C65.2288 55.3451 64.8747 55.6224 64.4111 55.8203C63.9502 56.0156 63.3942 56.1133 62.7432 56.1133C62.0973 56.1133 61.5348 56.0143 61.0557 55.8164C60.5791 55.6185 60.2067 55.3255 59.9385 54.9375C59.6729 54.5469 59.5335 54.0638 59.5205 53.4883H61.1572C61.1755 53.7565 61.2523 53.9805 61.3877 54.1602C61.5257 54.3372 61.7093 54.4714 61.9385 54.5625C62.1702 54.651 62.432 54.6953 62.7236 54.6953C63.0101 54.6953 63.2588 54.6536 63.4697 54.5703C63.6833 54.487 63.8486 54.3711 63.9658 54.2227C64.083 54.0742 64.1416 53.9036 64.1416 53.7109C64.1416 53.5312 64.0882 53.3802 63.9814 53.2578C63.8773 53.1354 63.7236 53.0312 63.5205 52.9453C63.32 52.8594 63.0739 52.7812 62.7822 52.7109L61.9111 52.4922C61.2367 52.3281 60.7041 52.0716 60.3135 51.7227C59.9229 51.3737 59.7288 50.9036 59.7314 50.3125C59.7288 49.8281 59.8577 49.4049 60.1182 49.043C60.3812 48.681 60.7419 48.3984 61.2002 48.1953C61.6585 47.9922 62.1794 47.8906 62.7627 47.8906C63.3564 47.8906 63.8747 47.9922 64.3174 48.1953C64.7627 48.3984 65.109 48.681 65.3564 49.043C65.6038 49.4049 65.7314 49.8242 65.7393 50.3008H64.1182ZM74.3379 52C74.3379 52.8724 74.1725 53.6146 73.8418 54.2266C73.5137 54.8385 73.0658 55.306 72.498 55.6289C71.9329 55.9492 71.2975 56.1094 70.5918 56.1094C69.8809 56.1094 69.2428 55.9479 68.6777 55.625C68.1126 55.3021 67.666 54.8346 67.3379 54.2227C67.0098 53.6107 66.8457 52.8698 66.8457 52C66.8457 51.1276 67.0098 50.3854 67.3379 49.7734C67.666 49.1615 68.1126 48.6953 68.6777 48.375C69.2428 48.0521 69.8809 47.8906 70.5918 47.8906C71.2975 47.8906 71.9329 48.0521 72.498 48.375C73.0658 48.6953 73.5137 49.1615 73.8418 49.7734C74.1725 50.3854 74.3379 51.1276 74.3379 52ZM72.623 52C72.623 51.4349 72.5384 50.9583 72.3691 50.5703C72.2025 50.1823 71.9668 49.888 71.6621 49.6875C71.3574 49.487 71.0007 49.3867 70.5918 49.3867C70.1829 49.3867 69.8262 49.487 69.5215 49.6875C69.2168 49.888 68.9798 50.1823 68.8105 50.5703C68.6439 50.9583 68.5605 51.4349 68.5605 52C68.5605 52.5651 68.6439 53.0417 68.8105 53.4297C68.9798 53.8177 69.2168 54.112 69.5215 54.3125C69.8262 54.513 70.1829 54.6133 70.5918 54.6133C71.0007 54.6133 71.3574 54.513 71.6621 54.3125C71.9668 54.112 72.2025 53.8177 72.3691 53.4297C72.5384 53.0417 72.623 52.5651 72.623 52ZM78.0898 56V54.7812L80.9375 52.1445C81.1797 51.9102 81.3828 51.6992 81.5469 51.5117C81.7135 51.3242 81.8398 51.1406 81.9258 50.9609C82.0117 50.7786 82.0547 50.582 82.0547 50.3711C82.0547 50.1367 82.0013 49.9349 81.8945 49.7656C81.7878 49.5937 81.6419 49.4622 81.457 49.3711C81.2721 49.2773 81.0625 49.2305 80.8281 49.2305C80.5833 49.2305 80.3698 49.2799 80.1875 49.3789C80.0052 49.4779 79.8646 49.6198 79.7656 49.8047C79.6667 49.9896 79.6172 50.2096 79.6172 50.4648H78.0117C78.0117 49.9414 78.1302 49.487 78.3672 49.1016C78.6042 48.7161 78.9362 48.418 79.3633 48.207C79.7904 47.9961 80.2826 47.8906 80.8398 47.8906C81.4128 47.8906 81.9115 47.9922 82.3359 48.1953C82.763 48.3958 83.0951 48.6745 83.332 49.0312C83.569 49.388 83.6875 49.7969 83.6875 50.2578C83.6875 50.5599 83.6276 50.8581 83.5078 51.1523C83.3906 51.4466 83.181 51.7734 82.8789 52.1328C82.5768 52.4896 82.151 52.918 81.6016 53.418L80.4336 54.5625V54.6172H83.793V56H78.0898ZM85.335 56L88.6514 49.4375V49.3828H84.7881V48H90.4014V49.4023L87.0811 56H85.335ZM94.5254 56.1758C93.8535 56.1732 93.2754 56.0078 92.791 55.6797C92.3092 55.3516 91.9382 54.8763 91.6777 54.2539C91.4199 53.6315 91.2923 52.8828 91.2949 52.0078C91.2949 51.1354 91.4238 50.3919 91.6816 49.7773C91.9421 49.1628 92.3132 48.6953 92.7949 48.375C93.2793 48.0521 93.8561 47.8906 94.5254 47.8906C95.1947 47.8906 95.7702 48.0521 96.252 48.375C96.7363 48.6979 97.1087 49.1667 97.3691 49.7812C97.6296 50.3932 97.7585 51.1354 97.7559 52.0078C97.7559 52.8854 97.6257 53.6354 97.3652 54.2578C97.1074 54.8802 96.7376 55.3555 96.2559 55.6836C95.7741 56.0117 95.1973 56.1758 94.5254 56.1758ZM94.5254 54.7734C94.9837 54.7734 95.3496 54.543 95.623 54.082C95.8965 53.6211 96.0319 52.9297 96.0293 52.0078C96.0293 51.401 95.9668 50.8958 95.8418 50.4922C95.7194 50.0885 95.5449 49.7852 95.3184 49.582C95.0944 49.3789 94.8301 49.2773 94.5254 49.2773C94.0697 49.2773 93.7051 49.5052 93.4316 49.9609C93.1582 50.4167 93.0202 51.099 93.0176 52.0078C93.0176 52.6224 93.0788 53.1354 93.2012 53.5469C93.3262 53.9557 93.502 54.263 93.7285 54.4687C93.9551 54.6719 94.2207 54.7734 94.5254 54.7734ZM102.099 56.1758C101.427 56.1732 100.849 56.0078 100.364 55.6797C99.8825 55.3516 99.5114 54.8763 99.251 54.2539C98.9932 53.6315 98.8656 52.8828 98.8682 52.0078C98.8682 51.1354 98.9971 50.3919 99.2549 49.7773C99.5153 49.1628 99.8864 48.6953 100.368 48.375C100.853 48.0521 101.429 47.8906 102.099 47.8906C102.768 47.8906 103.343 48.0521 103.825 48.375C104.31 48.6979 104.682 49.1667 104.942 49.7812C105.203 50.3932 105.332 51.1354 105.329 52.0078C105.329 52.8854 105.199 53.6354 104.938 54.2578C104.681 54.8802 104.311 55.3555 103.829 55.6836C103.347 56.0117 102.771 56.1758 102.099 56.1758ZM102.099 54.7734C102.557 54.7734 102.923 54.543 103.196 54.082C103.47 53.6211 103.605 52.9297 103.603 52.0078C103.603 51.401 103.54 50.8958 103.415 50.4922C103.293 50.0885 103.118 49.7852 102.892 49.582C102.668 49.3789 102.403 49.2773 102.099 49.2773C101.643 49.2773 101.278 49.5052 101.005 49.9609C100.731 50.4167 100.593 51.099 100.591 52.0078C100.591 52.6224 100.652 53.1354 100.774 53.5469C100.899 53.9557 101.075 54.263 101.302 54.4687C101.528 54.6719 101.794 54.7734 102.099 54.7734ZM110.016 48V56H108.324V49.6055H108.277L106.445 50.7539V49.2539L108.426 48H110.016ZM112.905 55.0703C112.647 55.0703 112.426 54.9792 112.241 54.7969C112.059 54.6146 111.968 54.3932 111.968 54.1328C111.968 53.8776 112.059 53.6589 112.241 53.4766C112.426 53.2943 112.647 53.2031 112.905 53.2031C113.155 53.2031 113.374 53.2943 113.562 53.4766C113.749 53.6589 113.843 53.8776 113.843 54.1328C113.843 54.3047 113.799 54.4622 113.71 54.6055C113.624 54.7461 113.511 54.8594 113.37 54.9453C113.229 55.0286 113.075 55.0703 112.905 55.0703ZM112.905 51.1445C112.647 51.1445 112.426 51.0534 112.241 50.8711C112.059 50.6888 111.968 50.4674 111.968 50.207C111.968 49.9518 112.059 49.7344 112.241 49.5547C112.426 49.3724 112.647 49.2812 112.905 49.2812C113.155 49.2812 113.374 49.3724 113.562 49.5547C113.749 49.7344 113.843 49.9518 113.843 50.207C113.843 50.3815 113.799 50.5404 113.71 50.6836C113.624 50.8242 113.511 50.9362 113.37 51.0195C113.229 51.1029 113.075 51.1445 112.905 51.1445ZM115.193 56V54.7812L118.041 52.1445C118.283 51.9102 118.486 51.6992 118.65 51.5117C118.817 51.3242 118.943 51.1406 119.029 50.9609C119.115 50.7786 119.158 50.582 119.158 50.3711C119.158 50.1367 119.105 49.9349 118.998 49.7656C118.891 49.5937 118.745 49.4622 118.561 49.3711C118.376 49.2773 118.166 49.2305 117.932 49.2305C117.687 49.2305 117.473 49.2799 117.291 49.3789C117.109 49.4779 116.968 49.6198 116.869 49.8047C116.77 49.9896 116.721 50.2096 116.721 50.4648H115.115C115.115 49.9414 115.234 49.487 115.471 49.1016C115.708 48.7161 116.04 48.418 116.467 48.207C116.894 47.9961 117.386 47.8906 117.943 47.8906C118.516 47.8906 119.015 47.9922 119.439 48.1953C119.867 48.3958 120.199 48.6745 120.436 49.0312C120.673 49.388 120.791 49.7969 120.791 50.2578C120.791 50.5599 120.731 50.8581 120.611 51.1523C120.494 51.4466 120.285 51.7734 119.982 52.1328C119.68 52.4896 119.255 52.918 118.705 53.418L117.537 54.5625V54.6172H120.896V56H115.193ZM125.259 56.1758C124.587 56.1732 124.009 56.0078 123.524 55.6797C123.043 55.3516 122.672 54.8763 122.411 54.2539C122.153 53.6315 122.026 52.8828 122.028 52.0078C122.028 51.1354 122.157 50.3919 122.415 49.7773C122.675 49.1628 123.047 48.6953 123.528 48.375C124.013 48.0521 124.59 47.8906 125.259 47.8906C125.928 47.8906 126.504 48.0521 126.985 48.375C127.47 48.6979 127.842 49.1667 128.103 49.7812C128.363 50.3932 128.492 51.1354 128.489 52.0078C128.489 52.8854 128.359 53.6354 128.099 54.2578C127.841 54.8802 127.471 55.3555 126.989 55.6836C126.507 56.0117 125.931 56.1758 125.259 56.1758ZM125.259 54.7734C125.717 54.7734 126.083 54.543 126.356 54.082C126.63 53.6211 126.765 52.9297 126.763 52.0078C126.763 51.401 126.7 50.8958 126.575 50.4922C126.453 50.0885 126.278 49.7852 126.052 49.582C125.828 49.3789 125.563 49.2773 125.259 49.2773C124.803 49.2773 124.438 49.5052 124.165 49.9609C123.892 50.4167 123.754 51.099 123.751 52.0078C123.751 52.6224 123.812 53.1354 123.935 53.5469C124.06 53.9557 124.235 54.263 124.462 54.4687C124.688 54.6719 124.954 54.7734 125.259 54.7734ZM129.695 56V54.7812L132.543 52.1445C132.785 51.9102 132.988 51.6992 133.152 51.5117C133.319 51.3242 133.445 51.1406 133.531 50.9609C133.617 50.7786 133.66 50.582 133.66 50.3711C133.66 50.1367 133.607 49.9349 133.5 49.7656C133.393 49.5937 133.247 49.4622 133.063 49.3711C132.878 49.2773 132.668 49.2305 132.434 49.2305C132.189 49.2305 131.975 49.2799 131.793 49.3789C131.611 49.4779 131.47 49.6198 131.371 49.8047C131.272 49.9896 131.223 50.2096 131.223 50.4648H129.617C129.617 49.9414 129.736 49.487 129.973 49.1016C130.21 48.7161 130.542 48.418 130.969 48.207C131.396 47.9961 131.888 47.8906 132.445 47.8906C133.018 47.8906 133.517 47.9922 133.941 48.1953C134.368 48.3958 134.701 48.6745 134.938 49.0312C135.174 49.388 135.293 49.7969 135.293 50.2578C135.293 50.5599 135.233 50.8581 135.113 51.1523C134.996 51.4466 134.786 51.7734 134.484 52.1328C134.182 52.4896 133.757 52.918 133.207 53.418L132.039 54.5625V54.6172H135.398V56H129.695ZM136.624 56V54.7812L139.472 52.1445C139.714 51.9102 139.917 51.6992 140.081 51.5117C140.248 51.3242 140.374 51.1406 140.46 50.9609C140.546 50.7786 140.589 50.582 140.589 50.3711C140.589 50.1367 140.535 49.9349 140.429 49.7656C140.322 49.5937 140.176 49.4622 139.991 49.3711C139.806 49.2773 139.597 49.2305 139.362 49.2305C139.118 49.2305 138.904 49.2799 138.722 49.3789C138.539 49.4779 138.399 49.6198 138.3 49.8047C138.201 49.9896 138.151 50.2096 138.151 50.4648H136.546C136.546 49.9414 136.664 49.487 136.901 49.1016C137.138 48.7161 137.47 48.418 137.897 48.207C138.325 47.9961 138.817 47.8906 139.374 47.8906C139.947 47.8906 140.446 47.9922 140.87 48.1953C141.297 48.3958 141.629 48.6745 141.866 49.0312C142.103 49.388 142.222 49.7969 142.222 50.2578C142.222 50.5599 142.162 50.8581 142.042 51.1523C141.925 51.4466 141.715 51.7734 141.413 52.1328C141.111 52.4896 140.685 52.918 140.136 53.418L138.968 54.5625V54.6172H142.327V56H136.624ZM148.825 56.1172C148.211 56.1172 147.682 55.987 147.239 55.7266C146.799 55.4635 146.461 55.099 146.224 54.6328C145.989 54.1667 145.872 53.6302 145.872 53.0234C145.872 52.4089 145.991 51.8698 146.228 51.4062C146.467 50.9401 146.807 50.5768 147.247 50.3164C147.687 50.0534 148.211 49.9219 148.817 49.9219C149.341 49.9219 149.799 50.0169 150.192 50.207C150.586 50.3971 150.897 50.6641 151.126 51.0078C151.355 51.3516 151.481 51.7552 151.505 52.2188H149.935C149.89 51.9193 149.773 51.6784 149.583 51.4961C149.396 51.3112 149.149 51.2187 148.845 51.2187C148.587 51.2187 148.362 51.2891 148.169 51.4297C147.979 51.5677 147.83 51.7695 147.724 52.0352C147.617 52.3008 147.563 52.6224 147.563 53C147.563 53.3828 147.616 53.7083 147.72 53.9766C147.826 54.2448 147.976 54.4492 148.169 54.5898C148.362 54.7305 148.587 54.8008 148.845 54.8008C149.035 54.8008 149.205 54.7617 149.356 54.6836C149.51 54.6055 149.636 54.4922 149.735 54.3437C149.837 54.1927 149.903 54.0117 149.935 53.8008H151.505C151.479 54.2591 151.354 54.6628 151.13 55.0117C150.909 55.3581 150.603 55.6289 150.212 55.8242C149.821 56.0195 149.359 56.1172 148.825 56.1172ZM155.305 56.1172C154.688 56.1172 154.156 55.9922 153.711 55.7422C153.268 55.4896 152.927 55.1328 152.687 54.6719C152.448 54.2083 152.328 53.6602 152.328 53.0273C152.328 52.4102 152.448 51.8685 152.687 51.4023C152.927 50.9362 153.264 50.5729 153.699 50.3125C154.137 50.0521 154.65 49.9219 155.238 49.9219C155.634 49.9219 156.003 49.9857 156.344 50.1133C156.688 50.2383 156.987 50.4271 157.242 50.6797C157.5 50.9323 157.701 51.25 157.844 51.6328C157.987 52.013 158.059 52.4583 158.059 52.9687V53.4258H152.992V52.3945H156.492C156.492 52.1549 156.44 51.9427 156.336 51.7578C156.232 51.5729 156.087 51.4284 155.902 51.3242C155.72 51.2174 155.508 51.1641 155.266 51.1641C155.013 51.1641 154.789 51.2227 154.594 51.3398C154.401 51.4544 154.25 51.6094 154.141 51.8047C154.031 51.9974 153.975 52.2122 153.973 52.4492V53.4297C153.973 53.7266 154.027 53.9831 154.137 54.1992C154.249 54.4154 154.406 54.582 154.609 54.6992C154.813 54.8164 155.053 54.875 155.332 54.875C155.517 54.875 155.686 54.849 155.84 54.7969C155.993 54.7448 156.125 54.6667 156.234 54.5625C156.344 54.4583 156.427 54.3307 156.484 54.1797L158.023 54.2812C157.945 54.651 157.785 54.974 157.543 55.25C157.303 55.5234 156.993 55.737 156.613 55.8906C156.236 56.0417 155.799 56.1172 155.305 56.1172ZM159.145 56V50H160.758V51.0469H160.82C160.93 50.6745 161.113 50.3932 161.371 50.2031C161.629 50.0104 161.926 49.9141 162.262 49.9141C162.345 49.9141 162.435 49.9193 162.531 49.9297C162.628 49.9401 162.712 49.9544 162.785 49.9727V51.4492C162.707 51.4258 162.599 51.4049 162.461 51.3867C162.323 51.3685 162.197 51.3594 162.082 51.3594C161.837 51.3594 161.618 51.4128 161.426 51.5195C161.236 51.6237 161.085 51.7695 160.973 51.957C160.863 52.1445 160.809 52.3607 160.809 52.6055V56H159.145ZM167.138 50V51.25H163.524V50H167.138ZM164.345 48.5625H166.009V54.1562C166.009 54.3099 166.032 54.4297 166.079 54.5156C166.126 54.599 166.191 54.6576 166.274 54.6914C166.36 54.7253 166.459 54.7422 166.571 54.7422C166.649 54.7422 166.728 54.7357 166.806 54.7227C166.884 54.707 166.944 54.6953 166.985 54.6875L167.247 55.9258C167.164 55.9518 167.047 55.9818 166.896 56.0156C166.744 56.0521 166.561 56.0742 166.345 56.082C165.944 56.0977 165.592 56.0443 165.29 55.9219C164.991 55.7995 164.757 55.6094 164.591 55.3516C164.424 55.0937 164.342 54.7682 164.345 54.375V48.5625ZM168.222 56V50H169.886V56H168.222ZM169.058 49.2266C168.81 49.2266 168.598 49.1445 168.421 48.9805C168.246 48.8138 168.159 48.6146 168.159 48.3828C168.159 48.1536 168.246 47.957 168.421 47.793C168.598 47.6263 168.81 47.543 169.058 47.543C169.305 47.543 169.516 47.6263 169.69 47.793C169.868 47.957 169.956 48.1536 169.956 48.3828C169.956 48.6146 169.868 48.8138 169.69 48.9805C169.516 49.1445 169.305 49.2266 169.058 49.2266ZM174.445 50V51.25H170.742V50H174.445ZM171.59 56V49.5664C171.59 49.1315 171.674 48.7708 171.844 48.4844C172.016 48.1979 172.25 47.9831 172.547 47.8398C172.844 47.6966 173.181 47.625 173.559 47.625C173.814 47.625 174.047 47.6445 174.258 47.6836C174.471 47.7227 174.63 47.7578 174.734 47.7891L174.438 49.0391C174.372 49.0182 174.292 48.9987 174.195 48.9805C174.102 48.9622 174.005 48.9531 173.906 48.9531C173.661 48.9531 173.491 49.0104 173.395 49.125C173.298 49.237 173.25 49.3945 173.25 49.5977V56H171.59ZM175.462 56V50H177.126V56H175.462ZM176.298 49.2266C176.05 49.2266 175.838 49.1445 175.661 48.9805C175.487 48.8138 175.399 48.6146 175.399 48.3828C175.399 48.1536 175.487 47.957 175.661 47.793C175.838 47.6263 176.05 47.543 176.298 47.543C176.545 47.543 176.756 47.6263 176.931 47.793C177.108 47.957 177.196 48.1536 177.196 48.3828C177.196 48.6146 177.108 48.8138 176.931 48.9805C176.756 49.1445 176.545 49.2266 176.298 49.2266ZM181.193 56.1172C180.576 56.1172 180.045 55.9922 179.6 55.7422C179.157 55.4896 178.816 55.1328 178.576 54.6719C178.337 54.2083 178.217 53.6602 178.217 53.0273C178.217 52.4102 178.337 51.8685 178.576 51.4023C178.816 50.9362 179.153 50.5729 179.588 50.3125C180.025 50.0521 180.538 49.9219 181.127 49.9219C181.523 49.9219 181.891 49.9857 182.232 50.1133C182.576 50.2383 182.876 50.4271 183.131 50.6797C183.389 50.9323 183.589 51.25 183.732 51.6328C183.876 52.013 183.947 52.4583 183.947 52.9687V53.4258H178.881V52.3945H182.381C182.381 52.1549 182.329 51.9427 182.225 51.7578C182.12 51.5729 181.976 51.4284 181.791 51.3242C181.609 51.2174 181.396 51.1641 181.154 51.1641C180.902 51.1641 180.678 51.2227 180.482 51.3398C180.29 51.4544 180.139 51.6094 180.029 51.8047C179.92 51.9974 179.864 52.2122 179.861 52.4492V53.4297C179.861 53.7266 179.916 53.9831 180.025 54.1992C180.137 54.4154 180.295 54.582 180.498 54.6992C180.701 54.8164 180.942 54.875 181.221 54.875C181.406 54.875 181.575 54.849 181.729 54.7969C181.882 54.7448 182.014 54.6667 182.123 54.5625C182.232 54.4583 182.316 54.3307 182.373 54.1797L183.912 54.2812C183.834 54.651 183.674 54.974 183.432 55.25C183.192 55.5234 182.882 55.737 182.502 55.8906C182.124 56.0417 181.688 56.1172 181.193 56.1172ZM187.244 56.0977C186.788 56.0977 186.376 55.9805 186.006 55.7461C185.639 55.5091 185.347 55.1615 185.131 54.7031C184.917 54.2422 184.811 53.6771 184.811 53.0078C184.811 52.3203 184.921 51.7487 185.143 51.293C185.364 50.8346 185.658 50.4922 186.025 50.2656C186.395 50.0365 186.8 49.9219 187.24 49.9219C187.576 49.9219 187.856 49.9792 188.08 50.0938C188.307 50.2057 188.489 50.3464 188.627 50.5156C188.768 50.6823 188.874 50.8464 188.947 51.0078H188.998V48H190.658V56H189.018V55.0391H188.947C188.869 55.2057 188.758 55.3711 188.615 55.5352C188.475 55.6966 188.291 55.8307 188.064 55.9375C187.84 56.0443 187.567 56.0977 187.244 56.0977ZM187.771 54.7734C188.04 54.7734 188.266 54.7005 188.451 54.5547C188.639 54.4062 188.782 54.1992 188.881 53.9336C188.982 53.668 189.033 53.3568 189.033 53C189.033 52.6432 188.984 52.3333 188.885 52.0703C188.786 51.8073 188.643 51.6042 188.455 51.4609C188.268 51.3177 188.04 51.2461 187.771 51.2461C187.498 51.2461 187.268 51.3203 187.08 51.4687C186.893 51.6172 186.751 51.8229 186.654 52.0859C186.558 52.349 186.51 52.6536 186.51 53C186.51 53.349 186.558 53.6576 186.654 53.9258C186.753 54.1914 186.895 54.3997 187.08 54.5508C187.268 54.6992 187.498 54.7734 187.771 54.7734Z" fill="white"/>
<defs>
<clipPath id="clip0_2376_3">
<rect width="192" height="45" fill="white"/>
</clipPath>
</defs>
</svg>
