<svg width="179" height="107" viewBox="0 0 179 107" fill="none" xmlns="http://www.w3.org/2000/svg">
<g clip-path="url(#clip0_2012_1723)">
<path d="M76.5385 54.2705V61.0578H72.5527V54.907C72.5527 53.216 71.7464 52.4081 70.4258 52.4081C69.8146 52.4081 69.2025 52.6777 68.6158 53.3877C68.6403 53.6813 68.6648 53.9754 68.6648 54.2705V61.0578H64.7029V54.907C64.7029 53.216 63.8721 52.4081 62.5759 52.4081C61.9648 52.4081 61.3771 52.7017 60.7905 53.4611V61.0578H56.8291V48.7917H60.7905V49.8827C61.5968 49.1972 62.4291 48.8052 63.7488 48.8052C65.2406 48.8052 66.5113 49.3684 67.3926 50.398C68.6403 49.296 69.8376 48.8052 71.5986 48.8052C74.4355 48.8052 76.5385 50.8878 76.5385 54.27V54.2705Z" fill="#414042"/>
<path d="M87.9809 54.7253C87.9809 53.1815 86.9039 51.9323 85.3157 51.9323C83.7015 51.9323 82.626 53.1815 82.626 54.7253C82.626 56.3186 83.7015 57.5917 85.3157 57.5917C86.9054 57.5932 87.9809 56.3186 87.9809 54.7258V54.7253ZM91.722 54.7009C91.722 58.3277 89.0329 61.0229 85.2912 61.0229C81.5495 61.0229 78.8604 58.3277 78.8604 54.7009C78.8604 51.1229 81.5495 48.5017 85.2912 48.5017C89.0329 48.5017 91.722 51.1244 91.722 54.7009Z" fill="#414042"/>
<path d="M103.264 54.7782C103.264 53.1605 102.09 51.8379 100.477 51.8379C99.5975 51.8379 98.7407 52.1075 98.0078 52.9643V56.6401C98.7407 57.4973 99.5975 57.742 100.477 57.742C102.091 57.742 103.264 56.4428 103.264 54.7777V54.7782ZM107.153 54.7782C107.153 58.3312 104.463 61.0019 101.259 61.0019C99.9625 61.0019 98.8875 60.6588 98.0078 60.0956V61.0248H94.0459V42.7109H98.0078V49.5087C98.8875 48.9455 99.964 48.603 101.259 48.603C104.463 48.603 107.153 51.2492 107.153 54.7777V54.7782Z" fill="#414042"/>
<path d="M113.446 61.0308H109.483V48.7928H113.446V61.0308ZM109.116 45.0556C109.116 43.7075 110.144 42.7154 111.439 42.7154C112.711 42.7154 113.762 43.7075 113.762 45.0556C113.762 46.3777 112.711 47.3708 111.439 47.3708C110.144 47.3693 109.116 46.3777 109.116 45.0556Z" fill="#414042"/>
<path d="M52.1667 48.1262L48.1854 45.841L43.8691 53.3433C43.2424 54.4317 43.5735 55.8178 44.7268 56.4803C45.8587 57.1294 47.2248 56.717 47.8499 55.6285L52.1667 48.1262Z" fill="url(#paint0_linear_2012_1723)"/>
<path d="M39.1733 53.3448C38.5342 52.2358 37.1806 51.8429 36.0277 52.505C34.8963 53.154 34.5548 54.5201 35.1919 55.63L39.5083 63.1323L43.4896 60.8471L39.1733 53.3448Z" fill="url(#paint1_linear_2012_1723)"/>
<path d="M41.5045 44.6621H32.8418V49.2476H41.5045C42.7612 49.2476 43.8007 48.271 43.8007 46.9679C43.8007 45.6388 42.7612 44.6621 41.504 44.6621H41.5045Z" fill="url(#paint2_linear_2012_1723)"/>
<path d="M32.8636 44.6621C31.5834 44.6621 30.5674 45.6402 30.5674 46.9679C30.5674 48.271 31.5819 49.2476 32.8641 49.2476C34.1208 49.2476 35.1603 48.271 35.1603 46.9679C35.1603 45.6388 34.1208 44.6621 32.8636 44.6621Z" fill="#00D78D"/>
<path d="M51.2141 44.9238C50.0268 44.3266 48.6852 44.8134 48.1195 45.9343C47.5438 47.0772 47.9602 48.4223 49.148 49.0199C50.3139 49.6061 51.6435 49.1398 52.2197 47.9979C52.7863 46.8755 52.3789 45.5099 51.2141 44.9238V44.9238Z" fill="#00D78D"/>
<path d="M39.2581 61.8836C39.332 60.5575 40.423 59.6378 41.6777 59.7067C42.9564 59.7781 43.9165 60.8092 43.8431 62.1353C43.7712 63.4374 42.7047 64.3571 41.4255 64.2862C40.1708 64.2183 39.1862 63.1843 39.2586 61.8836H39.2581Z" fill="#00D78D"/>
<path d="M122.369 61.7383H122.868V49.256H122.369V61.7383Z" fill="#00D78D"/>
<path d="M125.633 51.2307C125.698 51.5223 125.922 51.6975 126.333 51.6975C126.676 51.6975 126.91 51.5497 126.91 51.3181C126.91 51.1288 126.759 51.0135 126.544 50.981L126.064 50.8977C125.711 50.8422 125.437 50.685 125.437 50.3235C125.437 49.94 125.775 49.6904 126.283 49.6904C126.713 49.6904 127.162 49.8801 127.198 50.3699H126.91C126.869 50.0928 126.64 49.9445 126.283 49.9445C125.949 49.9445 125.744 50.0928 125.744 50.301C125.744 50.4628 125.858 50.5876 126.16 50.634L126.58 50.7079C126.887 50.7589 127.211 50.8927 127.211 51.3001C127.211 51.716 126.841 51.9617 126.324 51.9617C125.775 51.9617 125.41 51.716 125.341 51.2307H125.633Z" fill="#00D78D"/>
<path d="M129.88 51.8933H129.569V51.6571C129.377 51.8419 129.12 51.9532 128.805 51.9532C128.201 51.9532 127.712 51.4539 127.712 50.8248C127.712 50.2002 128.201 49.7004 128.805 49.7004C129.12 49.7004 129.377 49.8113 129.569 49.9965V49.7558H129.88V51.8933ZM129.569 51.2872V50.3665C129.39 50.1073 129.134 49.978 128.846 49.978C128.379 49.978 128.027 50.3665 128.027 50.8243C128.027 51.2872 128.379 51.6756 128.846 51.6756C129.134 51.6756 129.391 51.5458 129.569 51.2872Z" fill="#00D78D"/>
<mask id="mask0_2012_1723" style="mask-type:luminance" maskUnits="userSpaceOnUse" x="130" y="48" width="3" height="4">
<path d="M130.288 48.3923H132.095V51.8938H130.288V48.3923Z" fill="white"/>
</mask>
<g mask="url(#mask0_2012_1723)">
<path d="M132.067 49.7568V50.0299H131.216V51.8943H130.906V50.0299H130.288V49.7568H130.906V49.1971C130.906 48.7113 131.207 48.3923 131.656 48.3923C131.779 48.3923 131.939 48.4107 132.095 48.4572L132.044 48.7298C131.935 48.7027 131.823 48.6873 131.71 48.6839C131.413 48.6839 131.216 48.8871 131.216 49.1971V49.7568H132.067Z" fill="#00D78D"/>
</g>
<path d="M134.392 50.9492L134.373 50.9402V50.9492H132.586C132.631 51.3566 132.919 51.6801 133.376 51.6801C133.669 51.6801 133.893 51.5553 133.989 51.3516H134.328C134.204 51.7171 133.833 51.9532 133.367 51.9532C132.722 51.9532 132.27 51.4579 132.27 50.8248C132.27 50.1957 132.722 49.7004 133.367 49.7004C133.971 49.7004 134.392 50.1723 134.396 50.8153C134.396 50.8613 134.396 50.9077 134.392 50.9492M132.585 50.704H134.085C134.049 50.2741 133.778 49.973 133.36 49.973C132.916 49.973 132.631 50.3016 132.585 50.704Z" fill="#00D78D"/>
<path d="M138.352 51.8933H138.041V51.6571C137.849 51.8419 137.593 51.9532 137.278 51.9532C136.674 51.9532 136.185 51.4539 136.185 50.8248C136.185 50.2002 136.674 49.7004 137.278 49.7004C137.593 49.7004 137.849 49.8113 138.041 49.9965V49.7558H138.352V51.8933ZM138.041 51.2872V50.3665C137.863 50.1073 137.607 49.978 137.319 49.978C136.852 49.978 136.5 50.3665 136.5 50.8243C136.5 51.2872 136.852 51.6756 137.319 51.6756C137.607 51.6756 137.863 51.5458 138.041 51.2872Z" fill="#00D78D"/>
<path d="M141.119 50.6615V51.8918H140.808V50.6755C140.808 50.2311 140.547 49.9765 140.163 49.9765C139.893 49.9765 139.619 50.1203 139.436 50.3749V51.8918H139.125V49.7553H139.436V50.01C139.538 49.9058 139.659 49.8233 139.794 49.7676C139.928 49.7119 140.072 49.6841 140.218 49.6859C140.749 49.6859 141.119 50.0604 141.119 50.662" fill="#00D78D"/>
<path d="M143.844 51.8913H143.534V51.6556C143.341 51.8404 143.085 51.9467 142.77 51.9467C142.166 51.9467 141.677 51.4474 141.677 50.8233C141.677 50.1982 142.166 49.6989 142.77 49.6989C143.085 49.6989 143.341 49.8048 143.534 49.99V48.607H143.844V51.8913ZM143.534 51.2807V50.365C143.355 50.1008 143.099 49.9715 142.811 49.9715C142.344 49.9715 141.992 50.36 141.992 50.8228C141.992 51.2807 142.344 51.6691 142.811 51.6691C143.099 51.6691 143.355 51.5398 143.534 51.2807Z" fill="#00D78D"/>
<path d="M127.537 56.7414H127.226V56.5052C127.034 56.69 126.778 56.8013 126.462 56.8013C125.858 56.8013 125.369 56.302 125.369 55.6729C125.369 55.0478 125.858 54.5485 126.462 54.5485C126.778 54.5485 127.034 54.6594 127.226 54.8446V54.6039H127.537V56.7414ZM127.226 56.1353V55.2146C127.047 54.9554 126.792 54.8261 126.504 54.8261C126.037 54.8261 125.685 55.2146 125.685 55.6724C125.685 56.1353 126.037 56.5237 126.504 56.5237C126.792 56.5237 127.048 56.3939 127.226 56.1353Z" fill="#00D78D"/>
<path d="M129.725 54.6049V54.8781H128.874V56.7424H128.564V54.8781H127.946V54.6049H128.564V54.0452C128.564 53.5594 128.865 53.2404 129.314 53.2404C129.437 53.2404 129.597 53.2589 129.753 53.3053L129.702 53.5779C129.593 53.5509 129.481 53.5355 129.368 53.532C129.071 53.532 128.874 53.7352 128.874 54.0452V54.6049H129.725Z" fill="#00D78D"/>
<path d="M131.397 54.605V54.8781H130.546V56.7424H130.236V54.8781H129.618V54.605H130.236V54.0453C130.236 53.5594 130.537 53.2404 130.986 53.2404C131.109 53.2404 131.269 53.2589 131.425 53.3053L131.374 53.5779C131.265 53.5509 131.153 53.5355 131.04 53.532C130.743 53.532 130.546 53.7352 130.546 54.0453V54.605H131.397Z" fill="#00D78D"/>
<path d="M133.846 55.6724C133.846 56.3155 133.357 56.8108 132.725 56.8108C132.09 56.8108 131.601 56.3155 131.601 55.6724C131.601 55.0383 132.09 54.5485 132.725 54.5485C133.357 54.5485 133.846 55.0388 133.846 55.6724ZM133.535 55.6749C133.535 55.2156 133.188 54.8401 132.725 54.8401C132.264 54.8401 131.917 55.2156 131.917 55.6749C131.917 56.1482 132.264 56.5287 132.725 56.5287C133.188 56.5287 133.535 56.1482 133.535 55.6749Z" fill="#00D78D"/>
<path d="M134.773 54.9739C134.97 54.7058 135.258 54.5485 135.601 54.5485V54.8491C135.253 54.8581 134.961 55.0338 134.773 55.3439V56.7414H134.462V54.6034H134.773V54.9739Z" fill="#00D78D"/>
<path d="M138.078 56.7394H137.767V56.5037C137.575 56.6885 137.319 56.7948 137.003 56.7948C136.399 56.7948 135.91 56.2955 135.91 55.6709C135.91 55.0463 136.399 54.547 137.003 54.547C137.319 54.547 137.575 54.6529 137.767 54.8381V53.4551H138.078V56.7394ZM137.767 56.1288V55.2131C137.588 54.949 137.333 54.8196 137.045 54.8196C136.578 54.8196 136.226 55.2081 136.226 55.6709C136.226 56.1288 136.578 56.5177 137.045 56.5177C137.332 56.5177 137.589 56.3879 137.767 56.1288Z" fill="#00D78D"/>
<path d="M140.899 56.7414H140.588V56.5052C140.396 56.69 140.14 56.8013 139.824 56.8013C139.22 56.8013 138.731 56.302 138.731 55.6729C138.731 55.0478 139.221 54.5485 139.824 54.5485C140.14 54.5485 140.396 54.6594 140.588 54.8446V54.6039H140.899V56.7414ZM140.588 56.1353V55.2146C140.41 54.9554 140.154 54.8261 139.866 54.8261C139.399 54.8261 139.047 55.2146 139.047 55.6724C139.047 56.1353 139.399 56.5237 139.866 56.5237C140.154 56.5237 140.41 56.3939 140.588 56.1353Z" fill="#00D78D"/>
<path d="M143.84 55.6709C143.84 56.295 143.355 56.7953 142.746 56.7953C142.436 56.7953 142.175 56.684 141.982 56.4987V56.7394H141.672V53.4551H141.983V54.8431C142.175 54.6579 142.436 54.547 142.747 54.547C143.355 54.547 143.84 55.0463 143.84 55.6709M143.529 55.6709C143.529 55.2086 143.172 54.8196 142.71 54.8196C142.417 54.8196 142.161 54.9544 141.983 55.2221V56.1198C142.161 56.3879 142.417 56.5177 142.71 56.5177C143.172 56.5177 143.529 56.1293 143.529 55.6709" fill="#00D78D"/>
<mask id="mask1_2012_1723" style="mask-type:luminance" maskUnits="userSpaceOnUse" x="122" y="48" width="26" height="15">
<path d="M122.369 62.7389H147.829V48.3923H122.369V62.7389Z" fill="white"/>
</mask>
<g mask="url(#mask1_2012_1723)">
<path d="M144.483 56.7394H144.794V53.4551H144.483V56.7394Z" fill="#00D78D"/>
</g>
<mask id="mask2_2012_1723" style="mask-type:luminance" maskUnits="userSpaceOnUse" x="122" y="48" width="26" height="15">
<path d="M122.369 62.7389H147.829V48.3923H122.369V62.7389Z" fill="white"/>
</mask>
<g mask="url(#mask2_2012_1723)">
<path d="M147.563 55.7977L147.545 55.7883V55.7977H145.757C145.802 56.2047 146.091 56.5282 146.548 56.5282C146.841 56.5282 147.065 56.4034 147.161 56.2002H147.499C147.376 56.5652 147.005 56.8013 146.539 56.8013C145.894 56.8013 145.441 56.3065 145.441 55.6729C145.441 55.0438 145.894 54.5485 146.539 54.5485C147.142 54.5485 147.563 55.0204 147.568 55.6634C147.568 55.7094 147.568 55.7558 147.563 55.7977M145.757 55.5521H147.257C147.221 55.1222 146.95 54.8216 146.532 54.8216C146.087 54.8216 145.803 55.1497 145.757 55.5521Z" fill="#00D78D"/>
</g>
<mask id="mask3_2012_1723" style="mask-type:luminance" maskUnits="userSpaceOnUse" x="122" y="48" width="26" height="15">
<path d="M122.369 62.7389H147.829V48.3923H122.369V62.7389Z" fill="white"/>
</mask>
<g mask="url(#mask3_2012_1723)">
<path d="M127.139 60.877H127.464C127.377 61.3348 126.979 61.6494 126.471 61.6494C125.831 61.6494 125.369 61.1546 125.369 60.521C125.369 59.8914 125.831 59.3966 126.471 59.3966C126.979 59.3966 127.377 59.7111 127.464 60.169H127.139C127.07 59.8774 126.815 59.6877 126.471 59.6877C125.996 59.6877 125.685 60.0626 125.685 60.5205C125.685 60.9828 125.996 61.3578 126.471 61.3578C126.815 61.3578 127.07 61.1681 127.139 60.877" fill="#00D78D"/>
</g>
<mask id="mask4_2012_1723" style="mask-type:luminance" maskUnits="userSpaceOnUse" x="122" y="48" width="26" height="15">
<path d="M122.369 62.7389H147.829V48.3923H122.369V62.7389Z" fill="white"/>
</mask>
<g mask="url(#mask4_2012_1723)">
<path d="M130.135 61.5895H129.824V61.3533C129.631 61.538 129.375 61.6494 129.06 61.6494C128.456 61.6494 127.967 61.1501 127.967 60.521C127.967 59.8959 128.456 59.3966 129.06 59.3966C129.375 59.3966 129.631 59.5074 129.824 59.6927V59.452H130.135V61.5895ZM129.824 60.9828V60.0626C129.645 59.8035 129.389 59.6742 129.101 59.6742C128.634 59.6742 128.282 60.0626 128.282 60.5205C128.282 60.9828 128.634 61.3718 129.101 61.3718C129.389 61.3718 129.645 61.242 129.824 60.9828V60.9828Z" fill="#00D78D"/>
</g>
<mask id="mask5_2012_1723" style="mask-type:luminance" maskUnits="userSpaceOnUse" x="122" y="48" width="26" height="15">
<path d="M122.369 62.7389H147.829V48.3923H122.369V62.7389Z" fill="white"/>
</mask>
<g mask="url(#mask5_2012_1723)">
<path d="M131.217 59.822C131.414 59.5539 131.702 59.3966 132.045 59.3966V59.6972C131.698 59.7061 131.405 59.8819 131.217 60.192V61.589H130.906V59.452H131.217V59.822Z" fill="#00D78D"/>
</g>
<mask id="mask6_2012_1723" style="mask-type:luminance" maskUnits="userSpaceOnUse" x="122" y="48" width="26" height="15">
<path d="M122.369 62.7389H147.829V48.3923H122.369V62.7389Z" fill="white"/>
</mask>
<g mask="url(#mask6_2012_1723)">
<path d="M134.718 60.5205C134.718 61.1496 134.233 61.6494 133.624 61.6494C133.313 61.6494 133.053 61.5381 132.86 61.3483V62.7369H132.55V59.4525H132.861V59.6972C133.053 59.508 133.313 59.3971 133.625 59.3971C134.233 59.3971 134.718 59.8964 134.718 60.521M134.407 60.521C134.407 60.0632 134.05 59.6747 133.588 59.6747C133.295 59.6747 133.039 59.8045 132.861 60.0722V60.9744C133.039 61.2425 133.295 61.3723 133.588 61.3723C134.05 61.3723 134.407 60.9834 134.407 60.521" fill="#00D78D"/>
</g>
<mask id="mask7_2012_1723" style="mask-type:luminance" maskUnits="userSpaceOnUse" x="122" y="48" width="26" height="15">
<path d="M122.369 62.7389H147.829V48.3923H122.369V62.7389Z" fill="white"/>
</mask>
<g mask="url(#mask7_2012_1723)">
<path d="M137.467 60.5205C137.467 61.1636 136.978 61.6589 136.347 61.6589C135.711 61.6589 135.222 61.1636 135.222 60.5205C135.222 59.8864 135.711 59.3966 136.347 59.3966C136.978 59.3966 137.467 59.8869 137.467 60.5205ZM137.156 60.523C137.156 60.0636 136.809 59.6877 136.347 59.6877C135.885 59.6877 135.538 60.0636 135.538 60.523C135.538 60.9963 135.885 61.3768 136.347 61.3768C136.809 61.3768 137.156 60.9963 137.156 60.523Z" fill="#00D78D"/>
</g>
<mask id="mask8_2012_1723" style="mask-type:luminance" maskUnits="userSpaceOnUse" x="122" y="48" width="26" height="15">
<path d="M122.369 62.7389H147.829V48.3923H122.369V62.7389Z" fill="white"/>
</mask>
<g mask="url(#mask8_2012_1723)">
<path d="M140.209 60.5205C140.209 61.1636 139.719 61.6589 139.088 61.6589C138.452 61.6589 137.963 61.1636 137.963 60.5205C137.963 59.8864 138.452 59.3966 139.088 59.3966C139.719 59.3966 140.209 59.8869 140.209 60.5205ZM139.898 60.523C139.898 60.0636 139.55 59.6877 139.088 59.6877C138.626 59.6877 138.279 60.0636 138.279 60.523C138.279 60.9963 138.626 61.3768 139.088 61.3768C139.55 61.3768 139.898 60.9963 139.898 60.523Z" fill="#00D78D"/>
</g>
<mask id="mask9_2012_1723" style="mask-type:luminance" maskUnits="userSpaceOnUse" x="122" y="48" width="26" height="15">
<path d="M122.369 62.7389H147.829V48.3923H122.369V62.7389Z" fill="white"/>
</mask>
<g mask="url(#mask9_2012_1723)">
<path d="M140.843 61.5875H141.154V58.3032H140.843V61.5875Z" fill="#00D78D"/>
</g>
<mask id="mask10_2012_1723" style="mask-type:luminance" maskUnits="userSpaceOnUse" x="122" y="48" width="26" height="15">
<path d="M122.369 62.7389H147.829V48.3923H122.369V62.7389Z" fill="white"/>
</mask>
<g mask="url(#mask10_2012_1723)">
<path d="M141.937 58.6407C141.937 58.5208 142.049 58.428 142.189 58.428C142.333 58.428 142.446 58.5203 142.446 58.6407C142.446 58.7655 142.333 58.8534 142.189 58.8534C142.049 58.8534 141.937 58.7655 141.937 58.6407ZM142.006 61.5875H142.371V59.4505H142.006V61.5875Z" fill="#00D78D"/>
</g>
<mask id="mask11_2012_1723" style="mask-type:luminance" maskUnits="userSpaceOnUse" x="122" y="48" width="26" height="15">
<path d="M122.369 62.7389H147.829V48.3923H122.369V62.7389Z" fill="white"/>
</mask>
<g mask="url(#mask11_2012_1723)">
<path d="M145.134 60.3577V61.588H144.823V60.3717C144.823 59.9274 144.562 59.6727 144.178 59.6727C143.908 59.6727 143.633 59.8165 143.451 60.0711V61.588H143.14V59.451H143.451V59.7057C143.552 59.6015 143.674 59.519 143.808 59.4633C143.943 59.4076 144.087 59.3798 144.233 59.3816C144.763 59.3816 145.134 59.7561 145.134 60.3577Z" fill="#00D78D"/>
</g>
<mask id="mask12_2012_1723" style="mask-type:luminance" maskUnits="userSpaceOnUse" x="122" y="48" width="26" height="15">
<path d="M122.369 62.7389H147.829V48.3923H122.369V62.7389Z" fill="white"/>
</mask>
<g mask="url(#mask12_2012_1723)">
<path d="M147.827 61.6574C147.827 62.3 147.402 62.7119 146.776 62.7119C146.222 62.7119 145.806 62.3833 145.733 61.9165H146.053C146.117 62.2166 146.391 62.4208 146.776 62.4208C147.215 62.4208 147.512 62.1292 147.512 61.6569H147.517V61.2824C147.315 61.4721 147.041 61.588 146.721 61.588C146.117 61.588 145.655 61.0882 145.655 60.4915C145.655 59.8574 146.117 59.3766 146.721 59.3766C147.04 59.3766 147.315 59.492 147.517 59.6822V59.4505H147.828L147.827 61.6574ZM147.517 60.9034V60.0557C147.435 59.9308 147.323 59.8285 147.191 59.7584C147.059 59.6882 146.912 59.6524 146.762 59.6542C146.3 59.6542 145.971 60.0237 145.971 60.4895C145.971 60.9184 146.3 61.3059 146.762 61.3059C146.912 61.3077 147.059 61.272 147.191 61.2018C147.323 61.1316 147.435 61.0294 147.517 60.9044V60.9034Z" fill="#00D78D"/>
</g>
</g>
<defs>
<linearGradient id="paint0_linear_2012_1723" x1="44.7059" y1="56.4708" x2="50.1881" y2="46.9843" gradientUnits="userSpaceOnUse">
<stop offset="0.23" stop-color="#00D78D"/>
<stop offset="1" stop-color="white"/>
</linearGradient>
<linearGradient id="paint1_linear_2012_1723" x1="39.1832" y1="52.1819" x2="39.1832" y2="63.1313" gradientUnits="userSpaceOnUse">
<stop offset="0.23" stop-color="#00D78D"/>
<stop offset="1" stop-color="white"/>
</linearGradient>
<linearGradient id="paint2_linear_2012_1723" x1="43.1871" y1="49.0664" x2="32.6321" y2="45.2268" gradientUnits="userSpaceOnUse">
<stop offset="0.23" stop-color="#00D78D"/>
<stop offset="1" stop-color="white"/>
</linearGradient>
<clipPath id="clip0_2012_1723">
<rect width="117.333" height="21.4694" fill="white" transform="translate(30.5 42.7653)"/>
</clipPath>
</defs>
</svg>
