<svg width="50" height="50" viewBox="0 0 50 50" fill="none" xmlns="http://www.w3.org/2000/svg">
<g clip-path="url(#clip0_1743_2285)">
<path d="M-1.09278e-06 25C-4.90233e-07 38.7848 11.2152 50 25 50C38.7848 50 50 38.7848 50 25C50 11.2152 38.7848 -1.69534e-06 25 -1.09278e-06C11.2152 -4.90233e-07 -1.69534e-06 11.2152 -1.09278e-06 25ZM46.875 25C46.875 37.0621 37.0621 46.875 25 46.875C12.9379 46.875 3.125 37.0621 3.125 25C3.125 12.9379 12.9379 3.125 25 3.125C37.0621 3.125 46.875 12.9379 46.875 25ZM23.8953 14.5203C24.5059 13.9098 25.4945 13.9098 26.1047 14.5203L33.9172 22.3328C34.2223 22.6379 34.375 23.0379 34.375 23.4375C34.375 23.8371 34.2223 24.2371 33.9172 24.5422C33.3066 25.1527 32.318 25.1527 31.7078 24.5422L26.5625 19.3969L26.5625 34.375C26.5625 35.2379 25.8637 35.9375 25 35.9375C24.1363 35.9375 23.4375 35.2379 23.4375 34.375L23.4375 19.3969L18.2922 24.5422C17.6816 25.1527 16.693 25.1527 16.0828 24.5422C15.4727 23.9316 15.4723 22.943 16.0828 22.3328L23.8953 14.5203Z" fill="white"/>
</g>
<defs>
<clipPath id="clip0_1743_2285">
<rect width="50" height="50" fill="white" transform="translate(0 50) rotate(-90)"/>
</clipPath>
</defs>
</svg>
