<svg width="40" height="40" viewBox="0 0 40 40" fill="none" xmlns="http://www.w3.org/2000/svg">
<g clip-path="url(#clip0_1634_3699)">
<path d="M34.0204 5.81282C30.2767 2.06655 25.2987 0.00228568 19.995 0C9.0659 0 0.171815 8.89125 0.16744 19.8199C0.166166 23.3132 1.07894 26.7233 2.81387 29.7291L0.000976562 40L10.5118 37.2439C13.4077 38.8233 16.6684 39.6555 19.9865 39.6568H19.9949H19.995C30.9223 39.6568 39.8178 30.764 39.8224 19.8359C39.8242 14.5394 37.7636 9.55935 34.0204 5.81282ZM19.995 36.3092H19.9886C17.031 36.3076 14.1306 35.5136 11.6008 34.0124L10.9988 33.6555L4.76144 35.2909L6.42672 29.2117L6.03447 28.5885C4.38469 25.9653 3.51375 22.9339 3.51499 19.8211C3.51861 10.7376 10.911 3.34778 20.0012 3.34778C24.4032 3.34961 28.5405 5.06544 31.6522 8.17922C34.7636 11.293 36.4759 15.4323 36.4746 19.8345C36.4707 28.9183 29.078 36.3092 19.995 36.3092Z" fill="#E0E0E0"/>
<path d="M0.911133 38.8604L3.59554 29.0588C1.93943 26.1902 1.06852 22.9357 1.06956 19.6025C1.07391 9.17333 9.5618 0.688477 19.9908 0.688477C25.0524 0.690762 29.8031 2.66063 33.375 6.23587C36.9477 9.81107 38.914 14.5633 38.9119 19.6173C38.9076 30.0468 30.4192 38.5324 19.9915 38.5324C19.9908 38.5324 19.992 38.5324 19.9915 38.5324H19.9831C16.8165 38.5313 13.7051 37.7364 10.9416 36.2303L0.911133 38.8604Z" fill="url(#paint0_linear_1634_3699)"/>
<path fill-rule="evenodd" clip-rule="evenodd" d="M15.0958 11.4055C14.729 10.5899 14.3428 10.5736 13.9938 10.5594C13.7083 10.5471 13.3815 10.5479 13.0553 10.5479C12.7287 10.5479 12.1981 10.6706 11.7494 11.1606C11.3004 11.6507 10.0352 12.8353 10.0352 15.2447C10.0352 17.6544 11.7902 19.9827 12.0349 20.3097C12.2798 20.6363 15.4228 25.7387 20.4006 27.7017C24.5375 29.3331 25.3793 29.0086 26.2773 28.927C27.1752 28.8453 29.1747 27.7425 29.5829 26.5989C29.991 25.4556 29.991 24.4755 29.8686 24.2706C29.7461 24.0665 29.4196 23.9441 28.9298 23.6992C28.44 23.4543 26.0324 22.2694 25.5834 22.1061C25.1345 21.9428 24.8079 21.8612 24.4814 22.3515C24.1549 22.8413 23.2169 23.9441 22.9312 24.2706C22.6454 24.5979 22.3597 24.6387 21.8699 24.3938C21.3802 24.1482 19.8029 23.6316 17.9317 21.9632C16.4759 20.6653 15.493 19.0622 15.2073 18.5719C14.9216 18.0822 15.1766 17.8169 15.4223 17.5727C15.6422 17.3533 15.9121 17.001 16.157 16.7151C16.4014 16.4291 16.483 16.225 16.6463 15.8985C16.8095 15.5714 16.7279 15.2855 16.6055 15.0406C16.483 14.7957 15.5312 12.3739 15.0958 11.4055Z" fill="white"/>
<path d="M33.8584 5.75002C30.1577 2.04675 25.2368 0.00622459 19.994 0.00390625C9.19035 0.00390625 0.398372 8.79308 0.394029 19.5962C0.392755 23.0495 1.29505 26.4204 3.01006 29.3918L0.229492 39.5447L10.6197 36.8202C13.4824 38.3814 16.7056 39.2041 19.9856 39.2054H19.9939H19.994C30.7959 39.2054 39.5892 30.4147 39.5938 19.612C39.5956 14.3764 37.5586 9.45355 33.8584 5.75002ZM19.994 35.8963H19.9877C17.064 35.8948 14.1969 35.1098 11.6962 33.6259L11.101 33.2731L4.93529 34.8897L6.58144 28.8803L6.19369 28.2643C4.56286 25.6712 3.7019 22.6745 3.70318 19.5975C3.70674 10.6183 11.0143 3.31332 20.0002 3.31332C24.3517 3.31511 28.4414 5.01125 31.5174 8.08929C34.5931 11.1673 36.2857 15.2591 36.2844 19.6108C36.2805 28.5903 28.9727 35.8963 19.994 35.8963Z" fill="white"/>
</g>
<defs>
<linearGradient id="paint0_linear_1634_3699" x1="19.9115" y1="38.8604" x2="19.9115" y2="0.68854" gradientUnits="userSpaceOnUse">
<stop stop-color="#20B038"/>
<stop offset="1" stop-color="#60D66A"/>
</linearGradient>
<clipPath id="clip0_1634_3699">
<rect width="39.824" height="40" fill="white"/>
</clipPath>
</defs>
</svg>
