<svg width="98" height="23" viewBox="0 0 98 23" fill="none" xmlns="http://www.w3.org/2000/svg">
<g clip-path="url(#clip0_2496_855)">
<path d="M11.4968 22.9936C17.8463 22.9936 22.9936 17.8463 22.9936 11.4968C22.9936 5.14729 17.8463 0 11.4968 0C5.14729 0 0 5.14729 0 11.4968C0 17.8463 5.14729 22.9936 11.4968 22.9936Z" fill="white"/>
<path d="M22.1943 11.4967C22.1984 12.9021 21.9236 14.2945 21.3856 15.5929C20.8477 16.8914 20.0574 18.0702 19.0605 19.061L19.0276 19.0939L11.4962 3.37561L3.96476 19.0939L3.93187 19.061C2.92199 18.0713 2.11831 16.8912 1.56732 15.589C1.01633 14.2868 0.728958 12.8883 0.721816 11.4743C0.714675 10.0603 0.987908 8.65896 1.52572 7.35125C2.06352 6.04353 2.85524 4.8554 3.85508 3.85556C4.85492 2.85573 6.04304 2.06401 7.35076 1.5262C8.65847 0.988396 10.0598 0.715163 11.4738 0.722304C12.8878 0.729446 14.2863 1.01682 15.5885 1.56781C16.8907 2.1188 18.0708 2.92247 19.0605 3.93236C20.0574 4.92313 20.8477 6.10191 21.3856 7.40038C21.9236 8.69885 22.1984 10.0912 22.1943 11.4967Z" fill="#10243E"/>
<path d="M18.3234 19.7319C18.033 19.9729 17.7304 20.1987 17.4167 20.4085L11.4968 8.07303L5.58393 20.4155C5.26928 20.2035 4.96583 19.9753 4.6748 19.7319L11.4874 5.49365L18.3234 19.7319Z" fill="#10243E"/>
<path d="M16.6201 20.8931C16.2949 21.0671 15.9609 21.2239 15.6193 21.3629L11.4966 12.7697L7.37379 21.377C7.03224 21.238 6.6982 21.0811 6.37305 20.9072L11.4966 10.1997L16.6201 20.8931Z" fill="#10243E"/>
<path d="M14.7531 21.6916C12.6341 22.3612 10.3602 22.3612 8.24121 21.6916L11.4971 14.8955L14.7531 21.6916Z" fill="#10243E"/>
<path d="M20.069 2.31753V0.964408H19.625V0.729492H20.8325V0.964408H20.3885V2.31753H20.069Z" fill="#10243E"/>
<path d="M21.0791 2.31618V0.71875H21.4315L21.8849 1.49162L22.3336 0.71875H22.693V2.31618H22.3923V1.1416L21.9929 1.84635H21.7792L21.3798 1.1416V2.31618H21.0791Z" fill="#10243E"/>
<path d="M26.8652 18.877L31.7257 4.11719H35.6652L40.5843 18.877H37.4341L36.6049 16.058H30.8259L29.9661 18.877H26.8652ZM31.4156 14.0941H36.034L33.7647 6.34184L31.4156 14.0941Z" fill="#10243E"/>
<path d="M49.208 19.1361C48.2204 19.1571 47.2334 19.0705 46.2645 18.8777C45.632 18.7491 45.0254 18.5156 44.4698 18.1871C44.0287 17.9095 43.6599 17.531 43.3939 17.083C43.1367 16.6555 42.9563 16.1865 42.8606 15.697C42.7629 15.1489 42.7173 14.5928 42.7243 14.0361V9.10286C42.7243 7.34255 43.0814 6.10924 43.7956 5.40293C44.5724 4.6571 45.5661 4.17749 46.6333 4.03337C47.3798 3.90746 48.1363 3.85084 48.8932 3.86423C51.9393 3.86423 53.756 4.6974 54.3433 6.36373C54.6284 7.22705 54.7635 8.13284 54.7427 9.04178V9.22266L51.8344 9.56329V8.81861C51.8344 7.79203 51.6324 7.09667 51.2283 6.73725C50.8243 6.37783 50.0537 6.19694 48.9144 6.19694C47.775 6.19694 46.9528 6.38018 46.4501 6.74195C45.9474 7.10372 45.6937 7.77793 45.6937 8.75753V14.3297C45.6937 15.3164 45.9521 15.9749 46.4689 16.3054C46.9857 16.6358 47.8071 16.8011 48.9332 16.8011C49.4049 16.8095 49.8765 16.7772 50.3427 16.7047C50.66 16.655 50.9592 16.5248 51.2119 16.3265C51.4527 16.1292 51.6226 15.8587 51.6958 15.556C51.7941 15.1374 51.8383 14.7079 51.8273 14.2781V13.8082H54.7356V14.076C54.7356 15.5372 54.521 16.5928 54.0919 17.2427C53.6423 17.9069 52.992 18.4099 52.2361 18.678C51.262 19.0097 50.2366 19.1649 49.208 19.1361Z" fill="#10243E"/>
<path d="M63.9627 19.1379C61.1906 19.1379 59.374 18.4786 58.5126 17.1599C58.0302 16.4129 57.7891 15.4263 57.7891 14.2V4.11035H60.7608V14.3316C60.7608 15.2571 61.0239 15.9031 61.5548 16.2673C62.0857 16.6314 62.8938 16.8123 63.9791 16.8123C65.0644 16.8123 65.8584 16.6314 66.3283 16.272C66.7981 15.9125 67.033 15.2712 67.033 14.3316V4.11035H70.0047V14.0778C70.0047 16.0386 69.4245 17.4058 68.264 18.1795C67.2899 18.8185 65.8561 19.1379 63.9627 19.1379Z" fill="#10243E"/>
<path d="M73.6621 18.877V4.11719H79.3424C81.3674 4.11719 82.7534 4.43041 83.5004 5.05685C83.8802 5.37572 84.1681 5.7901 84.3344 6.25727C84.5122 6.8471 84.5916 7.46222 84.5693 8.07787C84.5982 8.70401 84.4604 9.3266 84.1699 9.88203C83.9021 10.3307 83.4064 10.6502 82.6782 10.8358C83.6648 10.9689 84.332 11.3424 84.6797 11.9563C85.0274 12.5703 85.2004 13.3838 85.1988 14.3971V14.5757C85.1988 16.029 84.7987 17.1088 83.9984 17.8152C83.1981 18.5215 81.885 18.8754 80.0589 18.877H73.6621ZM76.6314 10.0559H79.7018C80.6415 10.0559 81.2045 9.80607 81.3909 9.30649C81.5085 8.89921 81.5592 8.47556 81.5412 8.05203C81.566 7.63862 81.5027 7.22467 81.3556 6.83752C81.2874 6.70575 81.192 6.58991 81.0758 6.49761C80.9596 6.4053 80.8252 6.33861 80.6814 6.30191C80.1814 6.17879 79.6666 6.1266 79.1521 6.14686H76.6314V10.0559ZM76.6314 16.7956H79.5115C79.983 16.8057 80.4545 16.7758 80.921 16.7063C81.2254 16.6617 81.5103 16.5295 81.7409 16.3258C81.953 16.129 82.097 15.8699 82.152 15.5858C82.2209 15.2219 82.2523 14.852 82.2459 14.4817C82.2505 14.1531 82.2371 13.8245 82.206 13.4974C82.1926 13.2577 82.1298 13.0233 82.0214 12.809C81.9131 12.5948 81.7616 12.4052 81.5764 12.2523C81.2217 11.9822 80.6368 11.8459 79.8169 11.8459H76.6314V16.7956Z" fill="#10243E"/>
<path d="M88.2207 18.877V4.11719H97.8922V6.35594H91.1806V10.2767H97.1311V12.4168H91.1806V16.6453H97.9932V18.8864L88.2207 18.877Z" fill="#10243E"/>
</g>
<defs>
<clipPath id="clip0_2496_855">
<rect width="98" height="22.9936" fill="white"/>
</clipPath>
</defs>
</svg>
