<svg width="49" height="49" viewBox="0 0 49 49" fill="none" xmlns="http://www.w3.org/2000/svg">
<path d="M8.27306 43.3315H7.32617C6.92977 43.3315 6.6084 43.6528 6.6084 44.0493C6.6084 44.4458 6.92977 44.7671 7.32617 44.7671H8.27306C8.66946 44.7671 8.99083 44.4458 8.99083 44.0493C8.99083 43.6528 8.66955 43.3315 8.27306 43.3315Z" fill="black"/>
<path d="M8.27306 24.248H7.32617C6.92977 24.248 6.6084 24.5693 6.6084 24.9658C6.6084 25.3623 6.92977 25.6836 7.32617 25.6836H8.27306C8.66946 25.6836 8.99083 25.3623 8.99083 24.9658C8.99083 24.5693 8.66955 24.248 8.27306 24.248Z" fill="black"/>
<path d="M39.9671 22.3352H32.0459C31.6494 22.3352 31.3281 22.6565 31.3281 23.053C31.3281 23.4495 31.6494 23.7707 32.0459 23.7707H39.9671C40.3636 23.7707 40.6849 23.4495 40.6849 23.053C40.6849 22.6565 40.3636 22.3352 39.9671 22.3352Z" fill="black"/>
<path d="M39.9671 26.0593H32.0459C31.6494 26.0593 31.3281 26.3806 31.3281 26.7771C31.3281 27.1736 31.6494 27.4949 32.0459 27.4949H39.9671C40.3636 27.4949 40.6849 27.1736 40.6849 26.7771C40.6849 26.3806 40.3636 26.0593 39.9671 26.0593Z" fill="black"/>
<path d="M39.9671 29.7834H32.0459C31.6494 29.7834 31.3281 30.1047 31.3281 30.5012C31.3281 30.8977 31.6494 31.219 32.0459 31.219H39.9671C40.3636 31.219 40.6849 30.8977 40.6849 30.5012C40.6849 30.1047 40.3636 29.7834 39.9671 29.7834Z" fill="black"/>
<path d="M39.7936 14.3394H28.5937C28.1972 14.3394 27.876 14.6607 27.876 15.0571C27.876 15.4535 28.1972 15.7749 28.5937 15.7749H39.7936C40.0271 15.7749 40.2243 15.9721 40.2243 16.2056V17.8667C40.2243 18.1001 40.0271 18.2973 39.7936 18.2973H14.0186C13.7852 18.2973 13.588 18.1001 13.588 17.8667V16.2056C13.588 15.9721 13.7852 15.7749 14.0186 15.7749H25.2438C25.6403 15.7749 25.9616 15.4535 25.9616 15.0571C25.9616 14.6607 25.6403 14.3394 25.2438 14.3394H14.0186C12.9896 14.3394 12.1523 15.1767 12.1523 16.2057V17.8668C12.1523 18.8959 12.9896 19.7331 14.0186 19.7331H39.7936C40.8226 19.7331 41.6599 18.8958 41.6599 17.8668V16.2057C41.6599 15.1766 40.8226 14.3394 39.7936 14.3394Z" fill="black"/>
<path d="M48.2822 21.3409C47.8857 21.3409 47.5645 21.6622 47.5645 22.0587V35.4016C47.5645 36.682 46.5227 37.7236 45.2424 37.7236C43.7604 37.7236 17.078 37.7236 15.6002 37.7236V35.7816H44.6329C45.1785 35.7816 45.6225 35.3378 45.6225 34.7921C45.6225 33.5208 45.6225 7.30789 45.6225 5.97542C45.6225 5.42982 45.1786 4.98585 44.6329 4.98585C43.9198 4.98585 10.8847 4.98585 9.20653 4.98585C8.66092 4.98585 8.21696 5.42972 8.21696 5.97542C8.21696 6.47547 8.21696 20.9649 8.21696 21.6864H6.27476V5.36608C6.27476 4.08567 7.31639 3.04404 8.5968 3.04404H45.2422C46.5226 3.04404 47.5643 4.08576 47.5643 5.36608V18.7089C47.5643 19.1054 47.8855 19.4267 48.282 19.4267C48.6785 19.4267 48.9998 19.1054 48.9998 18.7089V5.36608C48.9998 3.29411 47.3142 1.6084 45.2421 1.6084H8.59671C6.52474 1.6084 4.83912 3.29411 4.83912 5.36608V21.6865H2.56331C1.14987 21.6865 0 22.8365 0 24.2499V27.3583V30.5483C0 30.7267 0 44.5041 0 44.8283C0 46.2418 1.14987 47.3915 2.56331 47.3915H13.0368C14.4503 47.3915 15.6002 46.2417 15.6002 44.8283C15.6002 44.4045 15.6002 39.9011 15.6002 39.1595H21.1512V42.5154H18.8264C17.7741 42.5154 16.9182 43.3714 16.9182 44.4236V45.4831C16.9182 46.5354 17.7742 47.3913 18.8264 47.3913H35.0129C36.0653 47.3913 36.9212 46.5353 36.9212 45.4831V44.4236C36.9212 43.3713 36.0652 42.5154 35.0129 42.5154H32.6881V39.1595H45.2422C47.3142 39.1595 48.9999 37.4738 48.9999 35.4018V22.0587C49 21.6622 48.6787 21.3409 48.2822 21.3409ZM15.6 6.42168H44.1866V10.0717H15.6V6.42168ZM9.65241 6.42168H14.1644V10.0717H9.65241V6.42168ZM1.43564 28.076H3.22174V29.8303H1.43564V28.076ZM14.1643 44.8283C14.1643 45.4499 13.6585 45.9559 13.0367 45.9559H2.56331C1.94153 45.9559 1.43564 45.4501 1.43564 44.8283V42.1496H14.1643V44.8283ZM14.1643 40.7139H1.43564V31.266C1.99569 31.266 13.6189 31.266 14.1643 31.266C14.1643 32.3087 14.1643 39.6806 14.1643 40.7139ZM14.1643 29.8303H4.65738V28.076H14.1643V29.8303ZM14.1643 26.6404C13.6188 26.6404 1.99569 26.6404 1.43564 26.6404V24.2498C1.43564 23.628 1.94143 23.1221 2.56331 23.1221C3.68906 23.1221 11.5913 23.1221 12.7113 23.1221C13.5125 23.1221 14.1643 23.774 14.1643 24.5753V26.6404ZM15.6 34.346V32.1132C15.7384 32.1462 15.8822 32.1654 16.0306 32.1654H27.4239C28.453 32.1654 29.2902 31.3282 29.2902 30.2991V23.255C29.2902 22.2259 28.4529 21.3887 27.4239 21.3887H16.0306C15.4099 21.3887 14.8605 21.6944 14.521 22.162C14.1018 21.8632 13.5896 21.6866 13.0367 21.6866H12.7113H9.65241V11.5073C11.0301 11.5073 42.3096 11.5073 44.1866 11.5073V34.346H15.6ZM15.6 30.2992C15.6 25.7809 15.6 27.7732 15.6 23.2551C15.6 23.0216 15.7972 22.8244 16.0306 22.8244H27.4239C27.6573 22.8244 27.8545 23.0216 27.8545 23.2551V30.2992C27.8545 30.5326 27.6573 30.7298 27.4239 30.7298H16.0306C15.7972 30.7298 15.6 30.5326 15.6 30.2992ZM22.5866 39.1594H31.2524V42.5153H22.5866V39.1594ZM35.0128 43.951C35.2735 43.9509 35.4856 44.163 35.4856 44.4236V45.4831C35.4856 45.7437 35.2735 45.9557 35.0129 45.9557H18.8261C18.5655 45.9557 18.3535 45.7436 18.3535 45.4831V44.4236C18.3535 44.163 18.5655 43.951 18.8261 43.951C19.3564 43.951 34.168 43.951 35.0128 43.951Z" fill="black"/>
</svg>
