<svg width="50" height="50" viewBox="0 0 50 50" fill="none" xmlns="http://www.w3.org/2000/svg">
<g clip-path="url(#clip0_1650_1087)">
<path d="M4.16631 26.6666C4.62656 26.6666 4.99961 26.2936 4.99961 25.8333V23.3333C4.99961 22.873 4.62656 22.5 4.16631 22.5C3.70605 22.5 3.33301 22.873 3.33301 23.3333V25.8333C3.33291 26.2935 3.70605 26.6666 4.16631 26.6666Z" fill="#10243E"/>
<path d="M16.9026 42.6706L14.6406 41.6061C14.2242 41.4101 13.7277 41.5889 13.5317 42.0054C13.3357 42.4218 13.5144 42.9183 13.9309 43.1142L16.1929 44.1787C16.6093 44.3747 17.1058 44.196 17.3018 43.7795C17.4977 43.3631 17.319 42.8666 16.9026 42.6706Z" fill="#10243E"/>
<path d="M46.6666 20.8333C46.6666 20.373 46.2936 20 45.8333 20C45.373 20 45 20.3731 45 20.8333V23.3333C45 23.7936 45.373 24.1666 45.8333 24.1666C46.2936 24.1666 46.6666 23.7936 46.6666 23.3333V20.8333Z" fill="#10243E"/>
<path d="M45.8333 25.8333C45.373 25.8333 45 26.2064 45 26.6666V29.1666C45 29.6268 45.373 29.9999 45.8333 29.9999C46.2936 29.9999 46.6666 29.6268 46.6666 29.1666V26.6666C46.6667 26.2064 46.2936 25.8333 45.8333 25.8333Z" fill="#10243E"/>
<path d="M46.6671 33.4169V31.6667C46.6671 31.2064 46.294 30.8334 45.8338 30.8334C45.3735 30.8334 45.0005 31.2064 45.0005 31.6667V33.4169C44.2666 33.5659 43.6031 33.9083 43.0646 34.3878C43.033 34.3588 42.9995 34.3312 42.9627 34.3066L37.9627 30.9733C37.5798 30.718 37.0624 30.8214 36.807 31.2045C36.5518 31.5874 36.6552 32.1047 37.0382 32.3601L42.0382 35.6934C42.0484 35.7003 42.0592 35.7058 42.0696 35.7122C41.8118 36.254 41.6671 36.8601 41.6671 37.5001C41.6671 37.8708 41.7161 38.2299 41.807 38.572L39.1296 39.832C38.7132 40.028 38.5345 40.5244 38.7304 40.9409C38.9264 41.3573 39.4228 41.536 39.8393 41.3401L42.5508 40.0641C43.3135 41.0392 44.5 41.6668 45.8338 41.6668C48.1348 41.6667 50.0004 39.801 50.0004 37.5C50.0004 35.4843 48.5689 33.8029 46.6671 33.4169ZM45.8337 40C44.4531 40 43.3337 38.8805 43.3337 37.5C43.3337 36.1194 44.4531 35 45.8337 35C47.2143 35 48.3337 36.1194 48.3337 37.5C48.3337 38.8805 47.2144 40 45.8337 40Z" fill="#10243E"/>
<path d="M35.3589 41.6061L33.0969 42.6706C32.6804 42.8666 32.5017 43.363 32.6976 43.7795C32.8936 44.1959 33.39 44.3746 33.8065 44.1787L36.0685 43.1142C36.4849 42.9183 36.6637 42.4219 36.4678 42.0054C36.2718 41.5889 35.7754 41.4101 35.3589 41.6061Z" fill="#10243E"/>
<path d="M30.0806 44.09L28.9826 44.6068C28.4588 42.9044 26.8739 41.6667 24.9997 41.6667C23.1256 41.6667 21.5407 42.9043 21.0169 44.6068L19.9189 44.09C19.5025 43.894 19.006 44.0727 18.81 44.4892C18.614 44.9056 18.7927 45.4021 19.2092 45.5981L20.87 46.3796C21.1374 48.4223 22.8838 50 24.9997 50C27.1155 50 28.8619 48.4223 29.1295 46.3795L30.7902 45.598C31.2066 45.402 31.3853 44.9056 31.1894 44.4891C30.9935 44.0727 30.497 43.894 30.0806 44.09ZM24.9997 48.3334C23.6191 48.3334 22.4997 47.2139 22.4997 45.8334C22.4997 44.4528 23.6191 43.3334 24.9997 43.3334C26.3802 43.3334 27.4997 44.4528 27.4997 45.8334C27.4997 47.214 26.3802 48.3334 24.9997 48.3334Z" fill="#10243E"/>
<path d="M32.9362 6.12981L35.2479 7.08167C35.6735 7.25686 36.1605 7.05393 36.3358 6.62835C36.5111 6.20276 36.308 5.71575 35.8826 5.54046L33.5708 4.5886C33.1452 4.4134 32.6582 4.61633 32.4829 5.04192C32.3076 5.4676 32.5106 5.95462 32.9362 6.12981Z" fill="#10243E"/>
<path d="M14.7524 7.08167L17.0641 6.12981C17.4897 5.95462 17.6927 5.46751 17.5175 5.04192C17.3423 4.61633 16.8552 4.4134 16.4296 4.5886L14.1178 5.54046C13.6923 5.71565 13.4893 6.20276 13.6645 6.62835C13.8398 7.05393 14.3268 7.25686 14.7524 7.08167Z" fill="#10243E"/>
<path d="M20.146 4.86055L20.8527 4.56953C21.0554 6.68154 22.8345 8.3333 24.9996 8.3333C27.1647 8.3333 28.9437 6.68154 29.1465 4.56953L29.8532 4.86055C30.2788 5.03574 30.7658 4.83281 30.9411 4.40723C31.1163 3.98164 30.9133 3.49463 30.4878 3.31934L28.8837 2.65889C28.2795 1.10332 26.7688 0 24.9997 0C23.2305 0 21.7199 1.10332 21.1155 2.65898L19.5114 3.31943C19.0858 3.49463 18.8829 3.98174 19.0581 4.40732C19.2333 4.83291 19.7205 5.03584 20.146 4.86055ZM24.9997 1.6667C26.3802 1.6667 27.4997 2.78613 27.4997 4.1667C27.4997 5.54727 26.3802 6.6667 24.9997 6.6667C23.6191 6.6667 22.4997 5.54727 22.4997 4.1667C22.4997 2.78604 23.6191 1.6667 24.9997 1.6667Z" fill="#10243E"/>
<path d="M34.1518 19.8476C34.1486 19.8301 34.146 19.8126 34.1417 19.7952C34.138 19.7802 34.1328 19.766 34.1283 19.7514C34.0946 19.6412 34.0377 19.5376 33.9573 19.4476C33.9528 19.4426 33.9484 19.4375 33.9438 19.4326C33.9264 19.414 33.9081 19.3962 33.8885 19.3789C33.8775 19.3692 33.8661 19.3602 33.8548 19.3511C33.8392 19.3387 33.8239 19.3261 33.8071 19.3146C33.7761 19.2931 33.7436 19.2738 33.71 19.2567C33.7087 19.2561 33.7077 19.2552 33.7065 19.2547L25.3732 15.088C25.1387 14.9707 24.8625 14.9707 24.6279 15.088L16.2946 19.2547C16.2934 19.2552 16.2924 19.2561 16.2912 19.2567C16.2575 19.2738 16.2251 19.2931 16.194 19.3146C16.1771 19.3261 16.162 19.3387 16.1463 19.3511C16.135 19.3602 16.1235 19.3691 16.1126 19.3788C16.0931 19.396 16.0747 19.4138 16.0572 19.4325C16.0526 19.4374 16.0482 19.4425 16.0437 19.4474C15.9634 19.5375 15.9064 19.641 15.8728 19.7512C15.8683 19.7658 15.8631 19.7801 15.8594 19.795C15.8551 19.8123 15.8524 19.8299 15.8493 19.8474C15.8458 19.8666 15.8422 19.8856 15.8399 19.9053C15.8381 19.9226 15.8375 19.9399 15.8366 19.9574C15.8359 19.9717 15.834 19.9854 15.834 20V29.1667C15.834 29.4823 16.0123 29.7709 16.2946 29.912L24.6279 34.0787C24.6316 34.0805 24.6354 34.0816 24.6392 34.0834C24.6605 34.0937 24.6826 34.1024 24.7048 34.111C24.7165 34.1155 24.7282 34.1208 24.7399 34.1248C24.7609 34.1318 24.7825 34.1369 24.804 34.1422C24.8173 34.1455 24.8305 34.1497 24.8438 34.1523C24.8628 34.156 24.8821 34.1577 24.9013 34.16C24.917 34.162 24.9327 34.1649 24.9483 34.1659C24.9656 34.167 24.9831 34.1661 25.0006 34.1661C25.0181 34.1661 25.0355 34.1671 25.0528 34.1659C25.0685 34.1649 25.0842 34.1619 25.0999 34.16C25.1191 34.1577 25.1385 34.156 25.1573 34.1523C25.1706 34.1497 25.1838 34.1455 25.1972 34.1422C25.2187 34.1369 25.2402 34.1317 25.2612 34.1248C25.273 34.1209 25.2847 34.1156 25.2964 34.111C25.3187 34.1025 25.3406 34.0937 25.362 34.0834C25.3657 34.0816 25.3695 34.0805 25.3732 34.0787L33.7065 29.912C33.9889 29.7709 34.1672 29.4823 34.1672 29.1667V20.0001C34.1672 19.9856 34.1652 19.9718 34.1645 19.9575C34.1637 19.9401 34.1632 19.9228 34.1612 19.9054C34.1589 19.8858 34.1553 19.8668 34.1518 19.8476ZM25.0004 16.7651L31.3013 19.9155L30.2465 20.3374L25.0004 22.4359L18.6995 19.9156L25.0004 16.7651ZM17.5004 21.2309L24.1671 23.8976V31.985L17.5004 28.6517V21.2309ZM32.5004 28.6517L25.8337 31.985V23.8976L32.5004 21.2309V28.6517Z" fill="#10243E"/>
<path d="M12.9622 16.8067L7.9622 13.4734C7.95195 13.4666 7.94121 13.461 7.93076 13.4547C8.18857 12.9129 8.3333 12.3067 8.3333 11.6668C8.3333 11.0306 8.19014 10.4281 7.93525 9.88875L10.8995 8.66814C11.3251 8.49295 11.528 8.00584 11.3528 7.58025C11.1776 7.15467 10.6905 6.95173 10.2649 7.12693L7.18271 8.39617C7.08877 8.43484 7.00644 8.48943 6.93584 8.55447C6.19961 7.899 5.22988 7.50008 4.1667 7.50008C1.86562 7.50008 0 9.3657 0 11.6668C0 13.6824 1.43154 15.3638 3.3333 15.7499V18.3334C3.3333 18.7936 3.70635 19.1667 4.1666 19.1667C4.62685 19.1667 4.9999 18.7936 4.9999 18.3334V15.7499C5.73379 15.6009 6.39726 15.2585 6.93584 14.7789C6.96738 14.8079 7.00088 14.8355 7.03769 14.8601L12.0377 18.1934C12.4206 18.4487 12.938 18.3453 13.1934 17.9623C13.4486 17.5794 13.3452 17.062 12.9622 16.8067ZM4.1667 14.1668C2.78613 14.1668 1.6667 13.0473 1.6667 11.6668C1.6667 10.2862 2.78613 9.16677 4.1667 9.16677C5.54726 9.16677 6.6667 10.2862 6.6667 11.6668C6.6667 13.0473 5.54726 14.1668 4.1667 14.1668Z" fill="#10243E"/>
<path d="M37.9626 18.1933L42.9626 14.86C42.9994 14.8355 43.0328 14.8079 43.0644 14.7788C43.603 15.2584 44.2665 15.6008 45.0004 15.7498V18.3333C45.0004 18.7935 45.3734 19.1666 45.8337 19.1666C46.2939 19.1666 46.667 18.7935 46.667 18.3333V15.7498C48.5688 15.3637 50.0004 13.6823 50.0004 11.6667C50.0004 9.3656 48.1347 7.49998 45.8337 7.49998C44.7705 7.49998 43.8008 7.8989 43.0645 8.55437C42.9939 8.48933 42.9116 8.43474 42.8177 8.39607L39.7354 7.12693C39.3098 6.95173 38.8228 7.15466 38.6475 7.58025C38.4723 8.00584 38.6753 8.49285 39.1009 8.66814L42.0651 9.88875C41.8101 10.4281 41.6671 11.0306 41.6671 11.6668C41.6671 12.3067 41.8118 12.9128 42.0696 13.4547C42.0592 13.461 42.0484 13.4666 42.0382 13.4734L37.0382 16.8067C36.6553 17.062 36.5517 17.5794 36.807 17.9624C37.0623 18.3452 37.5797 18.4486 37.9626 18.1933ZM45.8337 9.16668C47.2142 9.16668 48.3337 10.2861 48.3337 11.6667C48.3337 13.0472 47.2142 14.1667 45.8337 14.1667C44.4531 14.1667 43.3337 13.0472 43.3337 11.6667C43.3337 10.2861 44.4531 9.16668 45.8337 9.16668Z" fill="#10243E"/>
<path d="M12.0378 30.9734L7.03779 34.3067C7.00098 34.3312 6.96758 34.3589 6.93594 34.388C6.39736 33.9084 5.73389 33.566 5 33.417V29.1668C5 28.7065 4.62695 28.3335 4.1667 28.3335C3.70644 28.3335 3.3334 28.7065 3.3334 29.1668V33.417C1.43154 33.803 0 35.4845 0 37.5001C0 39.8012 1.86562 41.6668 4.1667 41.6668C5.50049 41.6668 6.68711 41.0393 7.44971 40.0642L10.1612 41.3401C10.5776 41.5361 11.0741 41.3574 11.2701 40.9409C11.4661 40.5245 11.2874 40.028 10.8709 39.832L8.19346 38.5721C8.28428 38.23 8.3334 37.8708 8.3334 37.5001C8.3334 36.8602 8.18867 36.2541 7.93086 35.7122C7.94131 35.7059 7.95205 35.7003 7.9623 35.6935L12.9623 32.3602C13.3452 32.1049 13.4487 31.5875 13.1935 31.2045C12.9381 30.8216 12.4207 30.7181 12.0378 30.9734ZM4.1667 40.0001C2.78613 40.0001 1.6667 38.8807 1.6667 37.5001C1.6667 36.1195 2.78613 35.0001 4.1667 35.0001C5.54726 35.0001 6.6667 36.1195 6.6667 37.5001C6.6667 38.8807 5.54726 40.0001 4.1667 40.0001Z" fill="#10243E"/>
</g>
<defs>
<clipPath id="clip0_1650_1087">
<rect width="50" height="50" fill="white"/>
</clipPath>
</defs>
</svg>
