<svg width="50" height="50" viewBox="0 0 50 50" fill="none" xmlns="http://www.w3.org/2000/svg">
<path fill-rule="evenodd" clip-rule="evenodd" d="M24.9997 3.125C23.9413 3.125 22.882 3.20104 21.832 3.35521C21.4288 3.41458 21.0986 3.70313 20.984 4.09375L20.1674 6.88229C18.5705 7.30833 17.0351 7.94583 15.6038 8.775L13.057 7.37708C12.6997 7.18125 12.2611 7.21146 11.934 7.45417C10.232 8.72187 8.72155 10.2323 7.45384 11.9344C7.21113 12.2615 7.18092 12.7 7.37676 13.0573L8.77467 15.6042C7.94551 17.0354 7.30801 18.5708 6.88197 20.1698C6.88197 20.1688 4.09342 20.9844 4.09342 20.9844C3.7028 21.099 3.41426 21.4292 3.35488 21.8323C3.04759 23.9333 3.04759 26.0667 3.35488 28.1677C3.43822 28.7365 3.96634 29.1302 4.53613 29.0469C5.10488 28.9635 5.49863 28.4354 5.4153 27.8667C5.16947 26.1854 5.14238 24.4792 5.33197 22.7927L8.0403 22.001C8.40176 21.8958 8.6778 21.6031 8.76217 21.2365C9.17676 19.4469 9.88613 17.7385 10.858 16.1802C11.057 15.8604 11.0674 15.4583 10.8861 15.1281L9.53092 12.6521C10.4518 11.499 11.4986 10.451 12.6518 9.53125C12.6518 9.53021 15.1278 10.8865 15.1278 10.8865C15.458 11.0677 15.8601 11.0573 16.1799 10.8583C17.7382 9.88646 19.4465 9.17708 21.2361 8.7625C21.6028 8.67812 21.8955 8.40208 22.0007 8.04062L22.7924 5.33229C24.259 5.16667 25.7403 5.16667 27.207 5.33229L27.9986 8.04062C28.1038 8.40208 28.3965 8.67812 28.7632 8.7625C30.5528 9.17708 32.2611 9.88646 33.8195 10.8583C34.1393 11.0573 34.5413 11.0677 34.8715 10.8865L37.3476 9.53125C38.5007 10.4521 39.5486 11.499 40.4684 12.6521C40.4695 12.6521 39.1132 15.1281 39.1132 15.1281C38.932 15.4583 38.9424 15.8604 39.1413 16.1802C40.1132 17.7385 40.8226 19.4469 41.2372 21.2365C41.3215 21.6031 41.5976 21.8958 41.959 22.001L44.6674 22.7927C44.857 24.4792 44.8299 26.1854 44.584 27.8667C44.5007 28.4354 44.8945 28.9635 45.4632 29.0469C46.033 29.1302 46.5611 28.7365 46.6445 28.1677C46.9518 26.0667 46.9518 23.9333 46.6445 21.8323C46.5851 21.4292 46.2965 21.099 45.9059 20.9844L43.1174 20.1677C42.6913 18.5708 42.0538 17.0354 41.2247 15.6042L42.6226 13.0573C42.8184 12.7 42.7882 12.2615 42.5455 11.9344C41.2778 10.2323 39.7674 8.72187 38.0653 7.45417C37.7382 7.21146 37.2997 7.18125 36.9424 7.37708L34.3955 8.775C32.9643 7.94583 31.4288 7.30833 29.8299 6.88229C29.8309 6.88229 29.0153 4.09375 29.0153 4.09375C28.9007 3.70313 28.5705 3.41458 28.1674 3.35521C27.1174 3.20104 26.058 3.125 24.9997 3.125ZM24.9997 11.4583C17.7132 11.4583 11.6674 16.8146 10.5872 23.8C10.4997 24.3687 10.8903 24.9 11.458 24.9875C12.0268 25.076 12.559 24.6844 12.6465 24.1167C13.5726 18.1292 18.7549 13.5417 24.9997 13.5417C31.2445 13.5417 36.4268 18.1292 37.3528 24.1167C37.4403 24.6844 37.9726 25.076 38.5413 24.9875C39.109 24.9 39.4997 24.3687 39.4122 23.8C38.332 16.8146 32.2861 11.4583 24.9997 11.4583ZM11.458 28.125C6.28405 28.125 2.08301 32.326 2.08301 37.5C2.08301 42.674 6.28405 46.875 11.458 46.875C12.808 46.875 14.7163 46.0948 16.7007 44.9323C20.957 42.4375 25.6872 38.2812 25.6872 38.2812C25.6872 38.2812 30.2455 34.2698 34.3507 31.8646C35.9497 30.9271 37.4538 30.2083 38.5413 30.2083C42.5653 30.2083 45.833 33.475 45.833 37.5C45.833 41.525 42.5653 44.7917 38.5413 44.7917C37.0643 44.7917 35.2643 43.999 33.6236 43.0885C31.0007 41.6365 28.7861 39.8198 28.7861 39.8198C28.3413 39.4552 27.684 39.5198 27.3195 39.9656C26.9549 40.4104 27.0184 41.0667 27.4632 41.4302C27.4632 41.4302 29.8226 43.3646 32.6153 44.9115C34.584 46.0021 36.7684 46.875 38.5413 46.875C43.7153 46.875 47.9163 42.674 47.9163 37.5C47.9163 32.326 43.7153 28.125 38.5413 28.125C37.1913 28.125 35.283 28.9052 33.2986 30.0677C29.0424 32.5625 24.3122 36.7167 24.3122 36.7167C24.3122 36.7167 19.7538 40.7281 15.6486 43.1333C14.0497 44.0708 12.5455 44.7917 11.458 44.7917C7.43405 44.7917 4.16634 41.525 4.16634 37.5C4.16634 33.475 7.43405 30.2083 11.458 30.2083C12.9351 30.2083 14.7351 31.001 16.3757 31.9115C18.9986 33.3635 21.2132 35.1802 21.2132 35.1802C21.658 35.5448 22.3153 35.4802 22.6799 35.0344C23.0445 34.5896 22.9809 33.9333 22.5361 33.5698C22.5361 33.5698 20.1768 31.6354 17.384 30.0885C15.4153 28.9979 13.2309 28.125 11.458 28.125ZM11.458 32.2917C8.58405 32.2917 6.24967 34.626 6.24967 37.5C6.24967 40.374 8.58405 42.7083 11.458 42.7083C12.033 42.7083 12.4997 42.2417 12.4997 41.6667C12.4997 41.0917 12.033 40.625 11.458 40.625C9.73405 40.625 8.33301 39.225 8.33301 37.5C8.33301 35.775 9.73405 34.375 11.458 34.375C12.3122 34.375 13.458 34.999 14.5528 35.6833C16.4028 36.8406 18.0663 38.2854 18.0663 38.2854C18.4997 38.6625 19.158 38.6177 19.5351 38.1833C19.9122 37.75 19.8674 37.0917 19.433 36.7146C19.433 36.7146 16.9893 34.5917 14.632 33.3167C13.4851 32.6979 12.3434 32.2917 11.458 32.2917ZM38.5413 32.2917C37.9663 32.2917 37.4997 32.7583 37.4997 33.3333C37.4997 33.9083 37.9663 34.375 38.5413 34.375C40.2663 34.375 41.6663 35.775 41.6663 37.5C41.6663 39.225 40.2663 40.625 38.5413 40.625C37.6872 40.625 36.5413 40.001 35.4465 39.3167C33.5965 38.1594 31.933 36.7146 31.933 36.7146C31.4997 36.3375 30.8413 36.3823 30.4643 36.8167C30.0872 37.25 30.132 37.9083 30.5663 38.2854C30.5663 38.2854 33.0101 40.4083 35.3674 41.6833C36.5143 42.3021 37.6559 42.7083 38.5413 42.7083C41.4163 42.7083 43.7497 40.374 43.7497 37.5C43.7497 34.626 41.4163 32.2917 38.5413 32.2917Z" fill="black"/>
</svg>
