<svg width="38" height="57" viewBox="0 0 38 57" fill="none" xmlns="http://www.w3.org/2000/svg">
<mask id="mask0_1657_263" style="mask-type:luminance" maskUnits="userSpaceOnUse" x="0" y="0" width="38" height="57">
<path d="M37.8431 0.97998H0.69043V56.719H37.8431V0.97998Z" fill="white"/>
</mask>
<g mask="url(#mask0_1657_263)">
<path d="M9.98464 56.7608C12.4492 56.7586 14.809 55.7788 16.5504 54.0352C18.2919 52.2937 19.2696 49.9319 19.2696 47.4673V38.1353H9.98464C7.51578 38.1353 5.14747 39.1172 3.39958 40.863C1.65384 42.6087 0.671875 44.9792 0.671875 47.448C0.671875 49.919 1.65384 52.2873 3.39958 54.0331C5.14747 55.7809 7.51578 56.7608 9.98464 56.7608Z" fill="#0ACF83"/>
<path d="M0.69043 28.8712C0.69043 26.4066 1.67028 24.0426 3.41174 22.2989C5.15534 20.5575 7.51935 19.5776 9.98393 19.5776H19.2667V38.1347H9.98393C7.52363 38.1347 5.16605 37.1592 3.42245 35.4241C1.68098 33.6869 0.698987 31.3315 0.69043 28.8712Z" fill="#A259FF"/>
<path d="M0.69043 10.2754C0.69043 7.81086 1.66814 5.44682 3.41174 3.70321C5.15534 1.95961 7.5172 0.981934 9.98178 0.981934H19.2667V19.5583H9.98178C7.51934 19.5583 5.15745 18.5805 3.41599 16.8391C1.67238 15.0997 0.692569 12.7379 0.69043 10.2754Z" fill="#F24E1E"/>
<path d="M19.2676 0.981934H28.5804C30.9915 1.06109 33.2785 2.07301 34.9557 3.80591C36.633 5.54096 37.5701 7.85791 37.5701 10.269C37.5701 12.6822 36.633 14.9992 34.9557 16.7321C33.2785 18.465 30.9915 19.4791 28.5804 19.5583H19.2676V0.981934Z" fill="#FF7262"/>
<path d="M37.8438 28.8716C37.8416 30.7093 37.2918 32.5043 36.267 34.0318C35.2423 35.5572 33.7875 36.7467 32.0867 37.4441C30.388 38.1437 28.5182 38.3234 26.7147 37.9597C24.9133 37.5982 23.2595 36.7082 21.9631 35.4053C20.6666 34.1003 19.7852 32.4422 19.4322 30.6387C19.0792 28.8331 19.2675 26.9654 19.9756 25.2688C20.6859 23.5723 21.8796 22.1239 23.4114 21.1077C24.9432 20.0915 26.7425 19.5524 28.5823 19.5567C29.8018 19.5609 31.0084 19.8027 32.1337 20.2734C33.2612 20.7419 34.2838 21.4286 35.1439 22.2951C36.0039 23.1594 36.6842 24.1842 37.1484 25.3138C37.6127 26.4412 37.8481 27.65 37.8438 28.8716Z" fill="#1ABCFE"/>
</g>
</svg>
