<svg width="50" height="50" viewBox="0 0 50 50" fill="none" xmlns="http://www.w3.org/2000/svg">
<path d="M27.3438 6.25H22.6562C22.225 6.25 21.875 5.9 21.875 5.46875C21.875 5.0375 22.225 4.6875 22.6562 4.6875H27.3438C27.775 4.6875 28.125 5.0375 28.125 5.46875C28.125 5.9 27.775 6.25 27.3438 6.25Z" fill="#10243E"/>
<path d="M33.5938 48.4375H16.4062C14.2516 48.4375 12.5 46.6844 12.5 44.5312V17.9688C12.5 17.5375 12.85 17.1875 13.2812 17.1875C13.7125 17.1875 14.0625 17.5375 14.0625 17.9688V44.5312C14.0625 45.8234 15.1141 46.875 16.4062 46.875H33.5938C34.8859 46.875 35.9375 45.8234 35.9375 44.5312V17.9688C35.9375 17.5375 36.2875 17.1875 36.7188 17.1875C37.15 17.1875 37.5 17.5375 37.5 17.9688V44.5312C37.5 46.6844 35.7484 48.4375 33.5938 48.4375Z" fill="#10243E"/>
<path d="M36.7188 23.4375C36.2875 23.4375 35.9375 23.0875 35.9375 22.6562V5.46875C35.9375 4.17656 34.8859 3.125 33.5938 3.125H16.4062C15.1141 3.125 14.0625 4.17656 14.0625 5.46875V22.6562C14.0625 23.0875 13.7125 23.4375 13.2812 23.4375C12.85 23.4375 12.5 23.0875 12.5 22.6562V5.46875C12.5 3.31562 14.2516 1.5625 16.4062 1.5625H33.5938C35.7484 1.5625 37.5 3.31562 37.5 5.46875V22.6562C37.5 23.0875 37.15 23.4375 36.7188 23.4375Z" fill="#10243E"/>
<path d="M41.4062 9.45313C40.975 9.45313 40.625 9.18125 40.625 8.75V8.59375C40.625 8.1625 40.975 7.8125 41.4062 7.8125C41.8375 7.8125 42.1875 8.1625 42.1875 8.59375C42.1875 9.025 41.8375 9.45313 41.4062 9.45313Z" fill="#10243E"/>
<path d="M41.4062 12.5781C40.975 12.5781 40.625 12.3062 40.625 11.875V11.7188C40.625 11.2875 40.975 10.9375 41.4062 10.9375C41.8375 10.9375 42.1875 11.2875 42.1875 11.7188C42.1875 12.15 41.8375 12.5781 41.4062 12.5781Z" fill="#10243E"/>
<path d="M41.4062 15.7031C40.975 15.7031 40.625 15.4313 40.625 15V14.8438C40.625 14.4125 40.975 14.0625 41.4062 14.0625C41.8375 14.0625 42.1875 14.4125 42.1875 14.8438C42.1875 15.275 41.8375 15.7031 41.4062 15.7031Z" fill="#10243E"/>
<path d="M8.59375 35.8594C8.1625 35.8594 7.8125 35.5875 7.8125 35.1563V35C7.8125 34.5688 8.1625 34.2188 8.59375 34.2188C9.025 34.2188 9.375 34.5688 9.375 35C9.375 35.4312 9.025 35.8594 8.59375 35.8594Z" fill="#10243E"/>
<path d="M8.59375 38.9844C8.1625 38.9844 7.8125 38.7125 7.8125 38.2813V38.125C7.8125 37.6938 8.1625 37.3438 8.59375 37.3438C9.025 37.3438 9.375 37.6938 9.375 38.125C9.375 38.5562 9.025 38.9844 8.59375 38.9844Z" fill="#10243E"/>
<path d="M8.59375 42.1094C8.1625 42.1094 7.8125 41.8375 7.8125 41.4063V41.25C7.8125 40.8188 8.1625 40.4688 8.59375 40.4688C9.025 40.4688 9.375 40.8188 9.375 41.25C9.375 41.6812 9.025 42.1094 8.59375 42.1094Z" fill="#10243E"/>
<path d="M38.8141 42.1875C38.7594 42.1875 38.7031 42.1828 38.6484 42.1703C38.2266 42.0797 37.9594 41.6641 38.05 41.2422L38.5656 38.8516C38.6281 38.5578 38.8547 38.3281 39.1453 38.2578C39.8828 38.0797 40.6016 37.7797 41.2812 37.3656C41.5328 37.2094 41.8562 37.2141 42.1078 37.3734L43.6547 38.3625L44.6125 37.3969L43.6234 35.8625C43.4609 35.6109 43.4578 35.2875 43.6125 35.0328C44.0266 34.3531 44.3266 33.6344 44.5031 32.8969C44.5734 32.6063 44.8016 32.3812 45.0938 32.3156L46.875 31.9203V30.5813L45.0953 30.1859C44.8031 30.1203 44.575 29.8953 44.5047 29.6047C44.3281 28.8672 44.0266 28.1484 43.6141 27.4688C43.4578 27.2141 43.4609 26.8922 43.6234 26.6406L44.6141 25.0922L43.6578 24.1359L42.1094 25.1266C41.8578 25.2875 41.5359 25.2906 41.2828 25.1344C40.6016 24.7203 39.8828 24.4203 39.1469 24.2422C38.8547 24.1719 38.6297 23.9406 38.5672 23.6484L38.1828 21.875H37.5C37.0688 21.875 36.7188 21.525 36.7188 21.0938C36.7188 20.6625 37.0688 20.3125 37.5 20.3125H38.8125C39.1797 20.3125 39.4984 20.5703 39.575 20.9297L39.9922 22.8563C40.5641 23.0297 41.125 23.2641 41.6656 23.5563L43.3437 22.4828C43.6531 22.2859 44.0563 22.3297 44.3172 22.5891L46.1625 24.4328C46.4219 24.6922 46.4656 25.0969 46.2672 25.4063L45.1937 27.0844C45.4859 27.6266 45.7203 28.1875 45.8937 28.7609L47.8234 29.1891C48.1828 29.2687 48.4375 29.5875 48.4375 29.9531V32.5469C48.4375 32.9125 48.1828 33.2313 47.825 33.3094L45.8953 33.7375C45.7219 34.3109 45.4875 34.8719 45.1953 35.4125L46.2672 37.075C46.4672 37.3828 46.425 37.7891 46.1656 38.0484L44.3203 39.9078C44.0594 40.1688 43.6547 40.2125 43.3453 40.0156L41.6672 38.9422C41.125 39.2344 40.5656 39.4688 39.9938 39.6422L39.5766 41.5688C39.4969 41.9375 39.1719 42.1875 38.8141 42.1875Z" fill="#10243E"/>
<path d="M39.6733 35.2781C39.4233 35.2781 39.1764 35.1563 39.0248 34.9328C38.7842 34.575 38.8795 34.0891 39.2389 33.8484C40.1061 33.2641 40.6248 32.2922 40.6248 31.25C40.6248 29.5266 39.2233 28.125 37.4998 28.125C37.2873 28.125 37.0764 28.1469 36.8748 28.1875C36.4561 28.2719 36.0389 28.0031 35.9514 27.5781C35.8655 27.1547 36.1373 26.7422 36.5608 26.6562C36.867 26.5953 37.1827 26.5625 37.4998 26.5625C40.0842 26.5625 42.1873 28.6656 42.1873 31.25C42.1873 32.8141 41.4108 34.2703 40.1077 35.1453C39.9748 35.2344 39.8233 35.2781 39.6733 35.2781Z" fill="#10243E"/>
<path d="M12.5 23.4375C9.91562 23.4375 7.8125 21.3344 7.8125 18.75C7.8125 17.1797 8.59375 15.7219 9.90312 14.8469C10.2578 14.6094 10.7453 14.7031 10.9859 15.0641C11.225 15.4219 11.1281 15.9078 10.7688 16.1469C9.89688 16.7313 9.375 17.7031 9.375 18.75C9.375 20.4735 10.7766 21.875 12.5 21.875C12.7094 21.875 12.9156 21.8547 13.1125 21.8141C13.5266 21.7281 13.9469 22.0016 14.0328 22.4266C14.1188 22.85 13.8437 23.261 13.4203 23.3453C13.1219 23.4063 12.8156 23.4375 12.5 23.4375Z" fill="#10243E"/>
<path d="M12.5 29.6874H11.1875C10.8203 29.6874 10.5016 29.4296 10.425 29.0702L10.0078 27.1437C9.43594 26.9702 8.875 26.7358 8.33438 26.4437L6.65625 27.5171C6.34531 27.714 5.94375 27.6718 5.68281 27.4108L3.8375 25.5671C3.57813 25.3077 3.53437 24.903 3.73281 24.5937L4.80625 22.9155C4.51406 22.3733 4.27969 21.8124 4.10625 21.239L2.17656 20.8108C1.81719 20.7312 1.5625 20.4124 1.5625 20.0468V17.453C1.5625 17.0874 1.81719 16.7687 2.175 16.6905L4.10469 16.2624C4.27813 15.689 4.5125 15.128 4.80469 14.5874L3.73438 12.9233C3.53438 12.6155 3.57656 12.2093 3.83594 11.9499L5.68125 10.0905C5.93906 9.82804 6.34531 9.78429 6.65625 9.98272L8.33438 11.0562C8.87656 10.764 9.43594 10.5296 10.0078 10.3562L10.425 8.4296C10.5156 8.00616 10.9391 7.73741 11.3531 7.83116C11.775 7.92179 12.0422 8.33741 11.9516 8.75929L11.4359 11.1499C11.3734 11.4437 11.1469 11.6733 10.8562 11.7437C10.1187 11.9218 9.4 12.2218 8.71875 12.6358C8.46562 12.7921 8.14375 12.7874 7.89219 12.628L6.34531 11.639L5.38594 12.6046L6.375 14.139C6.53906 14.3905 6.54219 14.714 6.38594 14.9687C5.97187 15.6483 5.67188 16.3671 5.49531 17.1046C5.425 17.3952 5.19687 17.6202 4.90469 17.6858L3.125 18.0796V19.4187L4.90469 19.814C5.19687 19.8796 5.425 20.1046 5.49531 20.3952C5.67188 21.1327 5.97344 21.8515 6.38594 22.5312C6.54219 22.7858 6.53906 23.1077 6.37656 23.3593L5.38594 24.9062L6.34219 25.8624L7.89063 24.8718C8.14219 24.7124 8.46562 24.7093 8.71719 24.864C9.39844 25.278 10.1172 25.578 10.8531 25.7562C11.1453 25.8265 11.3703 26.0577 11.4328 26.3499L11.8172 28.1249H12.5C12.9312 28.1249 13.2812 28.4749 13.2812 28.9062C13.2812 29.3374 12.9312 29.6874 12.5 29.6874Z" fill="#10243E"/>
<path d="M24.2189 28.9062C24.1564 28.9062 24.0939 28.8984 24.0299 28.8827C23.6095 28.7781 23.3564 28.3546 23.4611 27.9359L25.0236 21.6859C25.1267 21.2655 25.5439 21.0124 25.9705 21.1171C26.3908 21.2218 26.6439 21.6452 26.5392 22.064L24.9767 28.314C24.8892 28.6702 24.5705 28.9062 24.2189 28.9062Z" fill="#10243E"/>
<path d="M28.9066 28.9063C28.7066 28.9063 28.5066 28.8297 28.3535 28.6782C28.0488 28.3735 28.0488 27.8782 28.3535 27.5735L30.927 25L28.3551 22.4282C28.0504 22.1235 28.0504 21.6282 28.3551 21.3235C28.6598 21.0188 29.1551 21.0188 29.4598 21.3235L32.5848 24.4485C32.8895 24.7532 32.8895 25.2485 32.5848 25.5532L29.4598 28.6782C29.3066 28.8297 29.1066 28.9063 28.9066 28.9063Z" fill="#10243E"/>
<path d="M21.0941 28.9063C20.8941 28.9063 20.6941 28.8297 20.541 28.6782L17.416 25.5532C17.1113 25.2485 17.1113 24.7532 17.416 24.4485L20.541 21.3235C20.8457 21.0188 21.341 21.0188 21.6457 21.3235C21.9504 21.6282 21.9504 22.1235 21.6457 22.4282L19.0738 25L21.6457 27.5719C21.9504 27.8766 21.9504 28.3719 21.6457 28.6766C21.4941 28.8297 21.2941 28.9063 21.0941 28.9063Z" fill="#10243E"/>
</svg>
