<svg width="201" height="38" viewBox="0 0 201 38" fill="none" xmlns="http://www.w3.org/2000/svg">
<path fill-rule="evenodd" clip-rule="evenodd" d="M140.413 7.95879C137.393 7.95879 135.127 9.09159 133.994 10.9796L133.428 12.1122V8.5253H128.519V30.4254H133.805V17.3984C133.805 14.3778 135.505 12.4898 138.525 12.4898C141.357 12.4898 142.867 14.1891 142.867 17.2097V30.4254H148.154V16.2658C147.965 11.1683 145.133 7.95879 140.413 7.95879ZM114.926 7.95879C108.696 7.95879 104.92 11.9235 104.92 18.1536V21.1744C104.92 27.2159 108.884 30.803 115.115 30.803C119.268 30.803 122.289 29.2926 123.988 26.0831L120.779 24.1951C119.457 26.0831 117.192 27.2159 115.115 27.2159C111.905 27.2159 110.017 25.3279 110.017 21.9297V20.9855H124.743V17.3984C124.554 11.7346 120.779 7.95879 114.926 7.95879ZM119.835 17.776H110.017V17.2097C110.017 13.6226 111.716 11.5459 114.926 11.5459C117.947 11.5459 119.835 13.4339 119.835 16.8321V17.776ZM200.261 4.93818V0.784554H182.136V4.93818H188.556V26.2718H182.136V30.4254H200.261V26.2718H193.842V4.93818H200.261ZM62.2524 0.218262C54.1343 0.218262 49.0367 5.31579 49.0367 13.4339V17.776C49.0367 25.8944 54.1343 30.9917 62.2524 30.9917C70.3705 30.9917 75.4678 25.8944 75.4678 17.776V13.4339C75.4678 5.31579 70.3705 0.218262 62.2524 0.218262ZM69.9929 18.1536C69.9929 23.6288 67.161 26.6494 62.2524 26.6494C57.3438 26.6494 54.5119 23.6288 54.5119 18.1536V13.0563C54.5119 7.58118 57.3438 4.56058 62.2524 4.56058C67.161 4.56058 69.9929 7.58118 69.9929 13.0563V18.1536ZM92.0819 8.1477C89.25 8.1477 86.9844 9.28029 85.6629 11.1683L85.0964 11.9235V8.5253H80.1878V37.977H85.474V27.4046L86.0405 28.1598C87.1731 29.8589 89.6276 30.9917 92.2706 30.9917C96.8016 30.9917 101.333 27.9711 101.333 21.3631V17.5873C101.144 12.8674 98.312 7.95879 92.0819 8.1477ZM95.8577 21.1744C95.8577 24.7616 93.781 26.8383 90.5715 26.8383C87.5507 26.8383 85.2853 24.5727 85.2853 21.1744V17.9649C85.2853 14.5667 87.362 12.3011 90.5715 12.3011C93.781 12.3011 95.8577 14.5667 95.8577 17.9649V21.1744ZM162.503 0.784554L151.93 30.4254H157.216L159.293 24.0064H171.565L173.64 30.2365H178.927L168.354 0.595861L162.503 0.784554ZM160.613 19.8529L165.333 4.93818L170.055 19.8529H160.613ZM35.4435 15.6993C36.3876 13.0563 36.01 10.2244 34.6883 7.95879C32.6116 4.37167 28.4582 2.48387 24.4934 3.42777C22.228 0.973463 18.8296 -0.159342 15.4314 0.406955C12.033 1.16216 9.38998 3.61647 8.25717 6.82598C5.61396 7.39249 3.34856 9.0916 2.02706 11.3572C-0.0498637 14.9441 0.327739 19.4753 3.15965 22.4959C2.21575 25.1392 2.59335 27.9711 3.91486 30.2365C5.99156 33.8236 10.1452 35.7116 14.1099 34.7677C15.9977 36.8444 18.452 37.977 21.2839 37.977C25.4376 37.977 29.0245 35.334 30.3462 31.3693C32.9892 30.803 35.2548 29.1037 36.5763 26.8383C38.653 23.2512 38.2754 18.7201 35.4435 15.6993ZM21.2839 35.5227C19.5848 35.5227 18.0744 34.9564 16.7529 33.8236L16.9418 33.6349L24.4934 29.2926C24.871 29.1039 25.0599 28.7263 25.0599 28.1598V17.5873L28.2695 19.4753V28.3487C28.2695 32.3132 25.2486 35.5227 21.2839 35.5227ZM5.99156 28.915C5.23657 27.4046 4.85896 25.8944 5.23657 24.1951L5.42526 24.384L12.9771 28.7263C13.3547 28.915 13.7323 28.915 14.2986 28.7263L23.5495 23.4398V27.027C23.5495 27.027 23.5495 27.027 23.5495 27.2159L15.9977 31.5582C12.4106 33.446 8.06848 32.3132 5.99156 28.915ZM4.10376 12.6787C4.85897 11.1683 6.18047 10.2244 7.87957 9.6579V18.5312C7.87957 18.9088 8.06848 19.2864 8.44587 19.664L17.5081 24.9503L14.2986 26.8383C14.2986 26.8383 14.2986 26.8383 14.1099 26.8383L6.55807 22.4959C3.34856 20.2305 2.21575 15.8882 4.10376 12.6787ZM30.1573 18.7201L21.0952 13.4339L24.3047 11.5459C24.3047 11.5459 24.3047 11.5459 24.4934 11.5459L32.0453 15.8882C34.4996 17.2097 35.8211 19.8529 35.6324 22.6849C35.4435 25.3279 33.5557 27.7822 31.1014 28.7263V19.8529C30.9125 19.2864 30.5349 18.9088 30.1573 18.7201ZM33.3668 14.0002L33.1781 13.8115L25.6262 9.46919C25.2486 9.28029 24.6823 9.28029 24.3047 9.46919L15.2425 14.7554V11.1683C15.2425 11.1683 15.2425 11.1683 15.2425 10.9796L22.7943 6.63728C25.2486 5.31578 28.0806 5.31579 30.3462 7.01489C32.6116 8.5253 33.7444 11.1683 33.3668 14.0002ZM13.5434 20.4192L10.3339 18.5312V9.6579C10.3339 6.82598 11.8443 4.37167 14.4873 3.23887C16.9418 2.10627 19.9624 2.48387 22.0391 4.18298L21.8504 4.37167L14.2986 8.714C13.921 8.90269 13.7323 9.28029 13.7323 9.8468L13.5434 20.4192ZM15.2425 16.6434L19.3961 14.3778L23.5495 16.6434V21.3631L19.3961 23.6288L15.2425 21.3631V16.6434Z" fill="black"/>
</svg>
