<svg width="181" height="41" viewBox="0 0 181 41" fill="none" xmlns="http://www.w3.org/2000/svg">
<g clip-path="url(#clip0_1659_470)">
<path d="M0 18.67C0.0540348 18.4511 0.10807 18.2505 0.126081 18.0498C0.432279 14.5109 1.69309 11.118 3.76443 8.27234C5.27848 6.13315 7.22263 4.3429 9.46895 3.01936C11.7153 1.69582 14.2128 0.869001 16.7974 0.593292C19.3819 0.317584 21.9947 0.599239 24.464 1.41973C26.9334 2.24022 29.2031 3.58094 31.1241 5.35369C33.0532 7.1385 34.6043 9.30164 35.683 11.7119C36.7618 14.1221 37.3459 16.7292 37.3998 19.3749C37.4537 22.0206 36.9763 24.6499 35.9966 27.1031C35.0169 29.5564 33.5553 31.7824 31.7004 33.6463C29.2127 36.1092 26.0925 37.8157 22.6946 38.5715C21.8661 38.754 21.0015 38.8269 20.137 38.9546L19.7767 39.0276H17.7594L17.3992 38.9546C14.8441 38.7488 12.3582 38.0126 10.0961 36.7919C7.83409 35.5711 5.84434 33.8918 4.25074 31.8587C1.90287 28.8767 0.474523 25.2602 0.144093 21.461C0.1151 21.2517 0.0729874 21.0446 0.0180116 20.8408V18.6518L0 18.67ZM19.7587 18.4329L19.7948 18.743L20.2811 23.7412C20.4071 25.0546 20.5512 26.368 20.6413 27.6813C20.6689 28.2822 20.8211 28.8705 21.088 29.408C21.3549 29.9454 21.7305 30.4199 22.1903 30.8006C23.069 31.5264 24.1557 31.9451 25.2885 31.9944C26.4212 32.0437 27.5394 31.721 28.4763 31.0743C29.1276 30.6504 29.6474 30.0488 29.9756 29.3388C30.3039 28.6287 30.4272 27.8391 30.3315 27.0611L30.1514 25.5288C29.6978 20.7991 29.2535 16.0684 28.8186 11.3369C28.7392 10.4546 28.3789 9.62236 27.7919 8.96551C27.5307 8.66532 27.2541 8.37914 26.9634 8.10816C26.4227 7.56045 25.737 7.18289 24.9892 7.02105C24.2413 6.85921 23.4632 6.92 22.7487 7.19608L21.9922 7.43322L13.2746 10.0965L7.78101 11.7382C7.09657 11.9571 6.46617 12.322 5.96184 12.8327C5.02046 13.8168 4.48073 15.1246 4.45067 16.4944C4.42062 17.8643 4.90244 19.1951 5.79974 20.2205C6.88043 21.3515 8.14124 21.8258 9.67223 21.5157C10.0685 21.4245 10.4647 21.2786 10.861 21.1509L19.2544 18.597L19.7587 18.4146V18.4329Z" fill="#04223A"/>
<path d="M166.605 33.0454V34.5412C166.608 34.578 166.603 34.6149 166.591 34.6496C166.578 34.6842 166.559 34.7157 166.533 34.7419C166.508 34.7689 166.477 34.7896 166.442 34.8022C166.408 34.8149 166.371 34.8192 166.335 34.8149H155.762C155.546 34.8149 155.474 34.7419 155.456 34.523V33.0637L155.816 32.936C157.005 32.5347 157.473 31.9509 157.563 30.6558C157.617 29.7802 157.653 28.9046 157.653 28.029V18.5252C157.653 17.5948 157.599 16.6645 157.563 15.7342C157.563 15.5518 157.527 15.3694 157.473 15.187C157.413 14.8773 157.273 14.5893 157.067 14.3522C156.862 14.1151 156.598 13.9374 156.302 13.8371L155.222 13.5087V11.6846H155.492L163.831 11.4657H164.083C164.408 11.4839 164.462 11.5751 164.444 11.9035L164.173 14.4755V14.8404L164.534 14.512C165.471 13.6596 166.498 12.9134 167.596 12.2865C169.397 11.2833 171.486 11.0096 173.467 11.5569C175.413 12.0129 176.655 13.2898 177.286 15.2234C177.574 16.1355 177.754 17.0841 177.79 18.0326C177.844 18.6893 177.862 19.3643 177.862 20.0392V27.956C177.862 28.8681 177.916 29.7802 177.934 30.6923L177.97 30.9659C178.006 31.4219 178.186 31.8415 178.475 32.1881C178.763 32.5529 179.159 32.7718 179.591 32.8813L180.042 33.0272L180.114 33.1002V34.5595C180.117 34.5962 180.112 34.6332 180.099 34.6678C180.087 34.7024 180.067 34.7339 180.042 34.7601C180.015 34.7899 179.981 34.8123 179.943 34.825C179.905 34.8378 179.865 34.8406 179.826 34.8331H169.289C169.019 34.8331 168.947 34.7601 168.947 34.5048V33.0454L169.487 32.863C169.836 32.7801 170.153 32.5935 170.397 32.327C170.641 32.0605 170.801 31.7263 170.856 31.3672C170.964 30.747 171.036 30.1268 171.036 29.5066C171.074 26.0224 171.056 22.5378 170.982 19.0542C170.956 18.4308 170.86 17.8125 170.694 17.2118C170.243 15.57 169.145 14.9133 167.506 15.3876C166.676 15.5985 165.934 16.0708 165.387 16.7364C164.84 17.402 164.516 18.2264 164.462 19.0906L164.48 29.4701C164.48 30.0173 164.534 30.5463 164.606 31.0753C164.642 31.5314 164.804 31.9509 165.092 32.2793C165.38 32.6076 165.776 32.8265 166.191 32.9177C166.33 32.9558 166.468 32.9984 166.605 33.0454Z" fill="#04223A"/>
<path d="M108.201 32.4784V33.9924C108.207 34.0321 108.203 34.0725 108.191 34.1106C108.178 34.1486 108.157 34.1831 108.129 34.2113C108.102 34.2411 108.068 34.2634 108.03 34.2762C107.992 34.289 107.952 34.2917 107.913 34.2843H99.8974C99.6272 34.266 99.5552 34.1931 99.5732 33.9194L99.7173 31.7487L99.7533 31.2379C99.5732 31.1832 99.5192 31.3109 99.4291 31.3839C98.7987 31.9129 98.1863 32.4784 97.5379 32.9526C95.8644 34.1967 93.8089 34.798 91.7381 34.6491C90.6798 34.6046 89.6452 34.3177 88.7122 33.81C88.0385 33.4502 87.4547 32.9395 87.0052 32.3168C86.5558 31.6941 86.2525 30.9757 86.1185 30.2164C85.842 29.0852 85.8956 27.897 86.2729 26.7961C86.6502 25.6951 87.3349 24.7288 88.2439 24.0143C89.344 23.1599 90.5893 22.5169 91.9183 22.1172C93.5393 21.6064 95.2324 21.2416 96.9255 21.0591L98.9428 20.822C98.9788 20.8038 98.9968 20.7855 98.9968 20.749C98.9968 19.4539 99.0689 18.1405 98.8707 16.8271C98.7816 16.1317 98.5549 15.4617 98.2043 14.857C97.9908 14.4908 97.6921 14.183 97.3342 13.9604C96.9763 13.7378 96.5701 13.6073 96.151 13.5801C95.5926 13.5071 95.0163 13.5801 94.4759 13.726C93.9896 13.872 93.5393 14.1638 93.2151 14.5652C92.7468 15.1124 92.4046 15.7691 92.2245 16.4805C92.0623 17.0278 91.9543 17.575 91.8102 18.1405L91.504 18.1587H87.5594C87.5262 18.1592 87.4931 18.153 87.4622 18.1405C87.4313 18.128 87.4031 18.1094 87.3793 18.0858C87.3523 18.0568 87.3319 18.0222 87.3194 17.9844C87.307 17.9466 87.3028 17.9065 87.3073 17.8669V13.6896L89.5767 12.7228C91.3779 11.9201 93.3052 11.3546 95.2504 10.9898C97.2787 10.606 99.3634 10.6494 101.374 11.1175C102.833 11.4823 104.022 12.2667 104.797 13.6531C105.157 14.3098 105.409 15.0212 105.553 15.7691C105.715 16.6265 105.787 17.502 105.787 18.3959V27.5531C105.787 28.5017 105.859 29.4685 105.913 30.4171C105.913 30.5995 105.949 30.7819 106.003 30.9278C106.057 31.2137 106.186 31.4797 106.376 31.6979C106.566 31.9161 106.811 32.0786 107.084 32.1682L108.201 32.4784ZM99.0148 23.3758L96.7454 23.6859C95.9709 23.8136 95.2144 24.0872 94.5119 24.4886C94.0538 24.7497 93.6551 25.1055 93.3417 25.5329C93.0282 25.9603 92.8072 26.4498 92.6928 26.9694C92.5487 27.5714 92.5126 28.2098 92.5847 28.83C92.6171 29.3027 92.794 29.7535 93.091 30.1196C93.388 30.4858 93.7902 30.7491 94.2418 30.8731C94.8001 31.0555 95.4125 31.0555 95.9709 30.9278C96.8354 30.7454 97.5919 30.2529 98.1503 29.5597C98.6906 28.8483 99.0148 27.9909 99.0328 27.0971V23.7224L98.9968 23.3758H99.0148Z" fill="#04223A"/>
<path d="M129.175 33.0441L129.698 32.8617C130.238 32.6792 130.778 32.3691 131.193 31.9678C131.805 31.4206 132.382 30.8368 132.922 30.2349L137.965 24.3976L138.073 24.2152L137.857 23.8868L132.652 16.3166C132.255 15.7511 131.823 15.2221 131.391 14.6748L131.175 14.4377C130.742 13.9817 130.274 13.5621 129.554 13.4891V12.7777V12.0116C129.554 11.7197 129.626 11.6832 129.86 11.6467H140.433C140.466 11.6463 140.499 11.6525 140.53 11.665C140.561 11.6775 140.589 11.6961 140.613 11.7197C140.643 11.747 140.667 11.7809 140.682 11.8188C140.698 11.8567 140.705 11.8976 140.703 11.9386V13.4709L140.397 13.5439L139.73 13.8357C139.572 13.9217 139.445 14.0564 139.367 14.2203C139.289 14.3843 139.265 14.569 139.298 14.7478C139.334 15.0032 139.406 15.2403 139.514 15.441C139.622 15.6964 139.766 15.9335 139.928 16.1524L142.162 19.4359L142.288 19.6001L142.468 19.4176L144.539 16.7361C144.756 16.4625 144.936 16.1889 145.098 15.897C145.278 15.5869 145.35 15.2586 145.368 14.912C145.389 14.6528 145.327 14.3938 145.19 14.1734C145.054 13.9531 144.851 13.7835 144.611 13.6898L144.017 13.5074L143.657 13.4527V11.9021C143.659 11.8671 143.668 11.8328 143.683 11.8014C143.699 11.77 143.72 11.7422 143.747 11.7197C143.77 11.6952 143.798 11.676 143.829 11.6634C143.86 11.6509 143.894 11.6452 143.927 11.6467H152.176C152.428 11.6467 152.5 11.7379 152.519 11.9751V13.4344C152.448 13.464 152.376 13.4884 152.302 13.5074C151.564 13.708 150.897 14.1093 150.357 14.6566C149.835 15.1856 149.348 15.7328 148.862 16.2801C147.223 18.1961 145.59 20.1176 143.963 22.0444L144.179 22.391L149.186 29.6876L150.303 31.2382C150.933 32.0408 151.672 32.6975 152.681 32.9893L152.753 33.0441V34.5399C152.753 34.7223 152.645 34.8135 152.464 34.8135H141.874C141.621 34.7953 141.549 34.7405 141.531 34.4669V33.0076L141.928 32.9164C142.108 32.8799 142.288 32.8252 142.45 32.734C142.593 32.6664 142.714 32.5579 142.797 32.4218C142.88 32.2857 142.923 32.1279 142.918 31.9678C142.928 31.6277 142.84 31.292 142.666 31.001C141.768 29.6497 140.867 28.2998 139.964 26.9514L139.748 26.6595L139.55 26.8784L137.299 29.7241L136.722 30.545C136.524 30.8733 136.416 31.2746 136.434 31.6395C136.418 31.8719 136.476 32.1034 136.599 32.3003C136.722 32.4971 136.904 32.6491 137.119 32.734C137.443 32.8617 137.749 32.9529 138.073 33.0258V34.5581C138.077 34.608 138.065 34.6578 138.039 34.7004C138.013 34.743 137.975 34.7762 137.929 34.7953H129.464C129.426 34.805 129.386 34.8052 129.349 34.7956C129.311 34.786 129.276 34.7671 129.248 34.7405C129.221 34.7151 129.2 34.6837 129.188 34.6489C129.175 34.614 129.171 34.5767 129.175 34.5399V33.0441Z" fill="#04223A"/>
<path d="M62.2069 14.0174L61.7747 12.4851C61.6126 11.9926 61.4685 11.573 61.2884 11.1352C61.1623 10.8616 61.0002 10.588 60.82 10.3326C60.6 10.0188 60.3119 9.76022 59.9778 9.57681C59.6437 9.39339 59.2725 9.29001 58.8928 9.2746C58.1723 9.21988 57.4519 9.21988 56.7314 9.20164C56.6882 9.2089 56.6459 9.22114 56.6053 9.23812L56.5693 9.56647V29.9423C56.5693 30.4895 56.6233 31.0368 56.7134 31.584C56.7513 31.8604 56.8639 32.1208 57.0387 32.3365C57.2135 32.5522 57.4438 32.7147 57.704 32.8062C58.0283 32.9339 58.3885 32.9886 58.7127 33.0981L58.9649 33.1528V34.5027C58.9707 34.5683 58.9514 34.6336 58.9108 34.6851C58.8877 34.7096 58.8596 34.7288 58.8286 34.7413C58.7975 34.7539 58.7641 34.7596 58.7307 34.758H48.0318C47.7616 34.758 47.6896 34.7033 47.6896 34.4297V33.171L47.9418 33.0981L48.7163 32.8974C49.5448 32.6785 49.941 32.0765 50.0131 31.2374C50.0671 30.7449 50.0851 30.2524 50.0851 29.7599V9.29284C50.0491 9.25636 50.0131 9.21988 49.9771 9.21988C49.1305 9.18339 48.302 9.21988 47.4554 9.31109C46.789 9.43878 46.1946 9.80361 45.7804 10.3691C45.4562 10.8434 45.204 11.3724 45.0419 11.9196L44.5015 13.7255C44.5015 13.8167 44.4655 13.908 44.4295 13.9992H41.8899C41.5296 13.9992 41.4756 13.9627 41.4756 13.5978V6.92144C41.4756 6.59309 41.5296 6.55661 41.8718 6.55661H64.6025C65.1428 6.55661 65.1608 6.48365 65.1608 7.14034V13.6708C65.1608 13.9627 65.1068 13.9992 64.8366 14.0174H62.2069Z" fill="#04223A"/>
<path d="M127.377 30.3807C125.413 32.3508 123.324 33.9561 120.586 34.4486C118.432 34.8342 116.216 34.6456 114.156 33.9013C113.009 33.45 111.974 32.7487 111.124 31.8471C110.274 30.9456 109.631 29.8658 109.239 28.6843C108.796 27.451 108.524 26.162 108.428 24.8535C108.338 23.7226 108.338 22.5551 108.41 21.3876C108.557 19.1986 109.265 17.0861 110.464 15.2585C111.764 13.3588 113.673 11.9731 115.867 11.3365C117.327 10.899 118.849 10.7079 120.37 10.7711C122.423 10.7893 124.477 11.0994 126.476 11.6466L126.944 11.7926L126.962 12.1392V17.3745C126.962 17.4475 126.944 17.5022 126.89 17.5569C126.845 17.5952 126.787 17.6147 126.728 17.6116H122.513L122.243 17.5934L122.045 16.5901C121.911 15.9012 121.674 15.2369 121.343 14.62C121.21 14.3528 121.019 14.1191 120.786 13.9361C120.552 13.753 120.281 13.6252 119.992 13.562C119.501 13.4508 118.99 13.4751 118.511 13.6323C118.033 13.7896 117.605 14.074 117.272 14.4558C116.84 14.9301 116.516 15.4774 116.317 16.0976C115.934 17.1674 115.692 18.2836 115.597 19.4175C115.417 21.0228 115.399 22.6463 115.507 24.2516C115.561 25.3461 115.759 26.4405 116.101 27.4986C116.233 27.8763 116.396 28.2424 116.588 28.593C116.915 29.2443 117.415 29.7896 118.033 30.1669C118.651 30.5442 119.361 30.7383 120.082 30.7273C121.181 30.782 122.279 30.4719 123.18 29.8517C123.792 29.4322 124.351 28.9396 124.945 28.4836L125.215 28.2465C125.395 28.0823 125.503 28.064 125.647 28.2465L127.377 30.399V30.3807Z" fill="#04223A"/>
<path d="M85.3029 11.6457V17.7748C85.3029 18.1762 85.2309 18.2856 84.7806 18.2856H80.9981L80.854 17.9025C80.6739 17.41 80.4578 16.954 80.2056 16.4979C80.0819 16.2711 79.9148 16.0715 79.7141 15.9108C79.5133 15.7501 79.283 15.6315 79.0366 15.5619C78.7901 15.4923 78.5324 15.4731 78.2786 15.5054C78.0247 15.5377 77.7797 15.6208 77.5579 15.75C76.9353 16.0343 76.4032 16.4888 76.0214 17.0623C75.6396 17.6359 75.4232 18.3058 75.3965 18.997C75.3605 19.5443 75.3425 20.1098 75.3425 20.6935V28.2455C75.3425 29.0846 75.4145 29.9237 75.4686 30.7628L75.5586 31.2189C75.6243 31.6028 75.799 31.959 76.0613 32.244C76.3236 32.5291 76.6621 32.7307 77.0356 32.8241L77.7561 33.0065V34.5388C77.7542 34.5739 77.7453 34.6081 77.7298 34.6395C77.7143 34.6709 77.6926 34.6987 77.666 34.7212C77.6429 34.7457 77.6148 34.7649 77.5837 34.7775C77.5527 34.7901 77.5193 34.7958 77.4859 34.7942H66.787C66.4267 34.7942 66.3727 34.7577 66.3727 34.3564V33.0065L66.859 32.8424C67.8317 32.5687 68.336 31.8573 68.426 30.854C68.5109 30.0053 68.559 29.1532 68.5701 28.3002V18.1397C68.5701 17.2641 68.4801 16.4067 68.444 15.5311C68.444 15.4034 68.408 15.294 68.372 15.1663C68.309 14.86 68.1677 14.5758 67.9623 14.3421C67.7568 14.1084 67.4944 13.9335 67.2012 13.8347C66.841 13.707 66.4808 13.6158 66.1025 13.5063V11.6822L66.3367 11.6457L74.8021 11.4633H74.9823C75.3065 11.4633 75.3785 11.5545 75.3425 11.8828L75.0903 14.7103L75.0723 15.0204L75.3605 14.7285C75.9729 13.9988 76.6934 13.3421 77.4499 12.7949C79.0169 11.7004 80.8721 11.1532 82.7633 11.2991C83.5378 11.3356 84.3123 11.4815 85.0868 11.5727L85.3029 11.6274V11.6457Z" fill="#04223A"/>
</g>
<defs>
<clipPath id="clip0_1659_470">
<rect width="180.116" height="40.1314" fill="white" transform="translate(0 0.520508)"/>
</clipPath>
</defs>
</svg>
