<svg width="50" height="50" viewBox="0 0 50 50" fill="none" xmlns="http://www.w3.org/2000/svg">
<g clip-path="url(#clip0_1650_1110)">
<path d="M38.4372 38.3333H36.7705V41.6666H21.7705V43.3333H36.7705V45.8333C36.7705 47.2139 35.6511 48.3333 34.2705 48.3333H15.9372C15.044 48.332 14.2188 47.856 13.7704 47.0833L12.3271 47.9166C13.0742 49.2036 14.4491 49.9971 15.9372 49.9999H34.2705C36.5707 49.9971 38.4343 48.1335 38.4372 45.8333V38.3333Z" fill="#10243E"/>
<path d="M24.2705 45H25.9372V46.6667H24.2705V45Z" fill="#10243E"/>
<path d="M29.2712 22.5V20.8333H26.7288C26.3134 15.5155 22.0889 11.2911 16.7712 10.8757V8.33333H15.1045V10.8757C14.543 10.9188 13.9859 11.0059 13.4378 11.1357V6.66667H26.7712V5H13.4378V4.16667C13.4378 2.78605 14.5572 1.66667 15.9378 1.66667H34.2712C34.8799 1.66667 35.4679 1.88883 35.9244 2.29167L37.0271 1.04167C36.2662 0.369873 35.286 -0.000406566 34.2712 3.35001e-07H15.9378C13.6376 0.00284865 11.774 1.86646 11.7712 4.16667V11.6667C8.01872 13.2385 5.46134 16.7773 5.14681 20.8333H2.60449V22.5H5.14884C5.54191 27.828 9.77653 32.0654 15.1045 32.4618V35H16.7712V32.4618C22.0991 32.0654 26.3337 27.828 26.7268 22.5H29.2712ZM15.1045 29.1667V30.7951C13.942 30.6905 12.8108 30.3638 11.7712 29.8332V28.3333C11.7712 26.0323 13.6368 24.1667 15.9378 24.1667C18.2389 24.1667 20.1045 26.0323 20.1045 28.3333V29.8332C19.0653 30.3646 17.9337 30.6917 16.7712 30.7975V29.1667H15.1045ZM13.4378 20C13.4378 18.6194 14.5572 17.5 15.9378 17.5C17.3184 17.5 18.4378 18.6194 18.4378 20C18.4378 21.3806 17.3184 22.5 15.9378 22.5C14.5572 22.5 13.4378 21.3806 13.4378 20ZM22.0487 28.5002C21.9587 28.5832 21.8627 28.6499 21.7712 28.7268V28.3333C21.7691 26.1564 20.5549 24.1618 18.6222 23.16C19.9609 22.0325 20.452 20.1884 19.8518 18.5445C19.2516 16.9002 17.6879 15.8065 15.9378 15.8065C14.1877 15.8065 12.624 16.9002 12.0238 18.5445C11.4237 20.1884 11.9148 22.0325 13.2535 23.16C11.3207 24.1618 10.1065 26.1564 10.1045 28.3333V28.7309C10.0121 28.6552 9.9161 28.584 9.82699 28.5042C8.1001 26.9556 7.02384 24.8104 6.81551 22.5H8.43783V20.8333H6.81348C7.22078 16.4339 10.7051 12.9496 15.1045 12.5423V14.1667H16.7712V12.5423C21.1706 12.9496 24.6549 16.4339 25.0622 20.8333H23.4378V22.5H25.0601C24.8518 24.8104 23.7756 26.9556 22.0487 28.5042V28.5002Z" fill="#10243E"/>
<path d="M47.6042 14.9999C48.0644 14.9999 48.4375 14.6268 48.4375 14.1666V4.16659C48.4375 3.70638 48.0644 3.33325 47.6042 3.33325H29.2708C28.8106 3.33325 28.4375 3.70638 28.4375 4.16659V14.1666C28.4375 14.6268 28.8106 14.9999 29.2708 14.9999H47.6042ZM30.1042 4.99992H46.7708V13.3333H30.1042V4.99992Z" fill="#10243E"/>
<path d="M31.7705 6.66675H35.1038V8.33341H31.7705V6.66675Z" fill="#10243E"/>
<path d="M36.7705 6.66675H45.1038V8.33341H36.7705V6.66675Z" fill="#10243E"/>
<path d="M31.7705 10H45.1038V11.6667H31.7705V10Z" fill="#10243E"/>
<path d="M47.457 16.6667C46.8116 16.668 46.1891 16.9048 45.7069 17.3333L38.4376 23.7419V16.6667H36.7709V25.0001H37.0118L32.271 29.1834C29.1867 29.36 26.7746 31.9105 26.7709 35.0001V36.4702C26.7742 37.297 26.3066 38.0543 25.5653 38.4209C25.219 38.5934 25.0371 38.9816 25.1258 39.358C25.2145 39.7344 25.5506 40.0005 25.9376 40.0001H31.7709C34.8605 39.9964 37.411 37.5843 37.5876 34.5L49.4426 21.0649C50.1307 20.2845 50.2979 19.1733 49.8695 18.2248C49.4414 17.2763 48.4974 16.6667 47.457 16.6667ZM31.7709 38.3334H27.9599C28.2744 37.7629 28.4388 37.1217 28.4376 36.4702V35.0001C28.4404 32.8293 30.1071 31.023 32.271 30.8468L35.9242 34.5C35.7484 36.6639 33.9417 38.331 31.7709 38.3334ZM48.1926 19.9626L36.7335 32.9501L33.8209 30.0383L46.8084 18.5784C47.1969 18.2374 47.7833 18.2565 48.1491 18.6219C48.5145 18.9877 48.5336 19.5741 48.1926 19.9626Z" fill="#10243E"/>
<path d="M0.937826 45.8333H19.2712C19.7314 45.8333 20.1045 45.4601 20.1045 44.9999V38.3333C20.1045 37.873 19.7314 37.4999 19.2712 37.4999H13.4378V33.3333H11.7712V37.4999H0.937826C0.47762 37.4999 0.104492 37.873 0.104492 38.3333V44.9999C0.104492 45.4601 0.47762 45.8333 0.937826 45.8333ZM1.77116 39.1666H18.4378V44.1666H1.77116V39.1666Z" fill="#10243E"/>
<path d="M3.4375 40.8333H7.60417V42.4999H3.4375V40.8333Z" fill="#10243E"/>
<path d="M9.27051 40.8333H16.7705V42.4999H9.27051V40.8333Z" fill="#10243E"/>
<path d="M0.937826 11.6666H9.27116C9.73136 11.6666 10.1045 11.2935 10.1045 10.8333V4.16659C10.1045 3.70638 9.73136 3.33325 9.27116 3.33325H0.937826C0.47762 3.33325 0.104492 3.70638 0.104492 4.16659V10.8333C0.104492 11.2935 0.47762 11.6666 0.937826 11.6666ZM1.77116 4.99992H8.43783V9.99992H1.77116V4.99992Z" fill="#10243E"/>
<path d="M3.4375 6.66675H6.77083V8.33341H3.4375V6.66675Z" fill="#10243E"/>
</g>
<defs>
<clipPath id="clip0_1650_1110">
<rect width="50" height="50" fill="white"/>
</clipPath>
</defs>
</svg>
